<svg width="192" height="192" viewBox="0 0 192 192" fill="none" xmlns="http://www.w3.org/2000/svg">
<rect x="16" y="16" width="160" height="160" rx="80" fill="white" fill-opacity="0.1"/>
<g filter="url(#filter0_d_78_1417)">
<rect x="32" y="32" width="128" height="128" rx="64" fill="#89DEFA" shape-rendering="crispEdges"/>
<rect x="60" y="60" width="72" height="72" rx="4" fill="#083A78"/>
<path d="M60 64C60 61.7909 61.7909 60 64 60H128C130.209 60 132 61.7909 132 64V68H60V64Z" fill="url(#paint0_linear_78_1417)"/>
<rect x="69" y="77" width="35" height="19" rx="1" stroke="#FFEB3B" stroke-width="2"/>
<path d="M69 77L104 96" stroke="#FFEB3B" stroke-width="2"/>
<path d="M103.85 76.7095L69.1496 96.2906" stroke="#FFEB3B" stroke-width="2"/>
<path d="M88 102V111C88 113.209 89.7862 115 91.9953 115C94.0426 115 97.0718 115 101.5 115M88 102L83 107M88 102L93 107M101.5 115C99.9379 113.633 97.5 111.5 97.5 111.5M101.5 115C99.9379 116.367 97.5 118.5 97.5 118.5" stroke="#FFEB3B" stroke-width="2" stroke-linecap="round" stroke-linejoin="round"/>
<rect x="106" y="103" width="37" height="21" rx="2" fill="#FFEB3B"/>
<path d="M116.819 112.196L110.478 119.336C109.905 119.981 110.363 121 111.226 121H138.04C138.857 121 139.329 120.074 138.85 119.413L130.708 108.178C130.297 107.61 129.443 107.631 129.061 108.219L124.261 115.589C123.937 116.086 123.253 116.194 122.792 115.819L118.197 112.084C117.782 111.746 117.174 111.796 116.819 112.196Z" fill="#083A78"/>
</g>
<defs>
<filter id="filter0_d_78_1417" x="0" y="0" width="192" height="192" filterUnits="userSpaceOnUse" color-interpolation-filters="sRGB">
<feFlood flood-opacity="0" result="BackgroundImageFix"/>
<feColorMatrix in="SourceAlpha" type="matrix" values="0 0 0 0 0 0 0 0 0 0 0 0 0 0 0 0 0 0 127 0" result="hardAlpha"/>
<feOffset/>
<feGaussianBlur stdDeviation="16"/>
<feComposite in2="hardAlpha" operator="out"/>
<feColorMatrix type="matrix" values="0 0 0 0 0.109804 0 0 0 0 0.709804 0 0 0 0 0.878431 0 0 0 1 0"/>
<feBlend mode="normal" in2="BackgroundImageFix" result="effect1_dropShadow_78_1417"/>
<feBlend mode="normal" in="SourceGraphic" in2="effect1_dropShadow_78_1417" result="shape"/>
</filter>
<linearGradient id="paint0_linear_78_1417" x1="96" y1="60" x2="96" y2="68" gradientUnits="userSpaceOnUse">
<stop stop-color="#104681"/>
<stop offset="1" stop-color="#1C669B"/>
</linearGradient>
</defs>
</svg>
