<svg width="192" height="192" viewBox="0 0 192 192" fill="none" xmlns="http://www.w3.org/2000/svg">
<rect x="16" y="16" width="160" height="160" rx="80" fill="white" fill-opacity="0.1"/>
<g filter="url(#filter0_d_78_1418)">
<rect x="32" y="32" width="128" height="128" rx="64" fill="#89DEFA" shape-rendering="crispEdges"/>
<rect x="52" y="52" width="34" height="56" rx="4" fill="#083A78"/>
<path d="M52 56C52 53.7909 53.7909 52 56 52H82C84.2091 52 86 53.7909 86 56V60H52V56Z" fill="url(#paint0_linear_78_1418)"/>
<path d="M86 104C86 106.209 84.2091 108 82 108L56 108C53.7909 108 52 106.209 52 104L52 100L86 100L86 104Z" fill="url(#paint1_linear_78_1418)"/>
<rect x="106" y="84" width="34" height="56" rx="4" fill="#083A78"/>
<path d="M106 88C106 85.7909 107.791 84 110 84H136C138.209 84 140 85.7909 140 88V92H106V88Z" fill="url(#paint2_linear_78_1418)"/>
<path d="M140 136C140 138.209 138.209 140 136 140L110 140C107.791 140 106 138.209 106 136L106 132L140 132L140 136Z" fill="url(#paint3_linear_78_1418)"/>
<circle cx="68.5" cy="78.5" r="5.5" fill="#FFEB3B"/>
<path d="M126 112L126.659 112.753C126.876 112.563 127 112.288 127 112C127 111.712 126.876 111.437 126.659 111.247L126 112ZM122.659 107.747C122.243 107.384 121.611 107.426 121.247 107.841C120.884 108.257 120.926 108.889 121.341 109.253L122.659 107.747ZM121.341 114.747C120.926 115.111 120.884 115.743 121.247 116.159C121.611 116.574 122.243 116.616 122.659 116.253L121.341 114.747ZM68 80H93V78H68V80ZM96 83V108H98V83H96ZM100.992 113C101.004 113 101.015 113 101.027 113C101.038 113 101.05 113 101.062 113C101.073 113 101.085 113 101.096 113C101.108 113 101.119 113 101.131 113C101.143 113 101.154 113 101.166 113C101.178 113 101.189 113 101.201 113C101.213 113 101.225 113 101.236 113C101.248 113 101.26 113 101.272 113C101.283 113 101.295 113 101.307 113C101.319 113 101.331 113 101.343 113C101.355 113 101.366 113 101.378 113C101.39 113 101.402 113 101.414 113C101.426 113 101.438 113 101.45 113C101.462 113 101.474 113 101.486 113C101.498 113 101.51 113 101.522 113C101.534 113 101.546 113 101.558 113C101.571 113 101.583 113 101.595 113C101.607 113 101.619 113 101.631 113C101.644 113 101.656 113 101.668 113C101.68 113 101.692 113 101.705 113C101.717 113 101.729 113 101.741 113C101.754 113 101.766 113 101.778 113C101.791 113 101.803 113 101.815 113C101.828 113 101.84 113 101.853 113C101.865 113 101.877 113 101.89 113C101.902 113 101.915 113 101.927 113C101.94 113 101.952 113 101.965 113C101.977 113 101.99 113 102.002 113C102.015 113 102.028 113 102.04 113C102.053 113 102.065 113 102.078 113C102.091 113 102.103 113 102.116 113C102.129 113 102.141 113 102.154 113C102.167 113 102.179 113 102.192 113C102.205 113 102.218 113 102.23 113C102.243 113 102.256 113 102.269 113C102.282 113 102.294 113 102.307 113C102.32 113 102.333 113 102.346 113C102.359 113 102.372 113 102.384 113C102.397 113 102.41 113 102.423 113C102.436 113 102.449 113 102.462 113C102.475 113 102.488 113 102.501 113C102.514 113 102.527 113 102.54 113C102.553 113 102.566 113 102.579 113C102.593 113 102.606 113 102.619 113C102.632 113 102.645 113 102.658 113C102.671 113 102.685 113 102.698 113C102.711 113 102.724 113 102.737 113C102.751 113 102.764 113 102.777 113C102.79 113 102.804 113 102.817 113C102.83 113 102.844 113 102.857 113C102.87 113 102.884 113 102.897 113C102.91 113 102.924 113 102.937 113C102.95 113 102.964 113 102.977 113C102.991 113 103.004 113 103.018 113C103.031 113 103.045 113 103.058 113C103.072 113 103.085 113 103.099 113C103.112 113 103.126 113 103.139 113C103.153 113 103.166 113 103.18 113C103.194 113 103.207 113 103.221 113C103.235 113 103.248 113 103.262 113C103.275 113 103.289 113 103.303 113C103.317 113 103.33 113 103.344 113C103.358 113 103.371 113 103.385 113C103.399 113 103.413 113 103.427 113C103.44 113 103.454 113 103.468 113C103.482 113 103.496 113 103.51 113C103.523 113 103.537 113 103.551 113C103.565 113 103.579 113 103.593 113C103.607 113 103.621 113 103.635 113C103.649 113 103.663 113 103.677 113C103.691 113 103.705 113 103.719 113C103.733 113 103.747 113 103.761 113C103.775 113 103.789 113 103.803 113C103.817 113 103.831 113 103.845 113C103.859 113 103.873 113 103.887 113C103.902 113 103.916 113 103.93 113C103.944 113 103.958 113 103.972 113C103.987 113 104.001 113 104.015 113C104.029 113 104.044 113 104.058 113C104.072 113 104.086 113 104.101 113C104.115 113 104.129 113 104.144 113C104.158 113 104.172 113 104.187 113C104.201 113 104.215 113 104.23 113C104.244 113 104.258 113 104.273 113C104.287 113 104.302 113 104.316 113C104.331 113 104.345 113 104.36 113C104.374 113 104.389 113 104.403 113C104.418 113 104.432 113 104.447 113C104.461 113 104.476 113 104.49 113C104.505 113 104.519 113 104.534 113C104.548 113 104.563 113 104.578 113C104.592 113 104.607 113 104.622 113C104.636 113 104.651 113 104.666 113C104.68 113 104.695 113 104.71 113C104.724 113 104.739 113 104.754 113C104.768 113 104.783 113 104.798 113C104.813 113 104.828 113 104.842 113C104.857 113 104.872 113 104.887 113C104.902 113 104.916 113 104.931 113C104.946 113 104.961 113 104.976 113C104.991 113 105.006 113 105.02 113C105.035 113 105.05 113 105.065 113C105.08 113 105.095 113 105.11 113C105.125 113 105.14 113 105.155 113C105.17 113 105.185 113 105.2 113C105.215 113 105.23 113 105.245 113C105.26 113 105.275 113 105.29 113C105.305 113 105.32 113 105.335 113C105.35 113 105.365 113 105.381 113C105.396 113 105.411 113 105.426 113C105.441 113 105.456 113 105.471 113C105.487 113 105.502 113 105.517 113C105.532 113 105.547 113 105.563 113C105.578 113 105.593 113 105.608 113C105.623 113 105.639 113 105.654 113C105.669 113 105.685 113 105.7 113C105.715 113 105.73 113 105.746 113C105.761 113 105.776 113 105.792 113C105.807 113 105.822 113 105.838 113C105.853 113 105.869 113 105.884 113C105.899 113 105.915 113 105.93 113C105.946 113 105.961 113 105.976 113C105.992 113 106.007 113 106.023 113C106.038 113 106.054 113 106.069 113C106.085 113 106.1 113 106.116 113C106.131 113 106.147 113 106.162 113C106.178 113 106.194 113 106.209 113C106.225 113 106.24 113 106.256 113C106.271 113 106.287 113 106.303 113C106.318 113 106.334 113 106.35 113C106.365 113 106.381 113 106.397 113C106.412 113 106.428 113 106.444 113C106.459 113 106.475 113 106.491 113C106.506 113 106.522 113 106.538 113C106.554 113 106.569 113 106.585 113C106.601 113 106.617 113 106.632 113C106.648 113 106.664 113 106.68 113C106.696 113 106.711 113 106.727 113C106.743 113 106.759 113 106.775 113C106.791 113 106.806 113 106.822 113C106.838 113 106.854 113 106.87 113C106.886 113 106.902 113 106.918 113C106.934 113 106.95 113 106.965 113C106.981 113 106.997 113 107.013 113C107.029 113 107.045 113 107.061 113C107.077 113 107.093 113 107.109 113C107.125 113 107.141 113 107.157 113C107.173 113 107.189 113 107.205 113C107.221 113 107.238 113 107.254 113C107.27 113 107.286 113 107.302 113C107.318 113 107.334 113 107.35 113C107.366 113 107.382 113 107.399 113C107.415 113 107.431 113 107.447 113C107.463 113 107.479 113 107.496 113C107.512 113 107.528 113 107.544 113C107.56 113 107.576 113 107.593 113C107.609 113 107.625 113 107.641 113C107.658 113 107.674 113 107.69 113C107.706 113 107.723 113 107.739 113C107.755 113 107.772 113 107.788 113C107.804 113 107.82 113 107.837 113C107.853 113 107.869 113 107.886 113C107.902 113 107.918 113 107.935 113C107.951 113 107.968 113 107.984 113C108 113 108.017 113 108.033 113C108.049 113 108.066 113 108.082 113C108.099 113 108.115 113 108.132 113C108.148 113 108.164 113 108.181 113C108.197 113 108.214 113 108.23 113C108.247 113 108.263 113 108.28 113C108.296 113 108.313 113 108.329 113C108.346 113 108.362 113 108.379 113C108.395 113 108.412 113 108.429 113C108.445 113 108.462 113 108.478 113C108.495 113 108.511 113 108.528 113C108.545 113 108.561 113 108.578 113C108.594 113 108.611 113 108.628 113C108.644 113 108.661 113 108.677 113C108.694 113 108.711 113 108.727 113C108.744 113 108.761 113 108.777 113C108.794 113 108.811 113 108.828 113C108.844 113 108.861 113 108.878 113C108.894 113 108.911 113 108.928 113C108.945 113 108.961 113 108.978 113C108.995 113 109.012 113 109.028 113C109.045 113 109.062 113 109.079 113C109.095 113 109.112 113 109.129 113C109.146 113 109.163 113 109.179 113C109.196 113 109.213 113 109.23 113C109.247 113 109.264 113 109.28 113C109.297 113 109.314 113 109.331 113C109.348 113 109.365 113 109.382 113C109.398 113 109.415 113 109.432 113C109.449 113 109.466 113 109.483 113C109.5 113 109.517 113 109.534 113C109.551 113 109.568 113 109.584 113C109.601 113 109.618 113 109.635 113C109.652 113 109.669 113 109.686 113C109.703 113 109.72 113 109.737 113C109.754 113 109.771 113 109.788 113C109.805 113 109.822 113 109.839 113C109.856 113 109.873 113 109.89 113C109.907 113 109.924 113 109.941 113C109.958 113 109.976 113 109.993 113C110.01 113 110.027 113 110.044 113C110.061 113 110.078 113 110.095 113C110.112 113 110.129 113 110.146 113C110.163 113 110.181 113 110.198 113C110.215 113 110.232 113 110.249 113C110.266 113 110.283 113 110.301 113C110.318 113 110.335 113 110.352 113C110.369 113 110.386 113 110.403 113C110.421 113 110.438 113 110.455 113C110.472 113 110.489 113 110.507 113C110.524 113 110.541 113 110.558 113C110.575 113 110.593 113 110.61 113C110.627 113 110.644 113 110.662 113C110.679 113 110.696 113 110.713 113C110.731 113 110.748 113 110.765 113C110.782 113 110.8 113 110.817 113C110.834 113 110.852 113 110.869 113C110.886 113 110.903 113 110.921 113C110.938 113 110.955 113 110.973 113C110.99 113 111.007 113 111.025 113C111.042 113 111.059 113 111.077 113C111.094 113 111.111 113 111.129 113C111.146 113 111.163 113 111.181 113C111.198 113 111.216 113 111.233 113C111.25 113 111.268 113 111.285 113C111.302 113 111.32 113 111.337 113C111.355 113 111.372 113 111.389 113C111.407 113 111.424 113 111.442 113C111.459 113 111.477 113 111.494 113C111.511 113 111.529 113 111.546 113C111.564 113 111.581 113 111.599 113C111.616 113 111.634 113 111.651 113C111.669 113 111.686 113 111.703 113C111.721 113 111.738 113 111.756 113C111.773 113 111.791 113 111.808 113C111.826 113 111.843 113 111.861 113C111.878 113 111.896 113 111.913 113C111.931 113 111.948 113 111.966 113C111.984 113 112.001 113 112.019 113C112.036 113 112.054 113 112.071 113C112.089 113 112.106 113 112.124 113C112.141 113 112.159 113 112.177 113C112.194 113 112.212 113 112.229 113C112.247 113 112.264 113 112.282 113C112.3 113 112.317 113 112.335 113C112.352 113 112.37 113 112.388 113C112.405 113 112.423 113 112.44 113C112.458 113 112.476 113 112.493 113C112.511 113 112.528 113 112.546 113C112.564 113 112.581 113 112.599 113C112.617 113 112.634 113 112.652 113C112.67 113 112.687 113 112.705 113C112.723 113 112.74 113 112.758 113C112.776 113 112.793 113 112.811 113C112.829 113 112.846 113 112.864 113C112.882 113 112.899 113 112.917 113C112.935 113 112.952 113 112.97 113C112.988 113 113.005 113 113.023 113C113.041 113 113.058 113 113.076 113C113.094 113 113.112 113 113.129 113C113.147 113 113.165 113 113.182 113C113.2 113 113.218 113 113.236 113C113.253 113 113.271 113 113.289 113C113.307 113 113.324 113 113.342 113C113.36 113 113.377 113 113.395 113C113.413 113 113.431 113 113.448 113C113.466 113 113.484 113 113.502 113C113.52 113 113.537 113 113.555 113C113.573 113 113.591 113 113.608 113C113.626 113 113.644 113 113.662 113C113.679 113 113.697 113 113.715 113C113.733 113 113.751 113 113.768 113C113.786 113 113.804 113 113.822 113C113.84 113 113.857 113 113.875 113C113.893 113 113.911 113 113.929 113C113.946 113 113.964 113 113.982 113C114 113 114.018 113 114.035 113C114.053 113 114.071 113 114.089 113C114.107 113 114.124 113 114.142 113C114.16 113 114.178 113 114.196 113C114.214 113 114.231 113 114.249 113C114.267 113 114.285 113 114.303 113C114.321 113 114.338 113 114.356 113C114.374 113 114.392 113 114.41 113C114.428 113 114.446 113 114.463 113C114.481 113 114.499 113 114.517 113C114.535 113 114.553 113 114.57 113C114.588 113 114.606 113 114.624 113C114.642 113 114.66 113 114.678 113C114.696 113 114.713 113 114.731 113C114.749 113 114.767 113 114.785 113C114.803 113 114.821 113 114.838 113C114.856 113 114.874 113 114.892 113C114.91 113 114.928 113 114.946 113C114.964 113 114.981 113 114.999 113C115.017 113 115.035 113 115.053 113C115.071 113 115.089 113 115.107 113C115.125 113 115.142 113 115.16 113C115.178 113 115.196 113 115.214 113C115.232 113 115.25 113 115.268 113C115.286 113 115.303 113 115.321 113C115.339 113 115.357 113 115.375 113C115.393 113 115.411 113 115.429 113C115.447 113 115.465 113 115.482 113C115.5 113 115.518 113 115.536 113C115.554 113 115.572 113 115.59 113C115.608 113 115.626 113 115.644 113C115.662 113 115.679 113 115.697 113C115.715 113 115.733 113 115.751 113C115.769 113 115.787 113 115.805 113C115.823 113 115.841 113 115.858 113C115.876 113 115.894 113 115.912 113C115.93 113 115.948 113 115.966 113C115.984 113 116.002 113 116.02 113C116.038 113 116.055 113 116.073 113C116.091 113 116.109 113 116.127 113C116.145 113 116.163 113 116.181 113C116.199 113 116.217 113 116.235 113C116.253 113 116.27 113 116.288 113C116.306 113 116.324 113 116.342 113C116.36 113 116.378 113 116.396 113C116.414 113 116.432 113 116.45 113C116.467 113 116.485 113 116.503 113C116.521 113 116.539 113 116.557 113C116.575 113 116.593 113 116.611 113C116.629 113 116.646 113 116.664 113C116.682 113 116.7 113 116.718 113C116.736 113 116.754 113 116.772 113C116.79 113 116.808 113 116.826 113C116.843 113 116.861 113 116.879 113C116.897 113 116.915 113 116.933 113C116.951 113 116.969 113 116.987 113C117.004 113 117.022 113 117.04 113C117.058 113 117.076 113 117.094 113C117.112 113 117.13 113 117.148 113C117.165 113 117.183 113 117.201 113C117.219 113 117.237 113 117.255 113C117.273 113 117.291 113 117.309 113C117.326 113 117.344 113 117.362 113C117.38 113 117.398 113 117.416 113C117.434 113 117.452 113 117.469 113C117.487 113 117.505 113 117.523 113C117.541 113 117.559 113 117.577 113C117.595 113 117.612 113 117.63 113C117.648 113 117.666 113 117.684 113C117.702 113 117.72 113 117.737 113C117.755 113 117.773 113 117.791 113C117.809 113 117.827 113 117.845 113C117.862 113 117.88 113 117.898 113C117.916 113 117.934 113 117.952 113C117.969 113 117.987 113 118.005 113C118.023 113 118.041 113 118.059 113C118.076 113 118.094 113 118.112 113C118.13 113 118.148 113 118.166 113C118.183 113 118.201 113 118.219 113C118.237 113 118.255 113 118.272 113C118.29 113 118.308 113 118.326 113C118.344 113 118.361 113 118.379 113C118.397 113 118.415 113 118.433 113C118.45 113 118.468 113 118.486 113C118.504 113 118.522 113 118.539 113C118.557 113 118.575 113 118.593 113C118.61 113 118.628 113 118.646 113C118.664 113 118.682 113 118.699 113C118.717 113 118.735 113 118.753 113C118.77 113 118.788 113 118.806 113C118.824 113 118.841 113 118.859 113C118.877 113 118.895 113 118.912 113C118.93 113 118.948 113 118.966 113C118.983 113 119.001 113 119.019 113C119.037 113 119.054 113 119.072 113C119.09 113 119.107 113 119.125 113C119.143 113 119.161 113 119.178 113C119.196 113 119.214 113 119.231 113C119.249 113 119.267 113 119.284 113C119.302 113 119.32 113 119.338 113C119.355 113 119.373 113 119.391 113C119.408 113 119.426 113 119.444 113C119.461 113 119.479 113 119.497 113C119.514 113 119.532 113 119.55 113C119.567 113 119.585 113 119.603 113C119.62 113 119.638 113 119.655 113C119.673 113 119.691 113 119.708 113C119.726 113 119.744 113 119.761 113C119.779 113 119.796 113 119.814 113C119.832 113 119.849 113 119.867 113C119.885 113 119.902 113 119.92 113C119.937 113 119.955 113 119.972 113C119.99 113 120.008 113 120.025 113C120.043 113 120.06 113 120.078 113C120.095 113 120.113 113 120.131 113C120.148 113 120.166 113 120.183 113C120.201 113 120.218 113 120.236 113C120.253 113 120.271 113 120.289 113C120.306 113 120.324 113 120.341 113C120.359 113 120.376 113 120.394 113C120.411 113 120.429 113 120.446 113C120.464 113 120.481 113 120.499 113C120.516 113 120.534 113 120.551 113C120.569 113 120.586 113 120.604 113C120.621 113 120.638 113 120.656 113C120.673 113 120.691 113 120.708 113C120.726 113 120.743 113 120.761 113C120.778 113 120.795 113 120.813 113C120.83 113 120.848 113 120.865 113C120.883 113 120.9 113 120.917 113C120.935 113 120.952 113 120.97 113C120.987 113 121.004 113 121.022 113C121.039 113 121.056 113 121.074 113C121.091 113 121.109 113 121.126 113C121.143 113 121.161 113 121.178 113C121.195 113 121.213 113 121.23 113C121.247 113 121.265 113 121.282 113C121.299 113 121.317 113 121.334 113C121.351 113 121.369 113 121.386 113C121.403 113 121.42 113 121.438 113C121.455 113 121.472 113 121.49 113C121.507 113 121.524 113 121.541 113C121.559 113 121.576 113 121.593 113C121.61 113 121.628 113 121.645 113C121.662 113 121.679 113 121.696 113C121.714 113 121.731 113 121.748 113C121.765 113 121.783 113 121.8 113C121.817 113 121.834 113 121.851 113C121.868 113 121.886 113 121.903 113C121.92 113 121.937 113 121.954 113C121.971 113 121.989 113 122.006 113C122.023 113 122.04 113 122.057 113C122.074 113 122.091 113 122.108 113C122.126 113 122.143 113 122.16 113C122.177 113 122.194 113 122.211 113C122.228 113 122.245 113 122.262 113C122.279 113 122.296 113 122.313 113C122.33 113 122.348 113 122.365 113C122.382 113 122.399 113 122.416 113C122.433 113 122.45 113 122.467 113C122.484 113 122.501 113 122.518 113C122.535 113 122.552 113 122.569 113C122.586 113 122.603 113 122.62 113C122.637 113 122.654 113 122.67 113C122.687 113 122.704 113 122.721 113C122.738 113 122.755 113 122.772 113C122.789 113 122.806 113 122.823 113C122.84 113 122.857 113 122.873 113C122.89 113 122.907 113 122.924 113C122.941 113 122.958 113 122.975 113C122.991 113 123.008 113 123.025 113C123.042 113 123.059 113 123.076 113C123.092 113 123.109 113 123.126 113C123.143 113 123.16 113 123.176 113C123.193 113 123.21 113 123.227 113C123.244 113 123.26 113 123.277 113C123.294 113 123.311 113 123.327 113C123.344 113 123.361 113 123.377 113C123.394 113 123.411 113 123.428 113C123.444 113 123.461 113 123.478 113C123.494 113 123.511 113 123.528 113C123.544 113 123.561 113 123.578 113C123.594 113 123.611 113 123.628 113C123.644 113 123.661 113 123.677 113C123.694 113 123.711 113 123.727 113C123.744 113 123.76 113 123.777 113C123.794 113 123.81 113 123.827 113C123.843 113 123.86 113 123.876 113C123.893 113 123.909 113 123.926 113C123.942 113 123.959 113 123.975 113C123.992 113 124.008 113 124.025 113C124.041 113 124.058 113 124.074 113C124.091 113 124.107 113 124.124 113C124.14 113 124.157 113 124.173 113C124.189 113 124.206 113 124.222 113C124.239 113 124.255 113 124.271 113C124.288 113 124.304 113 124.321 113C124.337 113 124.353 113 124.37 113C124.386 113 124.402 113 124.419 113C124.435 113 124.451 113 124.468 113C124.484 113 124.5 113 124.516 113C124.533 113 124.549 113 124.565 113C124.582 113 124.598 113 124.614 113C124.63 113 124.647 113 124.663 113C124.679 113 124.695 113 124.711 113C124.728 113 124.744 113 124.76 113C124.776 113 124.792 113 124.808 113C124.825 113 124.841 113 124.857 113C124.873 113 124.889 113 124.905 113C124.921 113 124.938 113 124.954 113C124.97 113 124.986 113 125.002 113C125.018 113 125.034 113 125.05 113C125.066 113 125.082 113 125.098 113C125.114 113 125.13 113 125.146 113C125.162 113 125.178 113 125.194 113C125.21 113 125.226 113 125.242 113C125.258 113 125.274 113 125.29 113C125.306 113 125.322 113 125.338 113C125.354 113 125.37 113 125.386 113C125.402 113 125.417 113 125.433 113C125.449 113 125.465 113 125.481 113C125.497 113 125.513 113 125.528 113C125.544 113 125.56 113 125.576 113C125.592 113 125.608 113 125.623 113C125.639 113 125.655 113 125.671 113C125.686 113 125.702 113 125.718 113C125.734 113 125.749 113 125.765 113C125.781 113 125.797 113 125.812 113C125.828 113 125.844 113 125.859 113C125.875 113 125.891 113 125.906 113C125.922 113 125.938 113 125.953 113C125.969 113 125.984 113 126 113V111C125.984 111 125.969 111 125.953 111C125.938 111 125.922 111 125.906 111C125.891 111 125.875 111 125.859 111C125.844 111 125.828 111 125.812 111C125.797 111 125.781 111 125.765 111C125.749 111 125.734 111 125.718 111C125.702 111 125.686 111 125.671 111C125.655 111 125.639 111 125.623 111C125.608 111 125.592 111 125.576 111C125.56 111 125.544 111 125.528 111C125.513 111 125.497 111 125.481 111C125.465 111 125.449 111 125.433 111C125.417 111 125.402 111 125.386 111C125.37 111 125.354 111 125.338 111C125.322 111 125.306 111 125.29 111C125.274 111 125.258 111 125.242 111C125.226 111 125.21 111 125.194 111C125.178 111 125.162 111 125.146 111C125.13 111 125.114 111 125.098 111C125.082 111 125.066 111 125.05 111C125.034 111 125.018 111 125.002 111C124.986 111 124.97 111 124.954 111C124.938 111 124.921 111 124.905 111C124.889 111 124.873 111 124.857 111C124.841 111 124.825 111 124.808 111C124.792 111 124.776 111 124.76 111C124.744 111 124.728 111 124.711 111C124.695 111 124.679 111 124.663 111C124.647 111 124.63 111 124.614 111C124.598 111 124.582 111 124.565 111C124.549 111 124.533 111 124.516 111C124.5 111 124.484 111 124.468 111C124.451 111 124.435 111 124.419 111C124.402 111 124.386 111 124.37 111C124.353 111 124.337 111 124.321 111C124.304 111 124.288 111 124.271 111C124.255 111 124.239 111 124.222 111C124.206 111 124.189 111 124.173 111C124.157 111 124.14 111 124.124 111C124.107 111 124.091 111 124.074 111C124.058 111 124.041 111 124.025 111C124.008 111 123.992 111 123.975 111C123.959 111 123.942 111 123.926 111C123.909 111 123.893 111 123.876 111C123.86 111 123.843 111 123.827 111C123.81 111 123.794 111 123.777 111C123.76 111 123.744 111 123.727 111C123.711 111 123.694 111 123.677 111C123.661 111 123.644 111 123.628 111C123.611 111 123.594 111 123.578 111C123.561 111 123.544 111 123.528 111C123.511 111 123.494 111 123.478 111C123.461 111 123.444 111 123.428 111C123.411 111 123.394 111 123.377 111C123.361 111 123.344 111 123.327 111C123.311 111 123.294 111 123.277 111C123.26 111 123.244 111 123.227 111C123.21 111 123.193 111 123.176 111C123.16 111 123.143 111 123.126 111C123.109 111 123.092 111 123.076 111C123.059 111 123.042 111 123.025 111C123.008 111 122.991 111 122.975 111C122.958 111 122.941 111 122.924 111C122.907 111 122.89 111 122.873 111C122.857 111 122.84 111 122.823 111C122.806 111 122.789 111 122.772 111C122.755 111 122.738 111 122.721 111C122.704 111 122.687 111 122.67 111C122.654 111 122.637 111 122.62 111C122.603 111 122.586 111 122.569 111C122.552 111 122.535 111 122.518 111C122.501 111 122.484 111 122.467 111C122.45 111 122.433 111 122.416 111C122.399 111 122.382 111 122.365 111C122.348 111 122.33 111 122.313 111C122.296 111 122.279 111 122.262 111C122.245 111 122.228 111 122.211 111C122.194 111 122.177 111 122.16 111C122.143 111 122.126 111 122.108 111C122.091 111 122.074 111 122.057 111C122.04 111 122.023 111 122.006 111C121.989 111 121.971 111 121.954 111C121.937 111 121.92 111 121.903 111C121.886 111 121.868 111 121.851 111C121.834 111 121.817 111 121.8 111C121.783 111 121.765 111 121.748 111C121.731 111 121.714 111 121.696 111C121.679 111 121.662 111 121.645 111C121.628 111 121.61 111 121.593 111C121.576 111 121.559 111 121.541 111C121.524 111 121.507 111 121.49 111C121.472 111 121.455 111 121.438 111C121.42 111 121.403 111 121.386 111C121.369 111 121.351 111 121.334 111C121.317 111 121.299 111 121.282 111C121.265 111 121.247 111 121.23 111C121.213 111 121.195 111 121.178 111C121.161 111 121.143 111 121.126 111C121.109 111 121.091 111 121.074 111C121.056 111 121.039 111 121.022 111C121.004 111 120.987 111 120.97 111C120.952 111 120.935 111 120.917 111C120.9 111 120.883 111 120.865 111C120.848 111 120.83 111 120.813 111C120.795 111 120.778 111 120.761 111C120.743 111 120.726 111 120.708 111C120.691 111 120.673 111 120.656 111C120.638 111 120.621 111 120.604 111C120.586 111 120.569 111 120.551 111C120.534 111 120.516 111 120.499 111C120.481 111 120.464 111 120.446 111C120.429 111 120.411 111 120.394 111C120.376 111 120.359 111 120.341 111C120.324 111 120.306 111 120.289 111C120.271 111 120.253 111 120.236 111C120.218 111 120.201 111 120.183 111C120.166 111 120.148 111 120.131 111C120.113 111 120.095 111 120.078 111C120.06 111 120.043 111 120.025 111C120.008 111 119.99 111 119.972 111C119.955 111 119.937 111 119.92 111C119.902 111 119.885 111 119.867 111C119.849 111 119.832 111 119.814 111C119.796 111 119.779 111 119.761 111C119.744 111 119.726 111 119.708 111C119.691 111 119.673 111 119.655 111C119.638 111 119.62 111 119.603 111C119.585 111 119.567 111 119.55 111C119.532 111 119.514 111 119.497 111C119.479 111 119.461 111 119.444 111C119.426 111 119.408 111 119.391 111C119.373 111 119.355 111 119.338 111C119.32 111 119.302 111 119.284 111C119.267 111 119.249 111 119.231 111C119.214 111 119.196 111 119.178 111C119.161 111 119.143 111 119.125 111C119.107 111 119.09 111 119.072 111C119.054 111 119.037 111 119.019 111C119.001 111 118.983 111 118.966 111C118.948 111 118.93 111 118.912 111C118.895 111 118.877 111 118.859 111C118.841 111 118.824 111 118.806 111C118.788 111 118.77 111 118.753 111C118.735 111 118.717 111 118.699 111C118.682 111 118.664 111 118.646 111C118.628 111 118.61 111 118.593 111C118.575 111 118.557 111 118.539 111C118.522 111 118.504 111 118.486 111C118.468 111 118.45 111 118.433 111C118.415 111 118.397 111 118.379 111C118.361 111 118.344 111 118.326 111C118.308 111 118.29 111 118.272 111C118.255 111 118.237 111 118.219 111C118.201 111 118.183 111 118.166 111C118.148 111 118.13 111 118.112 111C118.094 111 118.076 111 118.059 111C118.041 111 118.023 111 118.005 111C117.987 111 117.969 111 117.952 111C117.934 111 117.916 111 117.898 111C117.88 111 117.862 111 117.845 111C117.827 111 117.809 111 117.791 111C117.773 111 117.755 111 117.737 111C117.72 111 117.702 111 117.684 111C117.666 111 117.648 111 117.63 111C117.612 111 117.595 111 117.577 111C117.559 111 117.541 111 117.523 111C117.505 111 117.487 111 117.469 111C117.452 111 117.434 111 117.416 111C117.398 111 117.38 111 117.362 111C117.344 111 117.326 111 117.309 111C117.291 111 117.273 111 117.255 111C117.237 111 117.219 111 117.201 111C117.183 111 117.165 111 117.148 111C117.13 111 117.112 111 117.094 111C117.076 111 117.058 111 117.04 111C117.022 111 117.004 111 116.987 111C116.969 111 116.951 111 116.933 111C116.915 111 116.897 111 116.879 111C116.861 111 116.843 111 116.826 111C116.808 111 116.79 111 116.772 111C116.754 111 116.736 111 116.718 111C116.7 111 116.682 111 116.664 111C116.646 111 116.629 111 116.611 111C116.593 111 116.575 111 116.557 111C116.539 111 116.521 111 116.503 111C116.485 111 116.467 111 116.45 111C116.432 111 116.414 111 116.396 111C116.378 111 116.36 111 116.342 111C116.324 111 116.306 111 116.288 111C116.27 111 116.253 111 116.235 111C116.217 111 116.199 111 116.181 111C116.163 111 116.145 111 116.127 111C116.109 111 116.091 111 116.073 111C116.055 111 116.038 111 116.02 111C116.002 111 115.984 111 115.966 111C115.948 111 115.93 111 115.912 111C115.894 111 115.876 111 115.858 111C115.841 111 115.823 111 115.805 111C115.787 111 115.769 111 115.751 111C115.733 111 115.715 111 115.697 111C115.679 111 115.662 111 115.644 111C115.626 111 115.608 111 115.59 111C115.572 111 115.554 111 115.536 111C115.518 111 115.5 111 115.482 111C115.465 111 115.447 111 115.429 111C115.411 111 115.393 111 115.375 111C115.357 111 115.339 111 115.321 111C115.303 111 115.286 111 115.268 111C115.25 111 115.232 111 115.214 111C115.196 111 115.178 111 115.16 111C115.142 111 115.125 111 115.107 111C115.089 111 115.071 111 115.053 111C115.035 111 115.017 111 114.999 111C114.981 111 114.964 111 114.946 111C114.928 111 114.91 111 114.892 111C114.874 111 114.856 111 114.838 111C114.821 111 114.803 111 114.785 111C114.767 111 114.749 111 114.731 111C114.713 111 114.696 111 114.678 111C114.66 111 114.642 111 114.624 111C114.606 111 114.588 111 114.57 111C114.553 111 114.535 111 114.517 111C114.499 111 114.481 111 114.463 111C114.446 111 114.428 111 114.41 111C114.392 111 114.374 111 114.356 111C114.338 111 114.321 111 114.303 111C114.285 111 114.267 111 114.249 111C114.231 111 114.214 111 114.196 111C114.178 111 114.16 111 114.142 111C114.124 111 114.107 111 114.089 111C114.071 111 114.053 111 114.035 111C114.018 111 114 111 113.982 111C113.964 111 113.946 111 113.929 111C113.911 111 113.893 111 113.875 111C113.857 111 113.84 111 113.822 111C113.804 111 113.786 111 113.768 111C113.751 111 113.733 111 113.715 111C113.697 111 113.679 111 113.662 111C113.644 111 113.626 111 113.608 111C113.591 111 113.573 111 113.555 111C113.537 111 113.52 111 113.502 111C113.484 111 113.466 111 113.448 111C113.431 111 113.413 111 113.395 111C113.377 111 113.36 111 113.342 111C113.324 111 113.307 111 113.289 111C113.271 111 113.253 111 113.236 111C113.218 111 113.2 111 113.182 111C113.165 111 113.147 111 113.129 111C113.112 111 113.094 111 113.076 111C113.058 111 113.041 111 113.023 111C113.005 111 112.988 111 112.97 111C112.952 111 112.935 111 112.917 111C112.899 111 112.882 111 112.864 111C112.846 111 112.829 111 112.811 111C112.793 111 112.776 111 112.758 111C112.74 111 112.723 111 112.705 111C112.687 111 112.67 111 112.652 111C112.634 111 112.617 111 112.599 111C112.581 111 112.564 111 112.546 111C112.528 111 112.511 111 112.493 111C112.476 111 112.458 111 112.44 111C112.423 111 112.405 111 112.388 111C112.37 111 112.352 111 112.335 111C112.317 111 112.3 111 112.282 111C112.264 111 112.247 111 112.229 111C112.212 111 112.194 111 112.177 111C112.159 111 112.141 111 112.124 111C112.106 111 112.089 111 112.071 111C112.054 111 112.036 111 112.019 111C112.001 111 111.984 111 111.966 111C111.948 111 111.931 111 111.913 111C111.896 111 111.878 111 111.861 111C111.843 111 111.826 111 111.808 111C111.791 111 111.773 111 111.756 111C111.738 111 111.721 111 111.703 111C111.686 111 111.669 111 111.651 111C111.634 111 111.616 111 111.599 111C111.581 111 111.564 111 111.546 111C111.529 111 111.511 111 111.494 111C111.477 111 111.459 111 111.442 111C111.424 111 111.407 111 111.389 111C111.372 111 111.355 111 111.337 111C111.32 111 111.302 111 111.285 111C111.268 111 111.25 111 111.233 111C111.216 111 111.198 111 111.181 111C111.163 111 111.146 111 111.129 111C111.111 111 111.094 111 111.077 111C111.059 111 111.042 111 111.025 111C111.007 111 110.99 111 110.973 111C110.955 111 110.938 111 110.921 111C110.903 111 110.886 111 110.869 111C110.852 111 110.834 111 110.817 111C110.8 111 110.782 111 110.765 111C110.748 111 110.731 111 110.713 111C110.696 111 110.679 111 110.662 111C110.644 111 110.627 111 110.61 111C110.593 111 110.575 111 110.558 111C110.541 111 110.524 111 110.507 111C110.489 111 110.472 111 110.455 111C110.438 111 110.421 111 110.403 111C110.386 111 110.369 111 110.352 111C110.335 111 110.318 111 110.301 111C110.283 111 110.266 111 110.249 111C110.232 111 110.215 111 110.198 111C110.181 111 110.163 111 110.146 111C110.129 111 110.112 111 110.095 111C110.078 111 110.061 111 110.044 111C110.027 111 110.01 111 109.993 111C109.976 111 109.958 111 109.941 111C109.924 111 109.907 111 109.89 111C109.873 111 109.856 111 109.839 111C109.822 111 109.805 111 109.788 111C109.771 111 109.754 111 109.737 111C109.72 111 109.703 111 109.686 111C109.669 111 109.652 111 109.635 111C109.618 111 109.601 111 109.584 111C109.568 111 109.551 111 109.534 111C109.517 111 109.5 111 109.483 111C109.466 111 109.449 111 109.432 111C109.415 111 109.398 111 109.382 111C109.365 111 109.348 111 109.331 111C109.314 111 109.297 111 109.28 111C109.264 111 109.247 111 109.23 111C109.213 111 109.196 111 109.179 111C109.163 111 109.146 111 109.129 111C109.112 111 109.095 111 109.079 111C109.062 111 109.045 111 109.028 111C109.012 111 108.995 111 108.978 111C108.961 111 108.945 111 108.928 111C108.911 111 108.894 111 108.878 111C108.861 111 108.844 111 108.828 111C108.811 111 108.794 111 108.777 111C108.761 111 108.744 111 108.727 111C108.711 111 108.694 111 108.677 111C108.661 111 108.644 111 108.628 111C108.611 111 108.594 111 108.578 111C108.561 111 108.545 111 108.528 111C108.511 111 108.495 111 108.478 111C108.462 111 108.445 111 108.429 111C108.412 111 108.395 111 108.379 111C108.362 111 108.346 111 108.329 111C108.313 111 108.296 111 108.28 111C108.263 111 108.247 111 108.23 111C108.214 111 108.197 111 108.181 111C108.164 111 108.148 111 108.132 111C108.115 111 108.099 111 108.082 111C108.066 111 108.049 111 108.033 111C108.017 111 108 111 107.984 111C107.968 111 107.951 111 107.935 111C107.918 111 107.902 111 107.886 111C107.869 111 107.853 111 107.837 111C107.82 111 107.804 111 107.788 111C107.772 111 107.755 111 107.739 111C107.723 111 107.706 111 107.69 111C107.674 111 107.658 111 107.641 111C107.625 111 107.609 111 107.593 111C107.576 111 107.56 111 107.544 111C107.528 111 107.512 111 107.496 111C107.479 111 107.463 111 107.447 111C107.431 111 107.415 111 107.399 111C107.382 111 107.366 111 107.35 111C107.334 111 107.318 111 107.302 111C107.286 111 107.27 111 107.254 111C107.238 111 107.221 111 107.205 111C107.189 111 107.173 111 107.157 111C107.141 111 107.125 111 107.109 111C107.093 111 107.077 111 107.061 111C107.045 111 107.029 111 107.013 111C106.997 111 106.981 111 106.965 111C106.95 111 106.934 111 106.918 111C106.902 111 106.886 111 106.87 111C106.854 111 106.838 111 106.822 111C106.806 111 106.791 111 106.775 111C106.759 111 106.743 111 106.727 111C106.711 111 106.696 111 106.68 111C106.664 111 106.648 111 106.632 111C106.617 111 106.601 111 106.585 111C106.569 111 106.554 111 106.538 111C106.522 111 106.506 111 106.491 111C106.475 111 106.459 111 106.444 111C106.428 111 106.412 111 106.397 111C106.381 111 106.365 111 106.35 111C106.334 111 106.318 111 106.303 111C106.287 111 106.271 111 106.256 111C106.24 111 106.225 111 106.209 111C106.194 111 106.178 111 106.162 111C106.147 111 106.131 111 106.116 111C106.1 111 106.085 111 106.069 111C106.054 111 106.038 111 106.023 111C106.007 111 105.992 111 105.976 111C105.961 111 105.946 111 105.93 111C105.915 111 105.899 111 105.884 111C105.869 111 105.853 111 105.838 111C105.822 111 105.807 111 105.792 111C105.776 111 105.761 111 105.746 111C105.73 111 105.715 111 105.7 111C105.685 111 105.669 111 105.654 111C105.639 111 105.623 111 105.608 111C105.593 111 105.578 111 105.563 111C105.547 111 105.532 111 105.517 111C105.502 111 105.487 111 105.471 111C105.456 111 105.441 111 105.426 111C105.411 111 105.396 111 105.381 111C105.365 111 105.35 111 105.335 111C105.32 111 105.305 111 105.29 111C105.275 111 105.26 111 105.245 111C105.23 111 105.215 111 105.2 111C105.185 111 105.17 111 105.155 111C105.14 111 105.125 111 105.11 111C105.095 111 105.08 111 105.065 111C105.05 111 105.035 111 105.02 111C105.006 111 104.991 111 104.976 111C104.961 111 104.946 111 104.931 111C104.916 111 104.902 111 104.887 111C104.872 111 104.857 111 104.842 111C104.828 111 104.813 111 104.798 111C104.783 111 104.768 111 104.754 111C104.739 111 104.724 111 104.71 111C104.695 111 104.68 111 104.666 111C104.651 111 104.636 111 104.622 111C104.607 111 104.592 111 104.578 111C104.563 111 104.548 111 104.534 111C104.519 111 104.505 111 104.49 111C104.476 111 104.461 111 104.447 111C104.432 111 104.418 111 104.403 111C104.389 111 104.374 111 104.36 111C104.345 111 104.331 111 104.316 111C104.302 111 104.287 111 104.273 111C104.258 111 104.244 111 104.23 111C104.215 111 104.201 111 104.187 111C104.172 111 104.158 111 104.144 111C104.129 111 104.115 111 104.101 111C104.086 111 104.072 111 104.058 111C104.044 111 104.029 111 104.015 111C104.001 111 103.987 111 103.972 111C103.958 111 103.944 111 103.93 111C103.916 111 103.902 111 103.887 111C103.873 111 103.859 111 103.845 111C103.831 111 103.817 111 103.803 111C103.789 111 103.775 111 103.761 111C103.747 111 103.733 111 103.719 111C103.705 111 103.691 111 103.677 111C103.663 111 103.649 111 103.635 111C103.621 111 103.607 111 103.593 111C103.579 111 103.565 111 103.551 111C103.537 111 103.523 111 103.51 111C103.496 111 103.482 111 103.468 111C103.454 111 103.44 111 103.427 111C103.413 111 103.399 111 103.385 111C103.371 111 103.358 111 103.344 111C103.33 111 103.317 111 103.303 111C103.289 111 103.275 111 103.262 111C103.248 111 103.235 111 103.221 111C103.207 111 103.194 111 103.18 111C103.166 111 103.153 111 103.139 111C103.126 111 103.112 111 103.099 111C103.085 111 103.072 111 103.058 111C103.045 111 103.031 111 103.018 111C103.004 111 102.991 111 102.977 111C102.964 111 102.95 111 102.937 111C102.924 111 102.91 111 102.897 111C102.884 111 102.87 111 102.857 111C102.844 111 102.83 111 102.817 111C102.804 111 102.79 111 102.777 111C102.764 111 102.751 111 102.737 111C102.724 111 102.711 111 102.698 111C102.685 111 102.671 111 102.658 111C102.645 111 102.632 111 102.619 111C102.606 111 102.593 111 102.579 111C102.566 111 102.553 111 102.54 111C102.527 111 102.514 111 102.501 111C102.488 111 102.475 111 102.462 111C102.449 111 102.436 111 102.423 111C102.41 111 102.397 111 102.384 111C102.372 111 102.359 111 102.346 111C102.333 111 102.32 111 102.307 111C102.294 111 102.282 111 102.269 111C102.256 111 102.243 111 102.23 111C102.218 111 102.205 111 102.192 111C102.179 111 102.167 111 102.154 111C102.141 111 102.129 111 102.116 111C102.103 111 102.091 111 102.078 111C102.065 111 102.053 111 102.04 111C102.028 111 102.015 111 102.002 111C101.99 111 101.977 111 101.965 111C101.952 111 101.94 111 101.927 111C101.915 111 101.902 111 101.89 111C101.877 111 101.865 111 101.853 111C101.84 111 101.828 111 101.815 111C101.803 111 101.791 111 101.778 111C101.766 111 101.754 111 101.741 111C101.729 111 101.717 111 101.705 111C101.692 111 101.68 111 101.668 111C101.656 111 101.644 111 101.631 111C101.619 111 101.607 111 101.595 111C101.583 111 101.571 111 101.558 111C101.546 111 101.534 111 101.522 111C101.51 111 101.498 111 101.486 111C101.474 111 101.462 111 101.45 111C101.438 111 101.426 111 101.414 111C101.402 111 101.39 111 101.378 111C101.366 111 101.355 111 101.343 111C101.331 111 101.319 111 101.307 111C101.295 111 101.283 111 101.272 111C101.26 111 101.248 111 101.236 111C101.225 111 101.213 111 101.201 111C101.189 111 101.178 111 101.166 111C101.154 111 101.143 111 101.131 111C101.119 111 101.108 111 101.096 111C101.085 111 101.073 111 101.062 111C101.05 111 101.038 111 101.027 111C101.015 111 101.004 111 100.992 111V113ZM126.659 111.247C125.877 110.564 124.877 109.689 124.073 108.985C123.67 108.633 123.317 108.323 123.064 108.102C122.937 107.991 122.836 107.903 122.766 107.842C122.731 107.811 122.704 107.788 122.686 107.772C122.677 107.764 122.67 107.758 122.666 107.754C122.663 107.752 122.661 107.75 122.66 107.749C122.66 107.748 122.659 107.748 122.659 107.748C122.659 107.748 122.659 107.748 122.659 107.748C122.659 107.747 122.659 107.747 122.659 107.747C122.659 107.747 122.659 107.747 122 108.5C121.341 109.253 121.342 109.253 121.342 109.253C121.342 109.253 121.342 109.253 121.342 109.253C121.342 109.253 121.342 109.253 121.342 109.253C121.342 109.253 121.343 109.254 121.343 109.254C121.344 109.255 121.346 109.257 121.349 109.259C121.353 109.263 121.36 109.269 121.369 109.277C121.387 109.293 121.414 109.316 121.449 109.347C121.519 109.408 121.62 109.497 121.747 109.607C122 109.829 122.353 110.138 122.756 110.49C123.56 111.194 124.56 112.069 125.341 112.753L126.659 111.247ZM125.341 111.247C124.56 111.931 123.56 112.806 122.756 113.51C122.353 113.862 122 114.171 121.747 114.393C121.62 114.503 121.519 114.592 121.449 114.653C121.414 114.684 121.388 114.707 121.369 114.723C121.36 114.731 121.353 114.737 121.349 114.741C121.346 114.743 121.344 114.745 121.343 114.746C121.343 114.746 121.342 114.747 121.342 114.747C121.342 114.747 121.342 114.747 121.342 114.747C121.342 114.747 121.342 114.747 121.342 114.747C121.342 114.747 121.341 114.747 122 115.5C122.659 116.253 122.659 116.253 122.659 116.253C122.659 116.253 122.659 116.253 122.659 116.252C122.659 116.252 122.659 116.252 122.659 116.252C122.659 116.252 122.66 116.252 122.66 116.251C122.661 116.25 122.663 116.248 122.666 116.246C122.67 116.242 122.677 116.236 122.686 116.228C122.704 116.212 122.731 116.189 122.766 116.158C122.836 116.097 122.937 116.009 123.064 115.898C123.317 115.677 123.67 115.367 124.073 115.015C124.877 114.311 125.877 113.436 126.659 112.753L125.341 111.247ZM96 108C96 110.759 98.2285 113 100.992 113V111C99.338 111 98 109.659 98 108H96ZM93 80C94.6569 80 96 81.3431 96 83H98C98 80.2386 95.7614 78 93 78V80Z" fill="#FFEB3B"/>
</g>
<defs>
<filter id="filter0_d_78_1418" x="0" y="0" width="192" height="192" filterUnits="userSpaceOnUse" color-interpolation-filters="sRGB">
<feFlood flood-opacity="0" result="BackgroundImageFix"/>
<feColorMatrix in="SourceAlpha" type="matrix" values="0 0 0 0 0 0 0 0 0 0 0 0 0 0 0 0 0 0 127 0" result="hardAlpha"/>
<feOffset/>
<feGaussianBlur stdDeviation="16"/>
<feComposite in2="hardAlpha" operator="out"/>
<feColorMatrix type="matrix" values="0 0 0 0 0.109804 0 0 0 0 0.709804 0 0 0 0 0.878431 0 0 0 1 0"/>
<feBlend mode="normal" in2="BackgroundImageFix" result="effect1_dropShadow_78_1418"/>
<feBlend mode="normal" in="SourceGraphic" in2="effect1_dropShadow_78_1418" result="shape"/>
</filter>
<linearGradient id="paint0_linear_78_1418" x1="69" y1="52" x2="69" y2="60" gradientUnits="userSpaceOnUse">
<stop stop-color="#104681"/>
<stop offset="1" stop-color="#1C669B"/>
</linearGradient>
<linearGradient id="paint1_linear_78_1418" x1="69" y1="108" x2="69" y2="100" gradientUnits="userSpaceOnUse">
<stop stop-color="#104681"/>
<stop offset="1" stop-color="#1C669B"/>
</linearGradient>
<linearGradient id="paint2_linear_78_1418" x1="123" y1="84" x2="123" y2="92" gradientUnits="userSpaceOnUse">
<stop stop-color="#104681"/>
<stop offset="1" stop-color="#1C669B"/>
</linearGradient>
<linearGradient id="paint3_linear_78_1418" x1="123" y1="140" x2="123" y2="132" gradientUnits="userSpaceOnUse">
<stop stop-color="#104681"/>
<stop offset="1" stop-color="#1C669B"/>
</linearGradient>
</defs>
</svg>
