<svg width="192" height="192" viewBox="0 0 192 192" fill="none" xmlns="http://www.w3.org/2000/svg">
<rect x="16" y="16" width="160" height="160" rx="80" fill="white" fill-opacity="0.1"/>
<g filter="url(#filter0_d_78_1416)">
<rect x="32" y="32" width="128" height="128" rx="64" fill="#89DEFA" shape-rendering="crispEdges"/>
<rect x="60" y="60" width="72" height="72" rx="4" fill="#083A78"/>
<path d="M60 64C60 61.7909 61.7909 60 64 60H128C130.209 60 132 61.7909 132 64V68H60V64Z" fill="url(#paint0_linear_78_1416)"/>
<rect x="69" y="77" width="9" height="46" rx="1" stroke="#FFEB3B" stroke-width="2"/>
<rect x="88" y="77" width="35" height="11" rx="1" stroke="#FFEB3B" stroke-width="2"/>
<rect x="88" y="98" width="35" height="25" rx="1" stroke="#FFEB3B" stroke-width="2"/>
<path d="M88 98.5L123 122.5" stroke="#FFEB3B" stroke-width="2"/>
<path d="M122.85 98.2846L88.1496 122.715" stroke="#FFEB3B" stroke-width="2"/>
</g>
<defs>
<filter id="filter0_d_78_1416" x="0" y="0" width="192" height="192" filterUnits="userSpaceOnUse" color-interpolation-filters="sRGB">
<feFlood flood-opacity="0" result="BackgroundImageFix"/>
<feColorMatrix in="SourceAlpha" type="matrix" values="0 0 0 0 0 0 0 0 0 0 0 0 0 0 0 0 0 0 127 0" result="hardAlpha"/>
<feOffset/>
<feGaussianBlur stdDeviation="16"/>
<feComposite in2="hardAlpha" operator="out"/>
<feColorMatrix type="matrix" values="0 0 0 0 0.109804 0 0 0 0 0.709804 0 0 0 0 0.878431 0 0 0 1 0"/>
<feBlend mode="normal" in2="BackgroundImageFix" result="effect1_dropShadow_78_1416"/>
<feBlend mode="normal" in="SourceGraphic" in2="effect1_dropShadow_78_1416" result="shape"/>
</filter>
<linearGradient id="paint0_linear_78_1416" x1="96" y1="60" x2="96" y2="68" gradientUnits="userSpaceOnUse">
<stop stop-color="#104681"/>
<stop offset="1" stop-color="#1C669B"/>
</linearGradient>
</defs>
</svg>
