<svg width="48" height="48" viewBox="0 0 48 48" fill="none" xmlns="http://www.w3.org/2000/svg">
<rect width="48" height="48" rx="24" fill="#89DEFA"/>
<circle cx="24" cy="24" r="15" stroke="white" stroke-width="2"/>
<circle cx="24" cy="24" r="16" fill="#083A78"/>
<path fill-rule="evenodd" clip-rule="evenodd" d="M28.5509 17.615C28.5509 16.7351 29.1606 16.2162 29.9511 16.2162C30.7867 16.2162 31.3513 16.7802 31.3513 17.615C31.3513 18.5175 30.7642 19.0139 29.9285 19.0139C29.1155 19.0139 28.5509 18.5175 28.5509 17.615ZM17.4915 31.5366L18.5756 27.4367H18.5757H22.9571L24.0863 31.559C24.1088 31.6493 24.1767 31.6756 24.2895 31.6756H26.5479C26.6609 31.6756 26.6834 31.6078 26.6609 31.4952L22.3021 16.7355C22.2795 16.6227 22.2342 16.6001 22.144 16.6001H19.2759C19.208 16.6001 19.1627 16.6452 19.1627 16.7355C19.1402 17.4124 19.095 17.626 19.0272 17.8741L15.1427 31.4726C15.1203 31.6305 15.1427 31.6756 15.278 31.6756H17.2884C17.4238 31.6756 17.4691 31.6493 17.4915 31.5366ZM21.9604 23.5557L21.9605 23.5559C22.1301 24.2016 22.2826 24.782 22.3925 25.2147H19.1629L19.1997 25.0767C19.7583 22.9778 20.4564 20.3553 20.7438 18.7879H20.7664C21.0081 19.9312 21.5375 21.9461 21.9604 23.5556V23.5557ZM28.8622 20.5656C28.7493 20.5656 28.7042 20.6107 28.7042 20.7235V31.4952C28.7042 31.6078 28.7493 31.6756 28.8848 31.6756H31.0098C31.1453 31.6756 31.1679 31.6305 31.1679 31.5178V20.7235C31.1679 20.6107 31.1228 20.5656 31.0098 20.5656H28.8622Z" fill="white"/>
</svg>
