<svg width="48" height="48" viewBox="0 0 48 48" fill="none" xmlns="http://www.w3.org/2000/svg">
<rect width="48" height="48" rx="24" fill="#89DEFA"/>
<circle cx="24" cy="24" r="16" fill="#083A78"/>
<path d="M21.027 33.2973C22.7287 33.2973 24.1081 31.9662 24.1081 30.3243V27.3513H21.027C19.3254 27.3513 17.946 28.6824 17.946 30.3243C17.946 31.9662 19.3254 33.2973 21.027 33.2973Z" fill="white"/>
<path d="M17.946 24.2703C17.946 22.5686 19.3254 21.1892 21.027 21.1892H24.1081V27.3514H21.027C19.3254 27.3514 17.946 25.9719 17.946 24.2703Z" fill="white"/>
<path d="M17.946 18.2163C17.946 16.5743 19.3254 15.2433 21.027 15.2433H24.1081V21.1892H21.027C19.3254 21.1892 17.946 19.8581 17.946 18.2163Z" fill="white"/>
<path d="M24.1081 15.2433H27.0811C28.723 15.2433 30.054 16.5743 30.054 18.2163C30.054 19.8581 28.723 21.1892 27.0811 21.1892H24.1081V15.2433Z" fill="white"/>
<path d="M30.054 24.2703C30.054 25.9719 28.723 27.3514 27.0811 27.3514C25.4391 27.3514 24.1081 25.9719 24.1081 24.2703C24.1081 22.5686 25.4391 21.1892 27.0811 21.1892C28.723 21.1892 30.054 22.5686 30.054 24.2703Z" fill="white"/>
</svg>
