<svg width="48" height="48" viewBox="0 0 48 48" fill="none" xmlns="http://www.w3.org/2000/svg">
<rect width="48" height="48" rx="24" fill="#89DEFA"/>
<circle cx="24" cy="24" r="15" stroke="white" stroke-width="2"/>
<circle cx="24" cy="24" r="16" fill="#083A78"/>
<path fill-rule="evenodd" clip-rule="evenodd" d="M15.7858 16.4401C15.7858 16.3486 15.9821 16.28 16.0965 16.28C16.9888 16.2342 18.299 16.2113 19.6718 16.2113C23.5158 16.2113 25.0129 18.3168 25.0129 21.0175C25.0129 24.542 22.4574 26.0524 19.3227 26.0524C19.0358 26.0524 18.8509 26.0456 18.6827 26.0394C18.5424 26.0342 18.4138 26.0294 18.2473 26.0294V31.3585C18.2473 31.473 18.2015 31.5189 18.0872 31.5189H15.946C15.8316 31.5189 15.7858 31.473 15.7858 31.3585V16.4401ZM18.2473 23.8095C18.5676 23.8323 18.8193 23.8323 19.3685 23.8323C20.9931 23.8323 22.5189 23.2601 22.5189 21.0631C22.5189 19.3007 21.4278 18.4083 19.5744 18.4083C19.0253 18.4083 18.499 18.431 18.2473 18.454V23.8095V23.8095ZM28.7189 23.1688C28.7189 22.711 29.085 22.1618 30.1833 22.1618C31.0758 22.1618 31.9845 22.3906 32.6022 22.7568C32.7395 22.8026 32.8081 22.7338 32.8081 22.6195V20.7195C32.8081 20.628 32.7852 20.5137 32.6708 20.4449C32.2132 20.239 31.3731 20.0559 30.1833 20.0559C27.758 20.0559 26.3623 21.5437 26.3623 23.3288C26.3623 24.9308 27.1859 25.892 29.1538 26.8305C30.5495 27.5627 30.8698 27.9976 30.8698 28.5012C30.8698 29.1191 30.4122 29.5768 29.3139 29.5768C28.3985 29.5768 27.3894 29.3249 26.5199 28.7529C26.4284 28.6844 26.3598 28.7301 26.3598 28.8675V30.9044C26.3598 31.0188 26.3826 31.0874 26.4742 31.1332C27.0691 31.4764 28.1012 31.7283 29.3139 31.7283C31.602 31.7283 33.2953 30.5382 33.2953 28.3181C33.2953 26.8306 32.6088 25.8236 30.4351 24.7708C28.9706 24.0154 28.7189 23.6723 28.7189 23.1688Z" fill="white"/>
</svg>
