<svg width="802" height="584" viewBox="0 0 802 584" fill="none" xmlns="http://www.w3.org/2000/svg">
<g clip-path="url(#clip0_6_189)">
<path d="M827.754 643.688L699.888 142.259C696.274 128.085 681.629 119.73 667.588 123.833L116.353 284.884C101.184 289.315 93.5059 306.199 100.136 320.544L382.422 931.3C389.125 945.801 407.244 950.814 420.446 941.818L817.261 671.44C826.247 665.317 830.441 654.225 827.754 643.688Z" fill="url(#paint0_linear_6_189)" stroke="url(#paint1_linear_6_189)" stroke-opacity="0.5" stroke-width="3.2315" stroke-linecap="round" stroke-linejoin="round"/>
<path d="M730.457 534.477L605.96 46.2594C602.345 32.085 587.701 23.7304 573.66 27.8327L20.3973 189.476C5.94811 193.697 -1.85274 209.323 3.45666 223.409L135.951 574.918C139.899 585.392 150.14 592.136 161.323 591.625L706.588 566.69C722.954 565.942 734.506 550.353 730.457 534.477Z" fill="url(#paint2_linear_6_189)" stroke="url(#paint3_linear_6_189)" stroke-width="3.2315" stroke-linecap="round" stroke-linejoin="round"/>
<g opacity="0.5">
<path d="M209.026 193.197L206.156 194.123C205.984 193.769 205.77 193.473 205.516 193.237C205.26 192.996 204.972 192.814 204.652 192.691C204.333 192.567 203.989 192.504 203.622 192.502C203.259 192.498 202.886 192.559 202.501 192.683C201.807 192.907 201.257 193.274 200.853 193.786C200.447 194.293 200.208 194.92 200.136 195.666C200.061 196.409 200.174 197.245 200.474 198.176C200.783 199.133 201.184 199.891 201.678 200.45C202.176 201.008 202.737 201.37 203.359 201.536C203.982 201.702 204.632 201.675 205.309 201.457C205.689 201.334 206.024 201.171 206.315 200.966C206.61 200.76 206.854 200.52 207.045 200.246C207.235 199.968 207.368 199.662 207.444 199.329C207.524 198.994 207.539 198.637 207.489 198.258L210.364 197.346C210.488 197.985 210.494 198.639 210.382 199.308C210.272 199.97 210.041 200.606 209.688 201.217C209.338 201.822 208.862 202.366 208.261 202.849C207.662 203.327 206.933 203.704 206.072 203.982C204.875 204.368 203.717 204.442 202.599 204.204C201.485 203.965 200.49 203.421 199.613 202.57C198.74 201.718 198.068 200.563 197.598 199.104C197.126 197.64 197 196.306 197.219 195.102C197.438 193.898 197.933 192.875 198.704 192.033C199.473 191.187 200.447 190.574 201.626 190.194C202.404 189.943 203.16 189.82 203.895 189.824C204.633 189.827 205.328 189.955 205.979 190.208C206.628 190.457 207.212 190.831 207.729 191.33C208.252 191.827 208.684 192.449 209.026 193.197ZM218.432 200.011C217.414 200.339 216.464 200.406 215.582 200.213C214.703 200.015 213.937 199.591 213.284 198.943C212.63 198.291 212.137 197.449 211.805 196.418C211.469 195.378 211.377 194.405 211.528 193.498C211.678 192.586 212.053 191.795 212.651 191.124C213.253 190.448 214.063 189.946 215.081 189.617C216.099 189.289 217.047 189.224 217.927 189.423C218.809 189.616 219.577 190.039 220.231 190.691C220.884 191.339 221.378 192.183 221.713 193.223C222.045 194.254 222.137 195.225 221.987 196.137C221.836 197.044 221.459 197.836 220.857 198.512C220.258 199.183 219.45 199.682 218.432 200.011ZM217.748 197.844C218.211 197.694 218.555 197.439 218.781 197.077C219.005 196.71 219.122 196.272 219.132 195.763C219.145 195.252 219.058 194.704 218.869 194.118C218.68 193.533 218.431 193.037 218.122 192.63C217.816 192.222 217.466 191.935 217.07 191.769C216.673 191.602 216.244 191.594 215.781 191.743C215.313 191.894 214.963 192.154 214.73 192.523C214.502 192.891 214.38 193.33 214.367 193.841C214.357 194.351 214.447 194.898 214.636 195.483C214.824 196.069 215.071 196.565 215.377 196.973C215.686 197.38 216.041 197.666 216.442 197.831C216.845 197.99 217.281 197.995 217.748 197.844ZM225.138 197.631L221.893 187.566L224.553 186.708L225.126 188.484L225.244 188.446C225.263 187.788 225.463 187.21 225.842 186.712C226.221 186.213 226.752 185.854 227.433 185.634C228.124 185.412 228.767 185.395 229.363 185.584C229.958 185.768 230.431 186.127 230.781 186.66L230.886 186.626C230.905 185.983 231.128 185.403 231.554 184.884C231.983 184.36 232.567 183.979 233.305 183.741C234.244 183.438 235.103 183.492 235.882 183.901C236.663 184.305 237.23 185.053 237.582 186.146L239.765 192.915L236.98 193.813L234.974 187.594C234.794 187.035 234.51 186.663 234.123 186.48C233.736 186.296 233.319 186.276 232.874 186.419C232.367 186.583 232.024 186.872 231.844 187.287C231.663 187.697 231.657 188.165 231.826 188.689L233.808 194.836L231.101 195.708L229.077 189.431C228.918 188.937 228.649 188.589 228.271 188.388C227.897 188.186 227.481 188.158 227.022 188.306C226.712 188.406 226.457 188.575 226.259 188.813C226.064 189.045 225.939 189.323 225.885 189.65C225.83 189.971 225.862 190.318 225.982 190.689L227.93 196.731L225.138 197.631ZM243.187 195.978L238.724 182.138L241.476 181.251L242.022 182.942L242.146 182.902C242.181 182.591 242.269 182.259 242.411 181.905C242.555 181.545 242.785 181.21 243.1 180.901C243.418 180.586 243.859 180.338 244.422 180.156C245.156 179.92 245.895 179.894 246.64 180.078C247.383 180.258 248.064 180.673 248.683 181.322C249.301 181.967 249.796 182.866 250.168 184.019C250.53 185.142 250.654 186.148 250.541 187.038C250.43 187.923 250.129 188.664 249.637 189.261C249.148 189.853 248.521 190.272 247.756 190.519C247.215 190.694 246.725 190.753 246.287 190.696C245.854 190.638 245.473 190.512 245.145 190.319C244.816 190.121 244.544 189.903 244.327 189.664L244.241 189.692L245.978 195.078L243.187 195.978ZM243.079 186.29C243.272 186.889 243.524 187.384 243.834 187.776C244.143 188.168 244.495 188.438 244.89 188.585C245.284 188.729 245.705 188.728 246.155 188.583C246.61 188.436 246.954 188.188 247.188 187.837C247.421 187.482 247.547 187.056 247.565 186.558C247.585 186.055 247.502 185.51 247.313 184.925C247.125 184.344 246.88 183.859 246.576 183.47C246.272 183.081 245.923 182.812 245.528 182.665C245.133 182.517 244.706 182.517 244.247 182.665C243.793 182.812 243.447 183.056 243.21 183.398C242.978 183.738 242.849 184.155 242.826 184.65C242.802 185.145 242.887 185.692 243.079 186.29ZM258.258 187.169C257.241 187.497 256.29 187.565 255.408 187.371C254.529 187.173 253.763 186.749 253.111 186.101C252.457 185.449 251.963 184.607 251.631 183.576C251.296 182.536 251.203 181.563 251.355 180.656C251.504 179.744 251.879 178.953 252.478 178.282C253.079 177.606 253.889 177.104 254.907 176.776C255.925 176.447 256.874 176.383 257.753 176.581C258.635 176.774 259.403 177.197 260.057 177.85C260.71 178.498 261.204 179.341 261.539 180.381C261.871 181.412 261.963 182.384 261.813 183.295C261.662 184.202 261.285 184.994 260.684 185.67C260.085 186.341 259.276 186.84 258.258 187.169ZM257.574 185.002C258.037 184.853 258.382 184.597 258.607 184.235C258.832 183.868 258.948 183.43 258.958 182.921C258.971 182.41 258.884 181.862 258.695 181.276C258.506 180.691 258.257 180.195 257.948 179.788C257.643 179.38 257.292 179.093 256.896 178.927C256.5 178.76 256.07 178.752 255.607 178.901C255.14 179.052 254.789 179.312 254.556 179.681C254.328 180.049 254.207 180.488 254.193 180.999C254.183 181.509 254.273 182.056 254.462 182.642C254.651 183.227 254.898 183.724 255.203 184.132C255.512 184.538 255.867 184.824 256.268 184.989C256.671 185.148 257.107 185.153 257.574 185.002ZM265.88 178.07L267.756 183.889L264.964 184.789L261.719 174.724L264.379 173.866L264.952 175.642L265.07 175.604C265.104 174.947 265.328 174.363 265.742 173.853C266.155 173.339 266.735 172.962 267.483 172.721C268.181 172.495 268.84 172.452 269.459 172.59C270.077 172.728 270.622 173.035 271.094 173.51C271.564 173.98 271.925 174.606 272.177 175.388L274.243 181.797L271.452 182.697L269.546 176.787C269.352 176.169 269.039 175.739 268.609 175.497C268.178 175.25 267.682 175.217 267.123 175.398C266.747 175.519 266.441 175.707 266.205 175.961C265.973 176.214 265.827 176.522 265.765 176.884C265.706 177.241 265.744 177.636 265.88 178.07ZM281.094 179.805C280.059 180.139 279.1 180.217 278.218 180.038C277.338 179.854 276.573 179.44 275.922 178.796C275.269 178.148 274.772 177.294 274.429 176.232C274.096 175.197 274.003 174.223 274.153 173.312C274.303 172.4 274.672 171.608 275.261 170.936C275.854 170.262 276.644 169.766 277.632 169.448C278.296 169.234 278.948 169.142 279.59 169.171C280.234 169.195 280.838 169.35 281.403 169.635C281.972 169.92 282.481 170.344 282.928 170.909C283.374 171.469 283.735 172.178 284.011 173.034L284.258 173.801L275.759 176.541L275.201 174.811L281.073 172.918C280.943 172.516 280.741 172.188 280.466 171.934C280.191 171.68 279.871 171.516 279.504 171.441C279.141 171.361 278.756 171.386 278.349 171.517C277.926 171.654 277.582 171.873 277.317 172.176C277.056 172.472 276.886 172.814 276.809 173.2C276.729 173.583 276.752 173.974 276.875 174.373L277.406 176.017C277.566 176.515 277.797 176.916 278.097 177.22C278.402 177.522 278.757 177.716 279.161 177.803C279.565 177.889 280.001 177.857 280.468 177.707C280.778 177.607 281.048 177.471 281.278 177.301C281.507 177.13 281.686 176.928 281.813 176.694C281.94 176.46 282.011 176.201 282.025 175.917L284.662 175.255C284.731 175.917 284.637 176.546 284.38 177.14C284.126 177.728 283.722 178.254 283.167 178.717C282.615 179.175 281.924 179.538 281.094 179.805ZM288.388 170.812L290.264 176.632L287.472 177.532L284.227 167.466L286.887 166.608L287.46 168.384L287.578 168.346C287.612 167.689 287.836 167.105 288.251 166.596C288.664 166.081 289.244 165.704 289.991 165.463C290.69 165.238 291.348 165.194 291.967 165.332C292.585 165.47 293.13 165.777 293.602 166.252C294.072 166.722 294.433 167.349 294.685 168.131L296.752 174.54L293.96 175.44L292.054 169.529C291.86 168.912 291.548 168.482 291.117 168.239C290.686 167.993 290.19 167.96 289.631 168.14C289.255 168.261 288.949 168.449 288.713 168.703C288.481 168.957 288.335 169.264 288.273 169.627C288.214 169.983 288.253 170.378 288.388 170.812ZM301.06 162.038L301.736 164.135L295.675 166.09L294.998 163.993L301.06 162.038ZM295.597 161.138L298.389 160.237L301.414 169.621C301.498 169.879 301.602 170.067 301.727 170.186C301.851 170.301 301.991 170.364 302.15 170.376C302.312 170.386 302.487 170.361 302.675 170.3C302.806 170.258 302.934 170.205 303.058 170.141C303.18 170.072 303.274 170.02 303.34 169.984L304.449 171.92C304.323 172.009 304.143 172.123 303.908 172.261C303.674 172.404 303.378 172.54 303.02 172.67C302.355 172.914 301.737 173.014 301.164 172.972C300.595 172.929 300.101 172.736 299.682 172.394C299.263 172.051 298.95 171.55 298.741 170.889L295.597 161.138Z" fill="#1CB5E0"/>
<g filter="url(#filter0_d_6_189)">
<mask id="path-4-inside-1_6_189" fill="white">
<path d="M205.017 225.299C203.374 220.203 206.173 214.74 211.269 213.097L517.89 114.228C522.985 112.585 528.448 115.383 530.091 120.479L561.184 216.905C562.827 222.001 560.028 227.464 554.932 229.107L248.311 327.976C243.215 329.62 237.753 326.821 236.109 321.725L205.017 225.299Z"/>
</mask>
<path d="M205.017 225.299C203.374 220.203 206.173 214.74 211.269 213.097L517.89 114.228C522.985 112.585 528.448 115.383 530.091 120.479L561.184 216.905C562.827 222.001 560.028 227.464 554.932 229.107L248.311 327.976C243.215 329.62 237.753 326.821 236.109 321.725L205.017 225.299Z" fill="url(#paint4_linear_6_189)" fill-opacity="0.1" shape-rendering="crispEdges"/>
<path d="M252.647 240.283L252.309 239.234L259.363 232.214L259.904 233.891L254.436 239.098L254.454 238.977L254.539 239.239L254.453 239.151L261.933 240.182L262.474 241.86L252.647 240.283ZM266.503 242.413L262.175 228.992L266.867 227.479C267.802 227.178 268.625 227.091 269.337 227.218C270.047 227.341 270.638 227.626 271.109 228.072C271.58 228.513 271.921 229.062 272.132 229.717C272.318 230.294 272.369 230.803 272.284 231.245C272.205 231.686 272.034 232.069 271.772 232.394C271.515 232.718 271.211 232.995 270.861 233.223L270.903 233.355C271.322 233.248 271.781 233.259 272.281 233.388C272.78 233.516 273.249 233.78 273.686 234.179C274.124 234.578 274.456 235.131 274.685 235.839C274.902 236.512 274.944 237.166 274.811 237.802C274.679 238.438 274.333 239.02 273.775 239.547C273.217 240.074 272.409 240.508 271.352 240.849L266.503 242.413ZM267.663 240.447L270.887 239.408C271.948 239.065 272.636 238.617 272.949 238.063C273.265 237.503 273.328 236.928 273.138 236.338C272.992 235.883 272.741 235.501 272.385 235.192C272.028 234.877 271.598 234.674 271.095 234.58C270.591 234.482 270.046 234.528 269.461 234.716L266.158 235.781L267.663 240.447ZM265.702 234.366L268.716 233.394C269.206 233.236 269.616 232.998 269.947 232.679C270.283 232.358 270.51 231.986 270.629 231.562C270.752 231.136 270.737 230.688 270.585 230.216C270.395 229.626 270.029 229.192 269.485 228.914C268.941 228.631 268.223 228.634 267.332 228.921L264.265 229.91L265.702 234.366ZM283.311 232.45L281.392 226.5L282.939 226.001L286.185 236.066L284.638 236.565L284.089 234.861L283.984 234.895C283.913 235.482 283.686 236.035 283.303 236.554C282.92 237.069 282.347 237.448 281.587 237.694C280.958 237.896 280.355 237.939 279.777 237.822C279.197 237.7 278.677 237.404 278.218 236.935C277.756 236.462 277.388 235.797 277.111 234.941L275.049 228.545L276.596 228.046L278.624 234.337C278.861 235.071 279.255 235.59 279.806 235.895C280.362 236.198 280.961 236.246 281.604 236.039C281.988 235.915 282.347 235.691 282.681 235.366C283.02 235.04 283.259 234.63 283.399 234.136C283.543 233.641 283.514 233.079 283.311 232.45ZM290.149 223.676L290.572 224.987L285.355 226.669L284.933 225.358L290.149 223.676ZM285.676 222.456L287.222 221.958L290.315 231.551C290.456 231.988 290.625 232.295 290.822 232.473C291.023 232.645 291.235 232.735 291.46 232.745C291.688 232.749 291.915 232.714 292.143 232.641C292.313 232.586 292.45 232.532 292.553 232.479C292.656 232.422 292.737 232.376 292.799 232.342L293.561 233.63C293.469 233.703 293.335 233.79 293.16 233.89C292.986 233.994 292.755 234.092 292.467 234.185C292.03 234.326 291.572 234.37 291.092 234.318C290.616 234.264 290.179 234.089 289.78 233.793C289.385 233.496 289.093 233.055 288.904 232.469L285.676 222.456ZM296.853 221.514L297.275 222.825L292.059 224.507L291.637 223.196L296.853 221.514ZM292.379 220.295L293.926 219.796L297.019 229.39C297.16 229.827 297.329 230.134 297.526 230.311C297.726 230.483 297.939 230.574 298.164 230.583C298.392 230.587 298.619 230.552 298.846 230.479C299.017 230.424 299.154 230.37 299.257 230.318C299.359 230.26 299.441 230.215 299.502 230.181L300.265 231.468C300.173 231.542 300.039 231.628 299.864 231.728C299.69 231.832 299.459 231.931 299.171 232.024C298.734 232.165 298.276 232.209 297.796 232.156C297.32 232.102 296.883 231.927 296.483 231.632C296.089 231.334 295.797 230.893 295.608 230.308L292.379 220.295ZM306.473 229.756C305.565 230.049 304.698 230.09 303.872 229.878C303.051 229.666 302.323 229.232 301.688 228.579C301.057 227.924 300.574 227.076 300.239 226.037C299.901 224.988 299.796 224.012 299.924 223.107C300.056 222.201 300.393 221.422 300.935 220.77C301.482 220.116 302.209 219.643 303.118 219.35C304.027 219.057 304.891 219.017 305.712 219.229C306.538 219.441 307.267 219.876 307.899 220.535C308.535 221.193 309.023 222.047 309.361 223.095C309.696 224.135 309.797 225.106 309.663 226.007C309.534 226.907 309.196 227.684 308.649 228.338C308.107 228.99 307.382 229.463 306.473 229.756ZM306.025 228.367C306.716 228.144 307.227 227.784 307.558 227.286C307.89 226.789 308.069 226.217 308.097 225.572C308.126 224.926 308.031 224.267 307.814 223.594C307.597 222.921 307.288 222.329 306.887 221.817C306.485 221.305 306.004 220.941 305.443 220.727C304.882 220.512 304.256 220.516 303.566 220.739C302.876 220.961 302.365 221.324 302.035 221.826C301.705 222.328 301.527 222.904 301.5 223.554C301.473 224.204 301.568 224.865 301.785 225.538C302.002 226.211 302.311 226.801 302.711 227.309C303.111 227.816 303.591 228.175 304.15 228.385C304.71 228.595 305.335 228.589 306.025 228.367ZM312.921 220.761L314.874 226.816L313.327 227.314L310.082 217.249L311.576 216.767L312.083 218.34L312.214 218.298C312.285 217.71 312.511 217.184 312.892 216.719C313.271 216.25 313.84 215.892 314.6 215.647C315.282 215.427 315.923 215.375 316.525 215.49C317.125 215.6 317.657 215.891 318.123 216.363C318.587 216.831 318.958 217.493 319.234 218.349L321.296 224.745L319.749 225.244L317.721 218.953C317.466 218.162 317.062 217.612 316.509 217.303C315.955 216.99 315.319 216.949 314.603 217.18C314.109 217.339 313.702 217.589 313.383 217.928C313.067 218.266 312.864 218.676 312.774 219.159C312.684 219.641 312.733 220.175 312.921 220.761ZM333.469 221.051C332.56 221.344 331.693 221.385 330.868 221.174C330.047 220.961 329.319 220.528 328.683 219.874C328.053 219.219 327.569 218.372 327.234 217.332C326.896 216.283 326.791 215.307 326.919 214.402C327.051 213.496 327.388 212.717 327.931 212.065C328.477 211.411 329.204 210.938 330.113 210.645C331.022 210.352 331.887 210.312 332.708 210.525C333.533 210.736 334.262 211.171 334.894 211.831C335.531 212.489 336.018 213.342 336.356 214.391C336.691 215.43 336.792 216.401 336.658 217.303C336.529 218.203 336.191 218.98 335.645 219.633C335.103 220.286 334.377 220.758 333.469 221.051ZM333.021 219.662C333.711 219.44 334.222 219.079 334.553 218.582C334.885 218.084 335.065 217.513 335.093 216.867C335.121 216.221 335.026 215.562 334.81 214.889C334.593 214.217 334.283 213.624 333.882 213.112C333.481 212.6 332.999 212.237 332.438 212.022C331.877 211.808 331.251 211.812 330.561 212.034C329.871 212.257 329.361 212.619 329.031 213.121C328.701 213.623 328.522 214.199 328.495 214.849C328.469 215.499 328.564 216.161 328.781 216.833C328.998 217.506 329.306 218.096 329.706 218.604C330.106 219.112 330.586 219.47 331.146 219.681C331.705 219.891 332.33 219.885 333.021 219.662ZM339.917 212.056L341.869 218.111L340.323 218.61L337.077 208.544L338.571 208.062L339.078 209.635L339.209 209.593C339.28 209.006 339.506 208.48 339.887 208.014C340.266 207.545 340.836 207.188 341.596 206.943C342.277 206.723 342.919 206.67 343.52 206.785C344.12 206.895 344.653 207.187 345.118 207.659C345.583 208.126 345.953 208.788 346.229 209.645L348.291 216.04L346.745 216.539L344.716 210.248C344.461 209.457 344.057 208.908 343.504 208.599C342.95 208.286 342.315 208.244 341.598 208.475C341.104 208.635 340.698 208.884 340.378 209.223C340.063 209.561 339.86 209.972 339.769 210.454C339.679 210.937 339.728 211.471 339.917 212.056ZM359.151 202.353L357.526 202.877C357.279 202.44 356.979 202.084 356.624 201.807C356.274 201.529 355.89 201.325 355.472 201.195C355.057 201.059 354.624 200.996 354.174 201.006C353.724 201.016 353.276 201.093 352.83 201.236C352.018 201.499 351.348 201.941 350.82 202.565C350.298 203.187 349.971 203.96 349.84 204.885C349.713 205.808 349.837 206.851 350.212 208.013C350.586 209.175 351.095 210.094 351.737 210.769C352.384 211.444 353.101 211.88 353.889 212.08C354.681 212.278 355.483 212.246 356.296 211.984C356.741 211.84 357.15 211.641 357.521 211.386C357.892 211.131 358.207 210.829 358.466 210.481C358.728 210.126 358.92 209.734 359.042 209.304C359.166 208.868 359.202 208.403 359.149 207.909L360.774 207.385C360.873 208.111 360.848 208.796 360.699 209.442C360.551 210.088 360.297 210.679 359.939 211.214C359.58 211.744 359.133 212.204 358.598 212.594C358.067 212.982 357.463 213.285 356.786 213.504C355.641 213.873 354.533 213.922 353.462 213.65C352.39 213.378 351.433 212.809 350.589 211.943C349.745 211.076 349.095 209.936 348.639 208.52C348.183 207.105 348.044 205.799 348.222 204.603C348.401 203.407 348.846 202.386 349.557 201.54C350.268 200.693 351.195 200.085 352.34 199.716C353.017 199.498 353.685 199.391 354.342 199.396C355.004 199.4 355.636 199.514 356.24 199.739C356.841 199.96 357.391 200.289 357.889 200.727C358.386 201.16 358.806 201.702 359.151 202.353ZM361.762 196.881L366.089 210.301L364.543 210.8L360.215 197.379L361.762 196.881ZM368.922 209.388L365.676 199.323L367.223 198.824L370.468 208.889L368.922 209.388ZM365.922 197.391C365.62 197.489 365.327 197.47 365.043 197.335C364.762 197.199 364.576 196.986 364.483 196.698C364.39 196.41 364.417 196.128 364.565 195.854C364.717 195.578 364.944 195.392 365.246 195.294C365.547 195.197 365.838 195.217 366.118 195.353C366.403 195.488 366.592 195.7 366.685 195.988C366.778 196.276 366.748 196.558 366.596 196.834C366.448 197.108 366.223 197.294 365.922 197.391ZM377.458 206.867C376.514 207.171 375.63 207.211 374.804 206.985C373.979 206.759 373.257 206.314 372.638 205.651C372.019 204.987 371.547 204.153 371.223 203.148C370.894 202.126 370.791 201.163 370.914 200.26C371.041 199.351 371.371 198.566 371.906 197.907C372.444 197.242 373.167 196.762 374.076 196.469C374.784 196.241 375.464 196.167 376.116 196.246C376.769 196.325 377.352 196.541 377.867 196.896C378.382 197.251 378.784 197.729 379.075 198.33L377.528 198.829C377.262 198.408 376.869 198.086 376.349 197.863C375.831 197.635 375.232 197.63 374.55 197.85C373.947 198.045 373.469 198.372 373.116 198.833C372.767 199.289 372.556 199.841 372.486 200.491C372.419 201.135 372.508 201.837 372.753 202.597C373.004 203.374 373.344 204.012 373.775 204.51C374.21 205.006 374.704 205.341 375.257 205.515C375.814 205.688 376.398 205.675 377.01 205.478C377.412 205.348 377.754 205.161 378.036 204.915C378.319 204.67 378.532 204.379 378.674 204.044C378.817 203.709 378.877 203.342 378.855 202.944L380.402 202.445C380.506 203.068 380.462 203.673 380.27 204.26C380.082 204.842 379.751 205.363 379.277 205.825C378.807 206.28 378.2 206.628 377.458 206.867ZM383.867 200.518L383.224 198.613L383.539 198.511L386.497 192.609L388.411 191.992L385.248 198.249L385.117 198.292L383.867 200.518ZM383.609 204.652L379.281 191.232L380.828 190.733L385.155 204.154L383.609 204.652ZM390.005 202.59L384.467 198.877L385.221 197.448L391.971 201.956L390.005 202.59ZM392.188 194.738L391.732 193.323L399.805 190.72L400.261 192.135L392.188 194.738ZM393.439 198.618L392.983 197.202L401.056 194.599L401.512 196.014L393.439 198.618ZM403.26 192.094L402.998 191.282C403.727 191.046 404.187 190.729 404.377 190.331C404.571 189.931 404.552 189.372 404.321 188.656L403.645 186.559C403.451 185.956 403.339 185.415 403.31 184.938C403.286 184.458 403.358 184.032 403.528 183.659C403.697 183.287 403.977 182.96 404.369 182.679C404.761 182.398 405.278 182.155 405.92 181.948L406.334 183.232C405.827 183.395 405.453 183.603 405.211 183.855C404.973 184.105 404.847 184.416 404.832 184.787C404.819 185.153 404.896 185.591 405.06 186.102L405.906 188.724C406.016 189.064 406.07 189.389 406.068 189.698C406.071 190.006 405.984 190.299 405.809 190.578C405.634 190.856 405.341 191.122 404.93 191.375C404.524 191.626 403.967 191.866 403.26 192.094ZM411.329 198.723C410.687 198.93 410.125 199.035 409.643 199.036C409.161 199.037 408.743 198.935 408.388 198.731C408.032 198.528 407.725 198.224 407.465 197.821C407.209 197.416 406.984 196.913 406.789 196.31L406.113 194.213C405.882 193.496 405.571 193.032 405.179 192.821C404.793 192.608 404.234 192.619 403.505 192.854L403.243 192.042C403.95 191.814 404.542 191.683 405.019 191.65C405.5 191.616 405.893 191.66 406.198 191.784C406.503 191.907 406.744 192.094 406.922 192.346C407.104 192.596 407.25 192.891 407.359 193.232L408.205 195.853C408.369 196.364 408.564 196.765 408.787 197.054C409.015 197.343 409.299 197.519 409.638 197.583C409.983 197.65 410.408 197.602 410.915 197.439L411.329 198.723ZM403.505 192.854L402.998 191.282L404.544 190.783L405.051 192.356L403.505 192.854ZM417.107 185.227L415.845 186.068C415.683 185.865 415.482 185.682 415.241 185.518C415.003 185.349 414.717 185.239 414.382 185.187C414.047 185.136 413.655 185.183 413.205 185.328C412.589 185.527 412.121 185.834 411.802 186.251C411.486 186.661 411.397 187.083 411.537 187.515C411.661 187.9 411.899 188.158 412.25 188.291C412.601 188.424 413.098 188.469 413.74 188.425L415.353 188.311C416.323 188.239 417.101 188.357 417.688 188.665C418.273 188.968 418.679 189.471 418.905 190.175C419.091 190.751 419.091 191.32 418.906 191.882C418.725 192.442 418.382 192.948 417.876 193.4C417.371 193.852 416.727 194.205 415.945 194.457C414.919 194.788 413.997 194.839 413.181 194.61C412.364 194.382 411.728 193.868 411.273 193.07L412.623 192.229C412.937 192.726 413.333 193.047 413.809 193.193C414.289 193.337 414.846 193.307 415.48 193.102C416.201 192.87 416.724 192.532 417.049 192.09C417.377 191.642 417.471 191.201 417.332 190.769C417.219 190.419 417.002 190.166 416.682 190.009C416.359 189.848 415.926 189.79 415.381 189.835L413.577 189.983C412.585 190.062 411.798 189.941 411.218 189.622C410.64 189.297 410.24 188.787 410.016 188.093C409.833 187.525 409.83 186.971 410.008 186.431C410.191 185.89 410.519 185.406 410.994 184.978C411.472 184.548 412.066 184.22 412.773 183.991C413.77 183.67 414.622 183.637 415.331 183.89C416.044 184.143 416.636 184.588 417.107 185.227ZM425.176 191.51C424.538 191.715 423.92 191.782 423.323 191.709C422.724 191.632 422.198 191.413 421.744 191.053C421.289 190.689 420.956 190.179 420.745 189.524C420.559 188.947 420.521 188.443 420.633 188.011C420.743 187.576 420.955 187.194 421.269 186.866C421.583 186.538 421.953 186.25 422.38 186.001C422.809 185.747 423.247 185.514 423.695 185.302C424.281 185.027 424.758 184.808 425.126 184.646C425.496 184.478 425.752 184.316 425.895 184.159C426.041 184.001 426.075 183.797 425.994 183.548L425.977 183.496C425.769 182.849 425.43 182.404 424.961 182.16C424.496 181.914 423.907 181.906 423.195 182.136C422.457 182.374 421.93 182.722 421.615 183.181C421.3 183.639 421.116 184.079 421.064 184.501L419.427 184.45C419.492 183.754 419.688 183.165 420.015 182.684C420.345 182.196 420.748 181.801 421.224 181.498C421.703 181.189 422.196 180.953 422.703 180.79C423.026 180.685 423.41 180.605 423.855 180.548C424.303 180.486 424.761 180.509 425.231 180.619C425.704 180.726 426.149 180.976 426.564 181.368C426.98 181.759 427.317 182.355 427.575 183.154L429.713 189.786L428.166 190.285L427.727 188.922L427.648 188.947C427.614 189.199 427.515 189.489 427.35 189.817C427.186 190.145 426.929 190.462 426.579 190.768C426.229 191.074 425.761 191.321 425.176 191.51ZM424.964 190.044C425.575 189.847 426.052 189.561 426.394 189.185C426.74 188.808 426.959 188.395 427.051 187.946C427.147 187.496 427.127 187.061 426.992 186.641L426.535 185.226C426.495 185.326 426.374 185.444 426.172 185.581C425.974 185.713 425.738 185.849 425.465 185.99C425.195 186.126 424.931 186.254 424.671 186.377C424.414 186.493 424.206 186.589 424.048 186.665C423.663 186.847 423.314 187.053 423.003 187.284C422.694 187.508 422.47 187.771 422.331 188.072C422.194 188.367 422.19 188.71 422.316 189.104C422.49 189.641 422.819 189.983 423.306 190.13C423.795 190.272 424.348 190.243 424.964 190.044ZM434.388 192.445C434.126 192.53 433.886 192.584 433.666 192.606C433.448 192.633 433.294 192.639 433.202 192.625L433.156 191.136C433.563 191.111 433.906 191.038 434.186 190.919C434.466 190.8 434.68 190.589 434.828 190.285C434.982 189.985 435.07 189.549 435.093 188.977L435.128 188.098L428.143 179.18L429.821 178.639L435.186 185.764L435.291 185.73L435.483 176.814L437.16 176.273L436.607 189.184C436.582 189.766 436.483 190.273 436.309 190.705C436.136 191.142 435.889 191.504 435.566 191.791C435.249 192.077 434.856 192.295 434.388 192.445ZM442.657 185.612L438.329 172.192L439.955 171.668L441.882 177.644L449.038 175.337L447.111 169.36L448.736 168.836L453.063 182.257L451.438 182.781L449.502 176.778L442.347 179.086L444.282 185.088L442.657 185.612ZM460.395 180.124C459.425 180.437 458.519 180.493 457.678 180.291C456.84 180.084 456.106 179.655 455.476 179.005C454.85 178.348 454.37 177.504 454.038 176.473C453.705 175.442 453.6 174.473 453.722 173.566C453.847 172.652 454.177 171.866 454.712 171.206C455.25 170.541 455.973 170.062 456.882 169.769C457.406 169.6 457.952 169.52 458.52 169.53C459.087 169.54 459.644 169.674 460.19 169.932C460.735 170.185 461.235 170.593 461.691 171.155C462.148 171.717 462.527 172.468 462.83 173.407L463.041 174.062L455.282 176.564L454.851 175.227L461.037 173.232C460.854 172.665 460.577 172.194 460.206 171.822C459.84 171.448 459.408 171.199 458.91 171.076C458.416 170.95 457.889 170.978 457.33 171.158C456.714 171.357 456.23 171.681 455.879 172.132C455.531 172.577 455.314 173.081 455.231 173.644C455.147 174.206 455.194 174.765 455.373 175.319L455.66 176.211C455.906 176.971 456.244 177.573 456.677 178.017C457.112 178.455 457.611 178.736 458.171 178.859C458.73 178.978 459.322 178.936 459.947 178.735C460.353 178.604 460.702 178.429 460.993 178.21C461.287 177.985 461.517 177.718 461.682 177.409C461.846 177.095 461.938 176.743 461.956 176.351L463.585 176.289C463.592 176.846 463.471 177.377 463.224 177.881C462.975 178.381 462.612 178.826 462.135 179.216C461.656 179.602 461.076 179.905 460.395 180.124ZM464.067 163.893L468.394 177.313L466.848 177.812L462.52 164.391L464.067 163.893ZM468.446 162.481L472.773 175.901L471.227 176.4L466.899 162.979L468.446 162.481ZM479.762 173.879C478.854 174.172 477.987 174.213 477.161 174.002C476.34 173.789 475.612 173.356 474.977 172.702C474.346 172.047 473.863 171.2 473.528 170.16C473.19 169.111 473.085 168.135 473.213 167.23C473.345 166.324 473.682 165.545 474.224 164.893C474.771 164.239 475.498 163.766 476.407 163.473C477.316 163.18 478.18 163.14 479.001 163.353C479.827 163.564 480.556 163.999 481.188 164.659C481.824 165.317 482.312 166.17 482.65 167.219C482.985 168.258 483.086 169.229 482.952 170.131C482.823 171.031 482.485 171.808 481.939 172.461C481.396 173.114 480.671 173.586 479.762 173.879ZM479.314 172.49C480.005 172.267 480.516 171.907 480.847 171.41C481.179 170.912 481.358 170.341 481.387 169.695C481.415 169.049 481.32 168.39 481.103 167.717C480.886 167.044 480.577 166.452 480.176 165.94C479.774 165.428 479.293 165.065 478.732 164.85C478.171 164.636 477.545 164.64 476.855 164.862C476.165 165.085 475.654 165.447 475.324 165.949C474.994 166.451 474.816 167.027 474.789 167.677C474.762 168.327 474.858 168.988 475.075 169.661C475.291 170.334 475.6 170.924 476 171.432C476.4 171.939 476.88 172.298 477.44 172.509C477.999 172.719 478.624 172.713 479.314 172.49ZM489.153 164.34L489.415 165.153C488.686 165.388 488.224 165.706 488.03 166.106C487.84 166.505 487.861 167.062 488.092 167.779L488.768 169.876C488.962 170.479 489.072 171.02 489.096 171.499C489.125 171.977 489.054 172.402 488.885 172.775C488.716 173.148 488.436 173.475 488.044 173.755C487.652 174.036 487.135 174.28 486.493 174.487L486.079 173.203C486.586 173.039 486.957 172.83 487.193 172.576C487.435 172.324 487.562 172.015 487.575 171.65C487.591 171.282 487.517 170.843 487.352 170.332L486.507 167.711C486.397 167.37 486.341 167.046 486.338 166.738C486.34 166.429 486.428 166.135 486.604 165.857C486.779 165.578 487.07 165.313 487.476 165.062C487.886 164.809 488.446 164.568 489.153 164.34ZM481.084 157.711C481.726 157.504 482.288 157.4 482.77 157.399C483.252 157.398 483.67 157.499 484.025 157.703C484.38 157.907 484.686 158.211 484.942 158.616C485.202 159.019 485.429 159.522 485.624 160.125L486.3 162.222C486.531 162.938 486.84 163.403 487.227 163.616C487.618 163.827 488.179 163.815 488.908 163.58L489.17 164.393C488.462 164.621 487.868 164.752 487.387 164.787C486.911 164.82 486.52 164.775 486.215 164.651C485.91 164.528 485.666 164.341 485.485 164.091C485.307 163.839 485.163 163.543 485.053 163.203L484.208 160.581C484.043 160.07 483.847 159.67 483.619 159.382C483.394 159.088 483.11 158.91 482.766 158.847C482.427 158.783 482.004 158.832 481.498 158.996L481.084 157.711ZM488.908 163.58L489.415 165.153L487.869 165.651L487.362 164.079L488.908 163.58ZM500.451 161.768L493.396 168.789L492.855 167.111L498.324 161.904L498.305 162.026L498.221 161.764L498.307 161.852L490.827 160.82L490.286 159.142L500.112 160.72L500.451 161.768ZM297.727 256.511L293.4 243.09L297.934 241.628C298.987 241.288 299.909 241.201 300.7 241.365C301.494 241.524 302.156 241.873 302.686 242.411C303.217 242.949 303.609 243.613 303.864 244.404C304.119 245.194 304.189 245.965 304.075 246.716C303.964 247.465 303.637 248.14 303.092 248.74C302.546 249.336 301.751 249.802 300.707 250.138L297.457 251.186L296.992 249.745L300.19 248.714C300.911 248.481 301.45 248.17 301.806 247.78C302.163 247.39 302.371 246.952 302.431 246.465C302.494 245.972 302.439 245.457 302.265 244.919C302.092 244.382 301.837 243.934 301.499 243.575C301.166 243.214 300.74 242.985 300.221 242.887C299.701 242.785 299.076 242.851 298.347 243.086L295.49 244.008L299.352 255.987L297.727 256.511ZM309.231 252.801L305.985 242.736L307.479 242.254L307.97 243.774L308.074 243.741C308.097 243.183 308.299 242.672 308.68 242.207C309.06 241.742 309.552 241.412 310.155 241.218C310.268 241.181 310.411 241.138 310.583 241.087C310.755 241.036 310.886 241.001 310.976 240.982L311.483 242.555C311.426 242.559 311.3 242.578 311.103 242.612C310.91 242.641 310.711 242.688 310.505 242.754C310.016 242.912 309.612 243.155 309.294 243.485C308.979 243.808 308.768 244.185 308.66 244.615C308.556 245.039 308.577 245.479 308.724 245.933L310.777 252.303L309.231 252.801ZM316.097 250.587L312.851 240.522L314.398 240.023L317.643 250.089L316.097 250.587ZM313.097 238.591C312.795 238.688 312.502 238.669 312.218 238.534C311.937 238.398 311.751 238.186 311.658 237.897C311.565 237.609 311.592 237.328 311.74 237.053C311.892 236.778 312.119 236.591 312.421 236.494C312.722 236.397 313.013 236.416 313.293 236.552C313.578 236.687 313.767 236.899 313.86 237.187C313.952 237.476 313.923 237.758 313.771 238.033C313.623 238.308 313.398 238.494 313.097 238.591ZM320.476 249.175L317.23 239.11L318.724 238.628L319.232 240.201L319.363 240.159C319.399 239.554 319.603 239.027 319.975 238.579C320.345 238.127 320.858 237.796 321.513 237.584C322.177 237.37 322.778 237.343 323.317 237.502C323.858 237.655 324.34 237.96 324.762 238.418L324.867 238.384C324.957 237.781 325.211 237.243 325.628 236.771C326.043 236.295 326.611 235.94 327.332 235.708C328.232 235.418 329.059 235.462 329.813 235.841C330.566 236.216 331.133 236.995 331.515 238.179L333.687 244.916L332.14 245.414L329.968 238.678C329.729 237.935 329.354 237.47 328.845 237.282C328.336 237.094 327.806 237.089 327.256 237.266C326.548 237.494 326.069 237.885 325.818 238.439C325.566 238.988 325.545 239.588 325.755 240.239L327.868 246.792L326.295 247.299L324.072 240.405C323.888 239.833 323.553 239.432 323.069 239.202C322.584 238.968 322.048 238.945 321.463 239.134C321.061 239.264 320.72 239.492 320.439 239.819C320.163 240.144 319.98 240.531 319.888 240.98C319.799 241.424 319.835 241.892 319.994 242.386L322.022 248.677L320.476 249.175ZM339.553 243.285C338.915 243.49 338.297 243.557 337.7 243.484C337.101 243.407 336.575 243.189 336.121 242.828C335.666 242.464 335.333 241.954 335.121 241.299C334.935 240.722 334.898 240.218 335.01 239.787C335.12 239.351 335.332 238.969 335.646 238.641C335.96 238.313 336.33 238.025 336.756 237.777C337.186 237.522 337.624 237.289 338.072 237.077C338.658 236.802 339.135 236.583 339.502 236.421C339.873 236.253 340.129 236.091 340.272 235.934C340.418 235.776 340.451 235.572 340.371 235.323L340.354 235.271C340.146 234.624 339.807 234.179 339.337 233.935C338.872 233.689 338.284 233.681 337.572 233.911C336.833 234.149 336.307 234.497 335.992 234.956C335.676 235.414 335.493 235.855 335.441 236.276L333.804 236.226C333.869 235.529 334.065 234.94 334.392 234.459C334.722 233.971 335.125 233.576 335.601 233.273C336.08 232.964 336.573 232.728 337.08 232.565C337.403 232.461 337.787 232.38 338.232 232.324C338.68 232.261 339.138 232.285 339.607 232.394C340.081 232.501 340.526 232.751 340.941 233.143C341.357 233.534 341.694 234.13 341.951 234.929L344.09 241.561L342.543 242.06L342.104 240.697L342.025 240.722C341.991 240.974 341.891 241.264 341.727 241.592C341.563 241.92 341.306 242.237 340.956 242.543C340.606 242.849 340.138 243.096 339.553 243.285ZM339.341 241.819C339.952 241.622 340.429 241.336 340.771 240.96C341.117 240.583 341.336 240.17 341.428 239.721C341.523 239.271 341.504 238.836 341.369 238.416L340.912 237.001C340.872 237.101 340.751 237.219 340.549 237.357C340.351 237.488 340.115 237.624 339.842 237.766C339.572 237.901 339.307 238.03 339.048 238.152C338.791 238.268 338.583 238.364 338.424 238.44C338.039 238.622 337.691 238.828 337.38 239.059C337.071 239.284 336.847 239.546 336.708 239.847C336.571 240.142 336.567 240.486 336.693 240.879C336.867 241.416 337.196 241.758 337.683 241.905C338.172 242.047 338.725 242.018 339.341 241.819ZM346.913 240.651L343.667 230.585L345.161 230.104L345.651 231.624L345.756 231.59C345.779 231.033 345.981 230.522 346.361 230.057C346.742 229.592 347.234 229.262 347.836 229.067C347.95 229.031 348.093 228.987 348.265 228.937C348.436 228.886 348.567 228.851 348.657 228.832L349.165 230.404C349.108 230.408 348.981 230.427 348.785 230.462C348.592 230.49 348.392 230.538 348.187 230.604C347.698 230.762 347.294 231.005 346.976 231.334C346.661 231.658 346.449 232.035 346.342 232.465C346.238 232.889 346.259 233.328 346.405 233.783L348.459 240.152L346.913 240.651ZM356.298 241.792C356.036 241.876 355.795 241.93 355.576 241.952C355.358 241.979 355.203 241.986 355.112 241.972L355.065 240.482C355.472 240.457 355.815 240.385 356.095 240.265C356.375 240.146 356.589 239.935 356.737 239.632C356.891 239.331 356.98 238.895 357.003 238.323L357.038 237.444L350.053 228.526L351.731 227.985L357.095 235.11L357.2 235.077L357.392 226.16L359.07 225.619L358.516 238.53C358.492 239.112 358.392 239.619 358.218 240.051C358.046 240.488 357.798 240.85 357.476 241.137C357.158 241.423 356.766 241.641 356.298 241.792ZM369.757 233.285L365.429 219.864L370.121 218.351C371.056 218.05 371.879 217.963 372.591 218.09C373.301 218.214 373.892 218.498 374.363 218.944C374.834 219.386 375.175 219.934 375.386 220.589C375.572 221.166 375.623 221.675 375.539 222.117C375.459 222.558 375.288 222.941 375.026 223.266C374.769 223.59 374.465 223.867 374.115 224.096L374.157 224.227C374.576 224.12 375.035 224.131 375.535 224.26C376.034 224.388 376.503 224.652 376.94 225.051C377.378 225.45 377.71 226.003 377.939 226.711C378.156 227.384 378.198 228.038 378.065 228.674C377.933 229.31 377.587 229.892 377.029 230.419C376.471 230.946 375.663 231.38 374.606 231.721L369.757 233.285ZM370.917 231.319L374.141 230.28C375.203 229.937 375.89 229.489 376.203 228.935C376.519 228.375 376.582 227.8 376.392 227.21C376.246 226.756 375.995 226.373 375.639 226.064C375.282 225.75 374.852 225.546 374.35 225.452C373.845 225.354 373.301 225.4 372.715 225.589L369.412 226.654L370.917 231.319ZM368.956 225.238L371.97 224.266C372.46 224.108 372.87 223.87 373.201 223.551C373.537 223.23 373.764 222.858 373.883 222.434C374.006 222.008 373.992 221.56 373.839 221.088C373.649 220.498 373.283 220.064 372.74 219.786C372.195 219.503 371.477 219.506 370.586 219.793L367.519 220.782L368.956 225.238ZM386.565 223.322L384.647 217.372L386.193 216.873L389.439 226.939L387.892 227.437L387.343 225.733L387.238 225.767C387.167 226.354 386.94 226.907 386.558 227.426C386.174 227.941 385.602 228.321 384.841 228.566C384.212 228.768 383.609 228.811 383.031 228.694C382.451 228.572 381.932 228.276 381.472 227.807C381.01 227.334 380.642 226.669 380.366 225.813L378.303 219.417L379.85 218.918L381.878 225.209C382.115 225.943 382.509 226.463 383.06 226.767C383.616 227.07 384.215 227.118 384.858 226.911C385.242 226.787 385.601 226.563 385.936 226.238C386.274 225.912 386.513 225.502 386.653 225.008C386.797 224.513 386.768 223.951 386.565 223.322ZM393.403 214.548L393.826 215.859L388.609 217.541L388.187 216.23L393.403 214.548ZM388.93 213.328L390.476 212.83L393.57 222.423C393.71 222.86 393.879 223.168 394.077 223.345C394.277 223.517 394.489 223.608 394.714 223.617C394.942 223.621 395.169 223.586 395.397 223.513C395.567 223.458 395.704 223.404 395.808 223.351C395.91 223.294 395.991 223.249 396.053 223.214L396.815 224.502C396.723 224.575 396.589 224.662 396.414 224.762C396.24 224.866 396.009 224.965 395.721 225.057C395.284 225.198 394.826 225.242 394.346 225.19C393.87 225.136 393.433 224.961 393.034 224.665C392.639 224.368 392.347 223.927 392.158 223.341L388.93 213.328ZM400.107 212.387L400.529 213.697L395.313 215.379L394.891 214.069L400.107 212.387ZM395.633 211.167L397.18 210.668L400.273 220.262C400.414 220.699 400.583 221.006 400.78 221.183C400.98 221.355 401.193 221.446 401.418 221.455C401.646 221.459 401.873 221.424 402.1 221.351C402.271 221.296 402.408 221.242 402.511 221.19C402.613 221.133 402.695 221.087 402.757 221.053L403.519 222.34C403.427 222.414 403.293 222.5 403.118 222.6C402.944 222.704 402.713 222.803 402.425 222.896C401.988 223.037 401.53 223.081 401.05 223.028C400.574 222.974 400.137 222.799 399.737 222.504C399.343 222.207 399.051 221.765 398.862 221.18L395.633 211.167ZM409.727 220.628C408.819 220.921 407.952 220.962 407.126 220.75C406.305 220.538 405.577 220.105 404.942 219.451C404.311 218.796 403.828 217.948 403.493 216.909C403.155 215.86 403.05 214.884 403.178 213.979C403.31 213.073 403.647 212.294 404.189 211.642C404.736 210.988 405.463 210.515 406.372 210.222C407.281 209.929 408.145 209.889 408.966 210.101C409.792 210.313 410.521 210.748 411.153 211.408C411.789 212.066 412.277 212.919 412.615 213.967C412.95 215.007 413.051 215.978 412.917 216.879C412.788 217.78 412.45 218.556 411.904 219.21C411.361 219.862 410.636 220.335 409.727 220.628ZM409.279 219.239C409.97 219.016 410.481 218.656 410.812 218.159C411.144 217.661 411.323 217.089 411.352 216.444C411.38 215.798 411.285 215.139 411.068 214.466C410.851 213.793 410.542 213.201 410.141 212.689C409.739 212.177 409.258 211.814 408.697 211.599C408.136 211.384 407.51 211.388 406.82 211.611C406.13 211.834 405.619 212.196 405.289 212.698C404.959 213.2 404.781 213.776 404.754 214.426C404.727 215.076 404.823 215.737 405.039 216.41C405.256 217.083 405.565 217.673 405.965 218.181C406.365 218.688 406.845 219.047 407.404 219.257C407.964 219.468 408.589 219.461 409.279 219.239ZM416.176 211.633L418.128 217.688L416.581 218.186L413.336 208.121L414.83 207.639L415.337 209.212L415.468 209.17C415.539 208.582 415.765 208.056 416.146 207.591C416.525 207.122 417.094 206.764 417.855 206.519C418.536 206.299 419.177 206.247 419.779 206.362C420.379 206.472 420.911 206.763 421.377 207.235C421.841 207.703 422.212 208.365 422.488 209.221L424.55 215.617L423.003 216.116L420.975 209.825C420.72 209.034 420.316 208.484 419.763 208.175C419.209 207.862 418.573 207.821 417.857 208.052C417.363 208.211 416.956 208.461 416.637 208.8C416.321 209.138 416.118 209.548 416.028 210.031C415.938 210.513 415.987 211.047 416.176 211.633ZM267.17 285.321L266.832 284.273L273.886 277.252L274.427 278.93L268.958 284.137L268.977 284.015L269.061 284.277L268.975 284.189L276.455 285.221L276.996 286.898L267.17 285.321ZM280.624 270.681L281.48 288.144L280.064 288.6L279.208 271.138L280.624 270.681ZM287.197 284.072L282.87 270.652L287.562 269.139C288.496 268.837 289.32 268.75 290.031 268.878C290.741 269.001 291.332 269.285 291.804 269.731C292.274 270.173 292.615 270.721 292.826 271.377C293.012 271.953 293.063 272.463 292.979 272.904C292.899 273.345 292.728 273.728 292.467 274.053C292.21 274.378 291.906 274.654 291.555 274.883L291.597 275.014C292.016 274.908 292.476 274.919 292.975 275.047C293.475 275.175 293.943 275.439 294.381 275.838C294.818 276.237 295.151 276.791 295.379 277.498C295.596 278.171 295.638 278.826 295.506 279.462C295.373 280.098 295.028 280.679 294.469 281.206C293.911 281.734 293.103 282.168 292.046 282.509L287.197 284.072ZM288.357 282.107L291.581 281.067C292.643 280.725 293.33 280.276 293.644 279.722C293.96 279.162 294.023 278.587 293.833 277.997C293.686 277.543 293.435 277.161 293.08 276.851C292.723 276.537 292.293 276.333 291.79 276.239C291.286 276.142 290.741 276.187 290.156 276.376L286.853 277.441L288.357 282.107ZM286.396 276.025L289.411 275.053C289.9 274.896 290.31 274.657 290.642 274.338C290.977 274.018 291.204 273.645 291.323 273.221C291.446 272.796 291.432 272.347 291.28 271.875C291.09 271.285 290.723 270.851 290.18 270.573C289.635 270.291 288.918 270.293 288.026 270.58L284.96 271.569L286.396 276.025ZM304.006 274.109L302.087 268.159L303.634 267.66L306.879 277.726L305.333 278.224L304.783 276.521L304.678 276.554C304.607 277.142 304.38 277.695 303.998 278.214C303.614 278.728 303.042 279.108 302.282 279.353C301.653 279.556 301.049 279.598 300.471 279.481C299.892 279.359 299.372 279.064 298.912 278.595C298.451 278.121 298.082 277.456 297.806 276.6L295.744 270.204L297.29 269.706L299.319 275.997C299.555 276.731 299.949 277.25 300.501 277.554C301.057 277.857 301.656 277.905 302.298 277.698C302.683 277.574 303.042 277.35 303.376 277.025C303.715 276.699 303.954 276.289 304.094 275.795C304.238 275.3 304.208 274.738 304.006 274.109ZM310.844 265.335L311.266 266.646L306.05 268.328L305.627 267.017L310.844 265.335ZM306.37 264.116L307.917 263.617L311.01 273.211C311.151 273.648 311.32 273.955 311.517 274.132C311.717 274.304 311.93 274.395 312.154 274.404C312.382 274.408 312.61 274.373 312.837 274.3C313.007 274.245 313.144 274.191 313.248 274.138C313.35 274.081 313.432 274.036 313.493 274.002L314.256 275.289C314.164 275.362 314.03 275.449 313.855 275.549C313.681 275.653 313.45 275.752 313.162 275.845C312.725 275.986 312.266 276.03 311.786 275.977C311.311 275.923 310.873 275.748 310.474 275.453C310.079 275.155 309.787 274.714 309.599 274.129L306.37 264.116ZM317.547 263.174L317.97 264.484L312.754 266.166L312.331 264.856L317.547 263.174ZM313.074 261.954L314.62 261.455L317.714 271.049C317.855 271.486 318.024 271.793 318.221 271.971C318.421 272.143 318.633 272.233 318.858 272.243C319.086 272.246 319.314 272.212 319.541 272.138C319.711 272.083 319.848 272.03 319.952 271.977C320.054 271.92 320.136 271.874 320.197 271.84L320.959 273.128C320.867 273.201 320.734 273.287 320.558 273.387C320.385 273.492 320.154 273.59 319.865 273.683C319.428 273.824 318.97 273.868 318.49 273.816C318.014 273.761 317.577 273.587 317.178 273.291C316.783 272.994 316.491 272.553 316.302 271.967L313.074 261.954ZM327.168 271.415C326.259 271.708 325.392 271.749 324.567 271.538C323.746 271.325 323.018 270.892 322.383 270.238C321.752 269.583 321.269 268.736 320.933 267.696C320.595 266.647 320.49 265.671 320.618 264.766C320.75 263.86 321.088 263.081 321.63 262.429C322.176 261.775 322.904 261.302 323.812 261.009C324.721 260.716 325.586 260.676 326.407 260.889C327.232 261.1 327.961 261.535 328.593 262.195C329.23 262.853 329.717 263.706 330.055 264.755C330.391 265.794 330.491 266.765 330.358 267.667C330.228 268.567 329.89 269.344 329.344 269.997C328.802 270.65 328.077 271.122 327.168 271.415ZM326.72 270.026C327.41 269.803 327.921 269.443 328.253 268.946C328.584 268.448 328.764 267.877 328.792 267.231C328.82 266.585 328.726 265.926 328.509 265.253C328.292 264.58 327.983 263.988 327.581 263.476C327.18 262.964 326.698 262.601 326.137 262.386C325.576 262.172 324.951 262.176 324.26 262.398C323.57 262.621 323.06 262.983 322.73 263.485C322.4 263.987 322.221 264.563 322.195 265.213C322.168 265.863 322.263 266.524 322.48 267.197C322.697 267.87 323.005 268.46 323.405 268.968C323.805 269.476 324.285 269.834 324.845 270.045C325.405 270.255 326.03 270.249 326.72 270.026ZM333.616 262.42L335.568 268.475L334.022 268.974L330.776 258.908L332.27 258.426L332.778 259.999L332.909 259.957C332.98 259.37 333.205 258.844 333.586 258.378C333.965 257.909 334.535 257.552 335.295 257.306C335.976 257.087 336.618 257.034 337.219 257.149C337.819 257.259 338.352 257.551 338.818 258.023C339.282 258.49 339.652 259.152 339.928 260.008L341.99 266.404L340.444 266.903L338.415 260.612C338.16 259.821 337.756 259.271 337.204 258.963C336.649 258.649 336.014 258.608 335.297 258.839C334.804 258.999 334.397 259.248 334.077 259.587C333.762 259.925 333.559 260.336 333.468 260.818C333.378 261.301 333.427 261.835 333.616 262.42ZM352.181 257.91L345.127 264.93L344.586 263.252L350.054 258.045L350.036 258.167L349.951 257.905L350.038 257.993L342.557 256.961L342.016 255.284L351.843 256.861L352.181 257.91Z" fill="#1CB5E0"/>
<path d="M202.042 216.072L527.116 111.253L202.042 216.072ZM564.159 226.132L239.085 330.952L564.159 226.132ZM248.311 327.976C239.818 330.715 230.713 326.05 227.975 317.557L200.849 233.433C198.111 224.94 202.776 215.835 211.269 213.097L211.269 213.097C209.57 213.645 209.525 218.22 211.168 223.315L242.261 319.741C243.904 324.837 246.613 328.524 248.311 327.976L248.311 327.976ZM527.116 111.253L564.159 226.132L527.116 111.253Z" fill="#1CB5E0" mask="url(#path-4-inside-1_6_189)"/>
</g>
</g>
<g opacity="0.5">
<g filter="url(#filter1_f_6_189)">
<circle cx="559.598" cy="366.18" r="118.063" transform="rotate(-15 559.598 366.18)" fill="#A223E6"/>
</g>
<circle opacity="0.2" cx="564.603" cy="384.861" r="118.063" transform="rotate(-15 564.603 384.861)" fill="#000046"/>
<g filter="url(#filter2_i_6_189)">
<circle cx="569.953" cy="388.316" r="116.039" transform="rotate(-15 569.953 388.316)" fill="url(#paint5_linear_6_189)"/>
</g>
<path opacity="0.4" fill-rule="evenodd" clip-rule="evenodd" d="M658.79 313.62C630.688 280.243 584.849 264.192 539.919 276.231C478.016 292.818 441.28 356.446 457.867 418.349C468.84 459.302 500.402 489.24 538.433 500.011C497.13 490.587 462.29 459.185 450.563 415.418C433.686 352.435 471.063 287.696 534.046 270.82C581.846 258.012 630.657 276.453 658.79 313.62Z" fill="url(#paint6_linear_6_189)"/>
<g filter="url(#filter3_f_6_189)">
<path fill-rule="evenodd" clip-rule="evenodd" d="M565.904 344.655C568.71 339.678 575.02 337.919 579.996 340.726L625.053 366.136C627.474 367.502 629.244 369.784 629.964 372.469C630.683 375.154 630.292 378.016 628.877 380.409L602.562 424.943C599.656 429.862 593.312 431.493 588.394 428.587C583.475 425.681 581.844 419.337 584.75 414.418L598.177 391.696L522.728 411.912C517.209 413.391 511.537 410.116 510.058 404.598C508.579 399.079 511.854 393.407 517.373 391.928L592.822 371.712L569.833 358.747C564.857 355.94 563.097 349.631 565.904 344.655Z" fill="url(#paint7_linear_6_189)"/>
</g>
<g filter="url(#filter4_i_6_189)">
<path fill-rule="evenodd" clip-rule="evenodd" d="M565.904 344.655C568.71 339.678 575.02 337.919 579.996 340.726L625.053 366.136C627.474 367.502 629.244 369.784 629.964 372.469C630.683 375.154 630.292 378.016 628.877 380.409L602.562 424.943C599.656 429.862 593.312 431.493 588.394 428.587C583.475 425.681 581.844 419.337 584.75 414.418L598.177 391.696L522.728 411.912C517.209 413.391 511.537 410.116 510.058 404.598C508.579 399.079 511.854 393.407 517.373 391.928L592.822 371.712L569.833 358.747C564.857 355.94 563.097 349.631 565.904 344.655Z" fill="url(#paint8_linear_6_189)"/>
</g>
<g filter="url(#filter5_d_6_189)">
<path fill-rule="evenodd" clip-rule="evenodd" d="M565.904 344.655C568.71 339.678 575.02 337.919 579.996 340.726L625.053 366.136C627.474 367.502 629.244 369.784 629.964 372.469C630.683 375.154 630.292 378.016 628.877 380.409L602.562 424.943C599.656 429.862 593.312 431.493 588.394 428.587C583.475 425.681 581.844 419.337 584.75 414.418L598.177 391.696L522.728 411.912C517.209 413.391 511.537 410.116 510.058 404.598C508.579 399.079 511.854 393.407 517.373 391.928L592.822 371.712L569.833 358.747C564.857 355.94 563.097 349.631 565.904 344.655Z" fill="url(#paint9_linear_6_189)" shape-rendering="crispEdges"/>
</g>
<path d="M572.132 347.432C567.931 350.987 567.958 355.915 568.496 357.935C562.357 353.411 564.053 345.817 567.285 342.585C571.809 338.061 577.787 339.623 580.211 340.97L626.26 366.822C630.784 370.699 630.838 374.9 630.299 376.516C630.622 374.577 628.549 372.477 627.471 371.669L585.866 348.241C583.442 347.029 577.383 342.989 572.132 347.432Z" fill="url(#paint10_linear_6_189)"/>
<path d="M525.275 397.117C516.388 399.137 513.965 402.772 513.561 410.043C504.27 401.964 511.541 392.674 518.812 391.462L593.137 372.073L600.811 376.112L525.275 397.117Z" fill="url(#paint11_linear_6_189)"/>
<path d="M605.255 390.25L597.984 391.866L584.654 414.486C581.019 421.353 585.327 427.143 587.885 428.22C586.27 426.604 587.212 422.026 587.885 420.141L605.255 390.25Z" fill="url(#paint12_linear_6_189)"/>
<path d="M327.5 302L377.403 436.228C380.684 445.052 389.596 450.468 398.94 449.316V449.316C400.475 449.127 401.983 448.763 403.436 448.232L452.5 430.282" stroke="url(#paint13_linear_6_189)" stroke-opacity="0.5" stroke-width="3.2315" stroke-linecap="round" stroke-linejoin="round"/>
</g>
</g>
<defs>
<filter id="filter0_d_6_189" x="161.648" y="96.7108" width="442.905" height="300.487" filterUnits="userSpaceOnUse" color-interpolation-filters="sRGB">
<feFlood flood-opacity="0" result="BackgroundImageFix"/>
<feColorMatrix in="SourceAlpha" type="matrix" values="0 0 0 0 0 0 0 0 0 0 0 0 0 0 0 0 0 0 127 0" result="hardAlpha"/>
<feOffset dy="25.852"/>
<feGaussianBlur stdDeviation="20.1969"/>
<feComposite in2="hardAlpha" operator="out"/>
<feColorMatrix type="matrix" values="0 0 0 0 0.0156863 0 0 0 0 0.105882 0 0 0 0 0.364706 0 0 0 0.1 0"/>
<feBlend mode="normal" in2="BackgroundImageFix" result="effect1_dropShadow_6_189"/>
<feBlend mode="normal" in="SourceGraphic" in2="effect1_dropShadow_6_189" result="shape"/>
</filter>
<filter id="filter1_f_6_189" x="320.323" y="126.906" width="478.548" height="478.548" filterUnits="userSpaceOnUse" color-interpolation-filters="sRGB">
<feFlood flood-opacity="0" result="BackgroundImageFix"/>
<feBlend mode="normal" in="SourceGraphic" in2="BackgroundImageFix" result="shape"/>
<feGaussianBlur stdDeviation="60.5907" result="effect1_foregroundBlur_6_189"/>
</filter>
<filter id="filter2_i_6_189" x="453.884" y="272.248" width="257.989" height="235.368" filterUnits="userSpaceOnUse" color-interpolation-filters="sRGB">
<feFlood flood-opacity="0" result="BackgroundImageFix"/>
<feBlend mode="normal" in="SourceGraphic" in2="BackgroundImageFix" result="shape"/>
<feColorMatrix in="SourceAlpha" type="matrix" values="0 0 0 0 0 0 0 0 0 0 0 0 0 0 0 0 0 0 127 0" result="hardAlpha"/>
<feOffset dx="25.852" dy="3.2315"/>
<feGaussianBlur stdDeviation="22.6205"/>
<feComposite in2="hardAlpha" operator="arithmetic" k2="-1" k3="1"/>
<feColorMatrix type="matrix" values="0 0 0 0 0.163994 0 0 0 0 0.114722 0 0 0 0 0.466667 0 0 0 0.8 0"/>
<feBlend mode="normal" in2="shape" result="effect1_innerShadow_6_189"/>
</filter>
<filter id="filter3_f_6_189" x="487.215" y="316.901" width="165.59" height="135.614" filterUnits="userSpaceOnUse" color-interpolation-filters="sRGB">
<feFlood flood-opacity="0" result="BackgroundImageFix"/>
<feBlend mode="normal" in="SourceGraphic" in2="BackgroundImageFix" result="shape"/>
<feGaussianBlur stdDeviation="11.2441" result="effect1_foregroundBlur_6_189"/>
</filter>
<filter id="filter4_i_6_189" x="509.703" y="339.39" width="120.613" height="92.4365" filterUnits="userSpaceOnUse" color-interpolation-filters="sRGB">
<feFlood flood-opacity="0" result="BackgroundImageFix"/>
<feBlend mode="normal" in="SourceGraphic" in2="BackgroundImageFix" result="shape"/>
<feColorMatrix in="SourceAlpha" type="matrix" values="0 0 0 0 0 0 0 0 0 0 0 0 0 0 0 0 0 0 127 0" result="hardAlpha"/>
<feOffset dy="3.59812"/>
<feGaussianBlur stdDeviation="0.899531"/>
<feComposite in2="hardAlpha" operator="arithmetic" k2="-1" k3="1"/>
<feColorMatrix type="matrix" values="0 0 0 0 0.848333 0 0 0 0 0.416667 0 0 0 0 1 0 0 0 0.25 0"/>
<feBlend mode="normal" in2="shape" result="effect1_innerShadow_6_189"/>
</filter>
<filter id="filter5_d_6_189" x="490.314" y="323.232" width="159.391" height="129.415" filterUnits="userSpaceOnUse" color-interpolation-filters="sRGB">
<feFlood flood-opacity="0" result="BackgroundImageFix"/>
<feColorMatrix in="SourceAlpha" type="matrix" values="0 0 0 0 0 0 0 0 0 0 0 0 0 0 0 0 0 0 127 0" result="hardAlpha"/>
<feOffset dy="3.2315"/>
<feGaussianBlur stdDeviation="9.69451"/>
<feComposite in2="hardAlpha" operator="out"/>
<feColorMatrix type="matrix" values="0 0 0 0 0 0 0 0 0 0 0 0 0 0 0 0 0 0 0.25 0"/>
<feBlend mode="normal" in2="BackgroundImageFix" result="effect1_dropShadow_6_189"/>
<feBlend mode="normal" in="SourceGraphic" in2="effect1_dropShadow_6_189" result="shape"/>
</filter>
<linearGradient id="paint0_linear_6_189" x1="716.512" y1="105.211" x2="616.215" y2="457.385" gradientUnits="userSpaceOnUse">
<stop stop-color="#041A5C"/>
<stop offset="0.608046" stop-color="#1693C3" stop-opacity="0.5"/>
<stop offset="0.990321" stop-color="#1693C3" stop-opacity="0"/>
</linearGradient>
<linearGradient id="paint1_linear_6_189" x1="607" y1="233.5" x2="461.5" y2="538.5" gradientUnits="userSpaceOnUse">
<stop stop-color="#C0DAE1"/>
<stop offset="0.205783" stop-color="#C0DAE1" stop-opacity="0"/>
<stop offset="0.658021" stop-color="#C0DAE1" stop-opacity="0"/>
</linearGradient>
<linearGradient id="paint2_linear_6_189" x1="582.572" y1="22.9821" x2="499.5" y2="478" gradientUnits="userSpaceOnUse">
<stop stop-color="#041A5C"/>
<stop offset="0.659638" stop-color="#1585B7"/>
<stop offset="1" stop-color="#1693C3" stop-opacity="0"/>
</linearGradient>
<linearGradient id="paint3_linear_6_189" x1="200.872" y1="150.59" x2="444.5" y2="460" gradientUnits="userSpaceOnUse">
<stop stop-color="#C0DAE1" stop-opacity="0.2"/>
<stop offset="0.34626" stop-color="#C0DAE1"/>
<stop offset="0.813074" stop-color="#C0DAE1" stop-opacity="0"/>
</linearGradient>
<linearGradient id="paint4_linear_6_189" x1="479.848" y1="152.826" x2="352.444" y2="298.351" gradientUnits="userSpaceOnUse">
<stop stop-color="#1CB5E0"/>
<stop offset="1" stop-color="#1CB5E0" stop-opacity="0"/>
</linearGradient>
<linearGradient id="paint5_linear_6_189" x1="625.877" y1="376.866" x2="462.343" y2="440.94" gradientUnits="userSpaceOnUse">
<stop stop-color="#343485"/>
<stop offset="1" stop-color="#343485" stop-opacity="0.6"/>
</linearGradient>
<linearGradient id="paint6_linear_6_189" x1="461.969" y1="347.639" x2="570.753" y2="270.531" gradientUnits="userSpaceOnUse">
<stop stop-color="#8CD6EB" stop-opacity="0"/>
<stop offset="0.369792" stop-color="white"/>
<stop offset="1" stop-color="#8CD6EB" stop-opacity="0"/>
</linearGradient>
<linearGradient id="paint7_linear_6_189" x1="714.955" y1="349.929" x2="497.601" y2="429.355" gradientUnits="userSpaceOnUse">
<stop stop-color="#CC00FF"/>
<stop offset="1" stop-color="#A32FEB" stop-opacity="0"/>
</linearGradient>
<linearGradient id="paint8_linear_6_189" x1="714.955" y1="349.929" x2="497.601" y2="429.355" gradientUnits="userSpaceOnUse">
<stop stop-color="#CC00FF"/>
<stop offset="1" stop-color="#A32FEB" stop-opacity="0"/>
</linearGradient>
<linearGradient id="paint9_linear_6_189" x1="714.955" y1="349.929" x2="497.601" y2="429.355" gradientUnits="userSpaceOnUse">
<stop stop-color="#A32FEB"/>
<stop offset="1" stop-color="#A32FEB" stop-opacity="0"/>
</linearGradient>
<linearGradient id="paint10_linear_6_189" x1="630.703" y1="370.053" x2="564.457" y2="353.088" gradientUnits="userSpaceOnUse">
<stop stop-color="#772ABE"/>
<stop offset="0.417702" stop-color="#9228D8"/>
<stop offset="0.851849" stop-color="#9272C5"/>
<stop offset="1" stop-color="#AD84ED"/>
</linearGradient>
<linearGradient id="paint11_linear_6_189" x1="595.56" y1="376.516" x2="509.521" y2="404.388" gradientUnits="userSpaceOnUse">
<stop stop-color="#7626BE"/>
<stop offset="0.151042" stop-color="#9374C6"/>
<stop offset="0.619792" stop-color="#9374C6"/>
<stop offset="1" stop-color="#7C37C0"/>
</linearGradient>
<linearGradient id="paint12_linear_6_189" x1="603.639" y1="390.654" x2="588.289" y2="427.008" gradientUnits="userSpaceOnUse">
<stop offset="0.09375" stop-color="#7626BE"/>
<stop offset="0.395833" stop-color="#9374C6"/>
<stop offset="0.885417" stop-color="#8E28D5"/>
</linearGradient>
<linearGradient id="paint13_linear_6_189" x1="439.5" y1="436" x2="450.46" y2="427.512" gradientUnits="userSpaceOnUse">
<stop offset="0.390558" stop-color="#1CB5E0"/>
<stop offset="1" stop-color="#1CB5E0" stop-opacity="0"/>
</linearGradient>
<clipPath id="clip0_6_189">
<rect width="802" height="584" fill="white"/>
</clipPath>
</defs>
</svg>
