<svg width="121" height="32" viewBox="0 0 121 32" fill="none" xmlns="http://www.w3.org/2000/svg">
<ellipse cx="60.3749" cy="15.7143" rx="58.083" ry="14.9186" fill="#10649B"/>
<path d="M60.3881 0C62.2463 0.0243266 64.1045 0.0355543 65.9626 0.0767223C67.4204 0.108534 68.88 0.168415 70.3377 0.226424C71.2976 0.265721 72.2557 0.316246 73.2138 0.374255C74.1345 0.430394 75.0552 0.501502 75.974 0.566997C76.7824 0.625006 77.5908 0.677402 78.3991 0.742897C79.0822 0.799035 79.7633 0.870144 80.4463 0.935638C81.0545 0.993648 81.6626 1.04791 82.2708 1.11154C82.8528 1.17142 83.4347 1.24066 84.0167 1.30802C84.5126 1.36416 85.0066 1.4203 85.5025 1.48205C86.1706 1.56439 86.8386 1.64485 87.5048 1.73467C88.1092 1.81701 88.7136 1.9087 89.3162 1.99852C90.0441 2.10706 90.772 2.20624 91.4962 2.326C92.4431 2.48318 93.3881 2.64411 94.3293 2.82376C95.7477 3.09509 97.168 3.36643 98.579 3.67144C100.819 4.15611 103.04 4.71936 105.237 5.37805C107.78 6.14153 110.282 7.02103 112.69 8.15128C113.944 8.74073 115.16 9.39568 116.309 10.176C117.106 10.7168 117.859 11.31 118.531 12.0024C119.098 12.5881 119.592 13.2281 119.947 13.9672C120.243 14.581 120.417 15.2266 120.432 15.9115C120.45 16.7292 120.241 17.4908 119.869 18.2113C119.47 18.9841 118.924 19.6465 118.302 20.2491C117.31 21.2091 116.18 21.9838 114.99 22.6724C113.196 23.7128 111.3 24.538 109.361 25.266C106.803 26.2241 104.187 26.9913 101.541 27.6575C99.4154 28.1927 97.2728 28.6567 95.1171 29.0609C93.7455 29.3173 92.3701 29.5456 90.9928 29.7664C89.799 29.9573 88.6032 30.1257 87.4056 30.2904C86.3072 30.4419 85.2068 30.586 84.1065 30.7133C83.0418 30.8368 81.9752 30.9397 80.9085 31.0407C79.767 31.1493 78.6237 31.2503 77.4822 31.342C76.4268 31.4262 75.3695 31.5029 74.3104 31.5666C72.9294 31.6489 71.5465 31.7144 70.1637 31.7911C68.3822 31.8884 66.5989 31.9371 64.8174 31.9614C62.6355 31.9895 60.4517 32.0044 58.2698 31.9988C56.7354 31.9951 55.2028 31.9558 53.6684 31.9165C52.7215 31.8922 51.7746 31.8416 50.8278 31.8023C50.068 31.7705 49.3083 31.7406 48.5485 31.7013C47.888 31.6676 47.2293 31.6208 46.5706 31.5797C46.1477 31.5535 45.7248 31.5235 45.3019 31.4955C44.4692 31.4374 43.6346 31.3851 42.8018 31.3196C42.1057 31.2653 41.4115 31.1923 40.7172 31.1287C40.0848 31.0707 39.4504 31.0145 38.8179 30.9509C38.2472 30.8929 37.6783 30.8274 37.1076 30.7638C36.5873 30.7058 36.0671 30.6459 35.5469 30.5823C34.8658 30.4999 34.1865 30.4157 33.5072 30.3259C32.8897 30.2436 32.274 30.1538 31.6565 30.0621C30.9286 29.9554 30.2007 29.8543 29.4765 29.7365C28.5296 29.5811 27.5865 29.409 26.6415 29.2462C25.0827 28.9767 23.5333 28.6605 21.9876 28.3199C20.0303 27.8876 18.0842 27.4011 16.1586 26.8416C13.537 26.08 10.9546 25.2024 8.46579 24.0684C6.90889 23.3591 5.40251 22.5582 4.00841 21.5571C3.3385 21.0762 2.70601 20.5504 2.13714 19.9516C1.61879 19.407 1.16407 18.8157 0.829115 18.1383C0.121773 16.7086 0.129258 15.2827 0.840343 13.8587C1.19589 13.1495 1.68242 12.5338 2.23444 11.9706C3.02412 11.164 3.92046 10.4904 4.86733 9.88408C6.29886 8.96716 7.81833 8.21865 9.38085 7.55247C11.7892 6.52327 14.2724 5.70739 16.7948 5.00005C19.3267 4.29084 21.8847 3.69577 24.4633 3.18678C25.9791 2.88738 27.4967 2.60482 29.0236 2.36717C30.2662 2.17442 31.5087 1.9742 32.755 1.7983C33.8291 1.64672 34.9051 1.51948 35.981 1.3941C37.1207 1.26124 38.2603 1.13961 39.3999 1.02172C40.3411 0.924411 41.2842 0.830847 42.2292 0.750382C43.0358 0.681145 43.846 0.63062 44.6544 0.572611C45.5751 0.507116 46.4939 0.43975 47.4145 0.377998C47.9254 0.344315 48.4363 0.319988 48.9453 0.29379C49.4187 0.269464 49.8921 0.243266 50.3655 0.226424C51.2993 0.19087 52.2349 0.155316 53.1706 0.130989C54.7406 0.0916926 56.3125 0.0598809 57.8843 0.0299404C58.7171 0.0149702 59.5535 0.00935638 60.3881 0ZM25.588 13.4526C25.4907 13.4395 25.442 13.4283 25.3934 13.4283C24.5962 13.4283 23.7972 13.4208 23 13.4358C22.7418 13.4414 22.4779 13.4863 22.2272 13.5499C21.3102 13.782 20.6272 14.3321 20.1332 15.1293C19.8095 15.6532 19.6036 16.2258 19.4595 16.8228C19.3267 17.3729 19.2556 17.9268 19.3136 18.4901C19.3997 19.3378 19.8731 19.9197 20.659 20.1462C20.9491 20.2285 21.241 20.2753 21.5441 20.2753C22.2683 20.2734 22.9906 20.2753 23.7148 20.2734C23.799 20.2734 23.8832 20.2566 23.9862 20.2472C24.1134 19.785 24.2294 19.3303 24.3136 18.8363C24.177 18.8288 24.0685 18.8157 23.96 18.8157C23.3743 18.8138 22.7885 18.8213 22.201 18.8119C21.9652 18.8082 21.7275 18.7783 21.4955 18.7371C21.3065 18.7034 21.1306 18.6117 21.0763 18.4077C21.0052 18.1402 21.0033 17.8707 21.1325 17.5881C22.2328 17.5881 23.3293 17.5881 24.424 17.5881C24.4839 17.5881 24.5419 17.6012 24.6224 17.6106C24.6261 17.7491 24.6243 17.8707 24.6355 17.9923C24.6561 18.2281 24.6598 18.4676 24.7103 18.6959C24.89 19.4987 25.369 20.0245 26.1868 20.2004C26.3926 20.2453 26.606 20.2697 26.8155 20.2715C27.7512 20.279 28.6868 20.2753 29.6206 20.2734C29.7179 20.2734 29.8152 20.2584 29.92 20.2491C29.9424 20.178 29.9649 20.12 29.978 20.062C30.6835 17.0791 31.3889 14.0982 32.0925 11.1154C32.1 11.0798 32.0944 11.0424 32.0944 11.0069C31.7894 10.9414 30.8294 10.9432 30.5207 11.0125C30.5019 11.0723 30.4757 11.1416 30.4589 11.2127C30.3111 11.8302 30.1632 12.4477 30.0173 13.0671C29.9892 13.1869 29.9705 13.3085 29.8882 13.4245C29.746 13.4245 29.6112 13.4245 29.4746 13.4245C29.0386 13.4264 28.6007 13.4171 28.1647 13.4358C27.3881 13.4713 26.7107 13.752 26.1512 14.2984C25.7283 14.712 25.3915 15.1892 25.1464 15.7281C25.0902 15.8516 25.0341 15.977 24.9779 16.1005C24.9349 16.108 24.8975 16.121 24.8619 16.121C23.7766 16.121 22.6912 16.121 21.6078 16.1192C21.5647 16.1192 21.5198 16.0986 21.4656 16.0855C21.488 15.9021 21.5535 15.7561 21.6227 15.6102C21.8024 15.2341 22.0943 15.0039 22.5097 14.9478C22.7305 14.9178 22.9551 14.8897 23.1778 14.886C23.7392 14.8766 24.3005 14.8841 24.8619 14.8823C24.9854 14.8823 25.1071 14.8785 25.2437 14.8748C25.3934 14.4088 25.4944 13.9504 25.588 13.4526ZM84.0504 13.4264C84.0186 13.5349 83.9943 13.6042 83.9774 13.6753C83.6574 15.0207 83.3374 16.3643 83.0174 17.7098C82.8509 18.4134 82.6806 19.1151 82.5197 19.8187C82.4879 19.9572 82.4243 20.0975 82.4617 20.2416C82.8846 20.2977 83.7772 20.2884 84.0504 20.2248C84.0822 20.1125 84.1196 19.9946 84.1477 19.8748C84.5032 18.3722 84.8569 16.8696 85.2125 15.3651C85.2443 15.2341 85.2854 15.1068 85.3191 14.9871C85.8094 14.9272 86.7937 14.9421 87.0575 15.0133C87.0407 15.1087 87.0276 15.2041 87.0051 15.2996C86.6384 16.8639 86.2679 18.4265 85.9011 19.9909C85.8824 20.0694 85.8824 20.1537 85.8749 20.2322C86.2978 20.3015 87.2391 20.2884 87.4935 20.2117C87.5235 20.1087 87.5572 20.0021 87.5815 19.8935C87.9389 18.3778 88.2963 16.8639 88.6537 15.3482C88.6837 15.2191 88.7024 15.0825 88.7866 14.9571C89.1178 14.9571 89.4415 14.9421 89.7634 14.9609C90.3566 14.9945 90.467 15.2228 90.3903 15.7281C90.3529 15.9732 90.2948 16.2165 90.2387 16.4597C89.9655 17.6237 89.6867 18.7857 89.4135 19.9497C89.391 20.0414 89.3891 20.1387 89.3779 20.2304C89.7484 20.2959 90.6822 20.2884 90.9704 20.221C90.9947 20.1462 91.0246 20.0657 91.0452 19.9815C91.1856 19.3995 91.3241 18.8194 91.4607 18.2375C91.6571 17.401 91.8555 16.5645 92.0445 15.7262C92.1306 15.3482 92.1605 14.9627 92.0969 14.5754C92.0276 14.1525 91.8087 13.8362 91.4139 13.6566C91.2791 13.5948 91.135 13.5518 90.9928 13.5087C90.714 13.4264 90.4277 13.4227 90.1395 13.4227C88.2327 13.4227 86.324 13.4227 84.4172 13.4227C84.3086 13.4264 84.1982 13.4264 84.0504 13.4264ZM59.6171 10.9732C59.4599 10.9676 59.3364 10.9619 59.2129 10.9601C58.4158 10.9582 57.6167 10.9619 56.8196 10.9582C56.4696 10.9563 56.1216 10.9769 55.7773 11.0405C54.9352 11.1977 54.1942 11.5495 53.5804 12.1577C53.1051 12.6292 52.7514 13.1831 52.4726 13.7876C52.1208 14.5492 51.8869 15.3482 51.7222 16.1697C51.6193 16.6843 51.5538 17.2026 51.58 17.7285C51.5987 18.0915 51.6549 18.4489 51.7952 18.7857C52.1189 19.5679 52.6822 20.0601 53.5336 20.2042C53.8424 20.2566 54.153 20.2715 54.4636 20.2715C55.3244 20.2715 56.1833 20.2715 57.0441 20.2715C57.1676 20.2715 57.2911 20.2678 57.4277 20.2659C57.5962 19.8075 57.6617 19.3359 57.7833 18.8831C57.802 18.8138 57.7945 18.739 57.8001 18.6491C57.701 18.636 57.6186 18.6155 57.5344 18.6136C57.2855 18.6098 57.0367 18.6117 56.7859 18.6117C56.1253 18.6098 55.4648 18.608 54.8042 18.6061C54.5647 18.6061 54.3345 18.5556 54.1137 18.4639C53.8274 18.346 53.6365 18.1364 53.5692 17.8408C53.4588 17.358 53.5074 16.8827 53.659 16.3999C53.8143 16.3961 53.949 16.3886 54.0856 16.3886C55.3824 16.3886 56.6792 16.3886 57.976 16.3868C58.1089 16.3868 58.2511 16.4223 58.3896 16.3175C58.4962 15.8703 58.6067 15.4118 58.7114 14.9496C58.7264 14.8841 58.7133 14.8112 58.7114 14.7269C58.1763 14.6951 57.6654 14.7157 57.1564 14.712C56.6455 14.7082 56.1347 14.712 55.622 14.7101C55.113 14.7082 54.604 14.7157 54.0875 14.7045C54.0875 14.6427 54.0782 14.6034 54.0894 14.5698C54.2054 14.1992 54.3626 13.8474 54.5872 13.5293C54.9184 13.0596 55.3656 12.7621 55.9326 12.6611C56.116 12.6274 56.305 12.6236 56.4902 12.6236C57.2387 12.6199 57.9873 12.6218 58.7339 12.6218C58.8462 12.6218 58.9584 12.6255 59.0707 12.6199C59.2279 12.6124 59.2691 12.5843 59.3046 12.4328C59.4094 12.0099 59.5067 11.5851 59.6059 11.1603C59.619 11.1154 59.6134 11.0649 59.6171 10.9732ZM13.6885 20.2753C13.8233 20.0339 13.9823 19.4613 14.0927 18.825C14.1021 18.7689 14.0852 18.709 14.0778 18.6267C13.9262 18.6211 13.7914 18.6136 13.6567 18.6136C12.8839 18.6117 12.111 18.6136 11.3382 18.6117C11.1024 18.6117 10.8666 18.6042 10.6346 18.535C10.1406 18.3853 9.86738 18.0821 9.83557 17.575C9.81686 17.2775 9.81499 16.9744 9.85615 16.6806C9.96282 15.9264 10.1556 15.191 10.4325 14.4818C10.5691 14.1319 10.7338 13.7988 10.9546 13.4938C11.2484 13.0858 11.6283 12.7864 12.1204 12.6704C12.3842 12.6087 12.6612 12.5825 12.9344 12.5787C13.6829 12.5675 14.4296 12.575 15.1781 12.5731C15.2997 12.5731 15.4232 12.5638 15.5523 12.5581C15.659 12.2999 15.702 12.0417 15.7582 11.789C15.8162 11.5271 15.9228 11.2744 15.9116 10.9788C15.8031 10.9732 15.717 10.9638 15.6309 10.9638C14.7327 10.9638 13.8364 10.9563 12.9381 10.9676C12.6406 10.9713 12.3393 10.9994 12.0474 11.0518C11.2053 11.2052 10.4681 11.5701 9.85802 12.1801C9.39395 12.6442 9.04589 13.1888 8.77456 13.782C8.2899 14.843 7.9961 15.9601 7.8857 17.1222C7.83892 17.6087 7.86886 18.0971 8.01669 18.5649C8.30486 19.4706 8.8887 20.062 9.85802 20.2042C10.1518 20.2472 10.4531 20.2697 10.7506 20.2715C11.6226 20.2809 12.4947 20.2753 13.3685 20.2753C13.4789 20.2753 13.5893 20.2753 13.6885 20.2753ZM37.493 17.968C37.5174 18.1645 37.5286 18.3909 37.5772 18.608C37.7681 19.4725 38.2677 20.0563 39.1379 20.2903C39.4392 20.3707 39.7479 20.4175 40.0623 20.4081C41.0616 20.3782 41.9317 20.0358 42.6615 19.3396C43.3913 18.6435 43.8123 17.7827 44.0331 16.8153C44.1585 16.2651 44.2278 15.7094 44.1117 15.148C43.9284 14.2516 43.4231 13.6397 42.523 13.4002C42.2854 13.3366 42.0328 13.3029 41.7857 13.2973C40.6985 13.273 39.7573 13.6435 38.9807 14.4051C37.9927 15.3725 37.5922 16.5926 37.493 17.968ZM76.3407 17.9774C76.3669 18.1757 76.38 18.4265 76.438 18.6679C76.657 19.5623 77.2146 20.1275 78.1185 20.3277C78.779 20.4736 79.4321 20.4212 80.0721 20.2098C81.0414 19.8898 81.7487 19.248 82.2689 18.389C82.5814 17.8726 82.7798 17.3093 82.9014 16.7199C83.0081 16.2034 83.068 15.6869 82.9632 15.163C82.7817 14.2479 82.2671 13.6341 81.3501 13.3946C81.1237 13.3347 80.8842 13.3029 80.6484 13.2973C79.6342 13.273 78.736 13.5873 77.9762 14.2685C76.8928 15.2434 76.453 16.5084 76.3407 17.9774ZM104.028 13.2674C103.646 13.2917 103.177 13.3665 102.814 13.4882C101.861 13.8082 101.156 14.435 100.634 15.2752C100.185 15.9975 99.9544 16.7966 99.8683 17.6368C99.8234 18.0747 99.8608 18.5107 100.012 18.928C100.258 19.6054 100.718 20.0638 101.414 20.2678C101.762 20.3707 102.119 20.4212 102.484 20.4044C103.485 20.3576 104.348 19.9946 105.063 19.2891C105.692 18.6679 106.09 17.9175 106.317 17.0698C106.483 16.4523 106.573 15.8273 106.468 15.1854C106.32 14.2778 105.722 13.6004 104.838 13.389C104.573 13.3254 104.298 13.3066 104.028 13.2674ZM63.8219 17.8595C63.8331 18.0765 63.8369 18.2262 63.8518 18.3741C63.9529 19.3733 64.6172 20.1368 65.5846 20.3258C66.6494 20.5335 67.6412 20.337 68.5338 19.7064C69.1476 19.2723 69.6041 18.7034 69.9316 18.0298C70.2011 17.4759 70.3714 16.8901 70.4462 16.2801C70.5098 15.758 70.508 15.2341 70.3134 14.7307C70.0607 14.0739 69.6116 13.6173 68.9249 13.4302C68.6629 13.359 68.3878 13.3066 68.1165 13.2992C67.0442 13.2674 66.1105 13.6266 65.3358 14.3714C64.3253 15.337 63.9061 16.5608 63.8219 17.8595ZM50.461 13.4395C50.3337 13.4339 50.2346 13.4264 50.1373 13.4264C49.1137 13.4264 48.0919 13.4264 47.0684 13.4264C46.943 13.4264 46.8176 13.4264 46.6941 13.4395C45.9026 13.5237 45.2626 13.8624 44.8677 14.5754C44.5421 15.163 44.3756 15.7992 44.3849 16.4747C44.3924 17.0024 44.6132 17.2756 45.1222 17.416C45.3898 17.489 45.6612 17.5095 45.9362 17.5095C46.4097 17.5095 46.885 17.5039 47.3584 17.5133C47.5306 17.517 47.7065 17.5432 47.8749 17.5863C48.0545 17.633 48.1331 17.7603 48.1406 17.9493C48.1556 18.3572 47.9198 18.6735 47.5193 18.7614C47.3621 18.7951 47.1993 18.8101 47.0384 18.8119C46.1028 18.8157 45.1671 18.8119 44.2315 18.8157C44.0968 18.8157 43.9564 18.7839 43.8142 18.8718C43.7599 19.0908 43.6944 19.3172 43.6477 19.5492C43.6028 19.7757 43.5036 19.9965 43.5223 20.2603C43.6589 20.2659 43.7805 20.2753 43.904 20.2753C45.0885 20.2772 46.2749 20.2659 47.4595 20.279C48.0358 20.2846 48.5055 20.0751 48.8947 19.6709C49.5141 19.029 49.806 18.2506 49.8004 17.3654C49.7967 16.7255 49.4262 16.2764 48.803 16.1398C48.5729 16.0892 48.3352 16.0687 48.0994 16.063C47.6503 16.0518 47.2012 16.063 46.7521 16.0574C46.6305 16.0556 46.5051 16.0368 46.3872 16.005C46.2544 15.9695 46.187 15.8609 46.1627 15.73C46.1065 15.41 46.3498 15.0282 46.6716 14.959C46.8775 14.9159 47.0908 14.8916 47.3004 14.8897C48.1107 14.8823 48.9228 14.886 49.7331 14.886C49.8678 14.886 50.0044 14.8785 50.1279 14.8748C50.2682 14.5361 50.446 13.7726 50.461 13.4395ZM105.849 20.2566C106.002 20.2641 106.113 20.2753 106.223 20.2753C107.421 20.2772 108.618 20.2678 109.816 20.2809C110.362 20.2865 110.817 20.0956 111.195 19.7195C111.85 19.0721 112.153 18.2693 112.148 17.358C112.144 16.718 111.762 16.2708 111.139 16.1398C110.909 16.0911 110.669 16.0705 110.435 16.0649C109.986 16.0537 109.537 16.0649 109.088 16.0593C108.966 16.0574 108.841 16.035 108.723 16.0013C108.59 15.9639 108.527 15.8516 108.506 15.7206C108.457 15.3931 108.699 15.0264 109.026 14.959C109.232 14.9159 109.445 14.8935 109.657 14.8916C110.467 14.8841 111.279 14.8897 112.09 14.8879C112.224 14.8879 112.365 14.9141 112.514 14.8392C112.63 14.3976 112.756 13.9448 112.821 13.4844C112.687 13.4021 112.557 13.4302 112.436 13.4302C111.45 13.4283 110.465 13.4283 109.479 13.4302C109.329 13.4302 109.178 13.4283 109.03 13.4451C108.272 13.5312 107.643 13.8418 107.245 14.523C106.891 15.1293 106.721 15.788 106.73 16.4878C106.738 17.0155 106.964 17.2869 107.473 17.4253C107.741 17.4983 108.014 17.517 108.289 17.517C108.751 17.517 109.212 17.5114 109.674 17.5208C109.859 17.5245 110.046 17.5544 110.228 17.5937C110.355 17.6218 110.443 17.7172 110.473 17.8501C110.555 18.2075 110.318 18.6454 109.964 18.7427C109.775 18.7951 109.571 18.8138 109.374 18.8157C108.426 18.8232 107.479 18.8176 106.53 18.8194C106.408 18.8194 106.279 18.7895 106.156 18.8831C106.057 19.3153 105.929 19.7569 105.849 20.2566ZM72.7816 14.9627C73.2887 14.9627 73.7602 14.9609 74.2337 14.9646C74.2954 14.9646 74.3572 14.9814 74.4171 14.9964C74.7464 15.0787 74.8531 15.2191 74.8269 15.5597C74.8119 15.7449 74.7764 15.9302 74.7352 16.1117C74.6173 16.6338 74.4919 17.1559 74.3684 17.678C74.1906 18.4302 74.0091 19.1806 73.8332 19.9328C73.8089 20.0376 73.7677 20.1443 73.8164 20.2472C74.258 20.2959 75.087 20.2865 75.3695 20.2304C75.3939 20.1537 75.4257 20.0732 75.4463 19.9909C75.7775 18.5968 76.1106 17.2026 76.4362 15.8067C76.5129 15.4773 76.5484 15.1442 76.5335 14.8037C76.5017 14.1338 76.2004 13.7445 75.5585 13.548C75.5118 13.5331 75.4631 13.5237 75.4145 13.5106C75.1225 13.432 74.8231 13.4264 74.5237 13.4264C73.6498 13.4264 72.7778 13.4264 71.9039 13.4264C71.7804 13.4264 71.6588 13.4358 71.5185 13.4395C71.481 13.5724 71.4436 13.6884 71.4137 13.8082C71.1985 14.7045 70.987 15.6027 70.7737 16.499C70.5005 17.6518 70.2273 18.8026 69.9559 19.9553C69.9335 20.0489 69.8886 20.1443 69.969 20.2641C70.4631 20.2846 70.9702 20.2715 71.5166 20.2734C71.9489 18.5088 72.3418 16.7479 72.7816 14.9627ZM37.4519 11.0181C37.1618 10.9451 36.2019 10.9395 35.8613 11.0069C35.8351 11.0929 35.8033 11.1865 35.7808 11.2819C35.6292 11.9125 35.4814 12.5432 35.3298 13.1719C35.3093 13.2543 35.27 13.331 35.2381 13.4152C34.877 13.4227 34.5308 13.4302 34.1977 13.4358C34.063 13.7745 33.9095 14.4201 33.8777 14.7756C33.947 14.7868 34.0181 14.8055 34.0892 14.8074C34.2894 14.813 34.4878 14.8074 34.688 14.8112C34.7572 14.813 34.8265 14.8299 34.9182 14.843C34.8901 14.9871 34.8714 15.1087 34.8433 15.2284C34.6188 16.1865 34.3905 17.1428 34.1659 18.1027C34.1042 18.3703 34.0574 18.6398 34.0592 18.9167C34.0667 19.7813 34.5327 20.2566 35.401 20.2734C35.837 20.2809 36.273 20.2753 36.7108 20.2734C36.782 20.2734 36.8531 20.2566 36.9129 20.2472C37.072 19.8468 37.2161 19.1956 37.2067 18.9261C37.0795 18.8606 36.9391 18.9018 36.8044 18.8887C36.6192 18.8718 36.432 18.8606 36.2486 18.8307C35.9923 18.7895 35.8613 18.6155 35.8295 18.3703C35.8145 18.2487 35.822 18.1214 35.837 17.9979C35.8538 17.8501 35.8856 17.7023 35.9193 17.5582C36.1083 16.7461 36.2992 15.9339 36.4919 15.1218C36.5144 15.0264 36.5499 14.9347 36.5836 14.828C36.7015 14.8224 36.8119 14.813 36.9223 14.813C37.2722 14.8112 37.6203 14.8149 37.9702 14.8112C38.0544 14.8112 38.1386 14.7906 38.2116 14.7812C38.3744 14.3209 38.5017 13.7239 38.4942 13.4395C38.2378 13.4171 37.9777 13.4339 37.7176 13.4264C37.4612 13.4189 37.2011 13.4564 36.9129 13.3909C37.072 12.5825 37.304 11.8078 37.4519 11.0181ZM64.7426 13.4713C64.6696 13.4507 64.634 13.4302 64.6003 13.4302C63.7658 13.432 62.9293 13.4114 62.0947 13.4451C61.3088 13.4769 60.6201 13.7857 60.0475 14.3321C59.5236 14.8299 59.1493 15.4268 58.8836 16.0967C58.6123 16.7779 58.4775 17.4815 58.5318 18.2169C58.5599 18.5949 58.6497 18.9542 58.8256 19.291C59.0427 19.7083 59.3757 19.9927 59.8267 20.1331C60.1261 20.2266 60.433 20.2753 60.7455 20.2772C61.4678 20.279 62.192 20.279 62.9143 20.2772C62.9854 20.2772 63.0565 20.2603 63.1164 20.2528C63.2549 19.8992 63.4345 19.117 63.4476 18.8232C63.3541 18.739 63.2362 18.7689 63.1295 18.767C62.6318 18.7633 62.1321 18.767 61.6344 18.7652C61.4716 18.7652 61.3106 18.7652 61.1478 18.7502C60.6912 18.709 60.3657 18.4096 60.2796 17.9586C60.2665 17.8857 60.2534 17.8108 60.2534 17.736C60.2515 17.008 60.4311 16.3306 60.8204 15.7131C61.0131 15.4062 61.2919 15.206 61.6381 15.0956C61.902 15.0133 62.1677 14.9571 62.4446 14.9552C62.9798 14.9534 63.5169 14.9515 64.0521 14.9478C64.1606 14.9478 64.271 14.9347 64.3964 14.9253C64.5386 14.4425 64.6434 13.971 64.7426 13.4713ZM99.509 18.7764C99.3219 18.7708 99.1872 18.7633 99.0524 18.7633C98.4667 18.7596 97.881 18.7689 97.2953 18.7521C96.674 18.7334 96.3016 18.3572 96.2867 17.736C96.268 17.0342 96.4588 16.3812 96.8106 15.7767C97.0052 15.4399 97.2934 15.2135 97.6677 15.0956C97.9315 15.0133 98.1973 14.9571 98.4742 14.9552C98.9982 14.9515 99.5221 14.9515 100.044 14.9478C100.166 14.9459 100.289 14.9365 100.398 14.9309C100.548 14.5941 100.746 13.7445 100.744 13.4601C100.699 13.4507 100.65 13.432 100.604 13.432C99.7803 13.4339 98.9588 13.4302 98.1355 13.4433C97.8118 13.4489 97.4955 13.5312 97.1886 13.6416C96.6085 13.8512 96.1426 14.2161 95.7534 14.6839C95.0535 15.5222 94.6699 16.4972 94.5595 17.5769C94.5052 18.1046 94.5726 18.6229 94.7766 19.117C95.0179 19.7027 95.4521 20.0657 96.0715 20.1892C96.3147 20.2379 96.5655 20.2678 96.8125 20.2734C97.5105 20.2846 98.2085 20.279 98.9065 20.2772C98.9907 20.2772 99.0768 20.2603 99.1797 20.251C99.3013 19.7738 99.4248 19.3097 99.509 18.7764ZM15.8499 13.4451C15.324 15.6252 14.8244 17.7846 14.3098 19.9385C14.2873 20.0339 14.2817 20.1312 14.2668 20.2397C14.54 20.3052 14.8019 20.2753 15.0602 20.2715C15.3296 20.2678 15.6047 20.3221 15.8817 20.2248C16.095 19.3228 16.3008 18.4246 16.5198 17.5301C16.7406 16.6244 16.9333 15.7131 17.1803 14.7981C17.4554 14.7606 17.7136 14.7681 17.9756 14.7943C18.1946 14.8149 18.2638 14.9814 18.2451 15.1274C18.2245 15.2883 18.1796 15.4436 18.1515 15.6027C18.1122 15.8216 18.0168 16.0312 18.0318 16.2595C18.3106 16.3231 19.1882 16.3269 19.5213 16.267C19.5344 16.2371 19.5569 16.2071 19.5662 16.1716C19.6654 15.7599 19.7739 15.3501 19.8563 14.9347C19.9012 14.7045 19.9348 14.4706 19.903 14.2292C19.8506 13.8512 19.6467 13.6229 19.2893 13.5106C19.0722 13.4414 18.8495 13.4245 18.625 13.4245C17.8016 13.4245 16.9782 13.4227 16.1567 13.4245C16.0669 13.4264 15.9808 13.4376 15.8499 13.4451ZM93.4255 20.2734C93.5658 19.9197 95.0086 13.8212 95.0423 13.462C94.7747 13.3852 94.5015 13.4283 94.2301 13.4283C93.9476 13.4283 93.6613 13.3852 93.3675 13.4713C92.8641 15.5971 92.3607 17.7172 91.8574 19.8374C91.8312 19.9459 91.8124 20.0563 91.7919 20.1667C91.79 20.178 91.7956 20.1911 91.7994 20.2023C91.8031 20.2135 91.8106 20.2229 91.8349 20.2697C92.3514 20.279 92.8828 20.2772 93.4255 20.2734ZM32.2965 13.4601C31.7763 15.6645 31.2598 17.8576 30.7433 20.0507C30.7302 20.1087 30.7284 20.1705 30.7209 20.2397C31.0035 20.3108 31.2785 20.2753 31.5499 20.2715C31.8306 20.2678 32.1187 20.3221 32.3938 20.2248C32.4144 20.1499 32.4331 20.0919 32.4462 20.032C32.7157 18.9055 32.9833 17.779 33.2527 16.6506C33.4717 15.73 33.6906 14.8093 33.9039 13.8867C33.9357 13.7483 34.0012 13.6079 33.9638 13.462C33.6476 13.4152 32.6857 13.4133 32.2965 13.4601ZM32.5398 12.6648C32.8074 12.7378 33.0824 12.6947 33.3538 12.6966C33.6232 12.6985 33.8983 12.7284 34.1509 12.6742C34.3119 12.2774 34.5383 11.2782 34.5364 10.9919C34.2295 10.9283 33.1985 10.9301 32.9122 10.9956C32.7625 11.3961 32.5398 12.3897 32.5398 12.6648ZM95.2481 12.6554C95.4053 12.1858 95.4914 11.6843 95.6111 11.1921C95.628 11.1247 95.6186 11.0536 95.6224 10.9863C95.1901 10.9189 94.2227 10.932 93.9569 11.0087C93.8914 11.2782 93.8166 11.5551 93.7586 11.834C93.7024 12.1072 93.5789 12.371 93.6051 12.6573C93.9345 12.7135 94.9113 12.7135 95.2481 12.6554ZM22.7137 12.6423C22.9551 12.6442 23.1272 12.6405 23.2994 12.648C23.4547 12.6554 23.5838 12.6124 23.7111 12.5132C24.3679 12.0024 25.0322 11.5009 25.6928 10.9956C25.7377 10.9619 25.8013 10.9339 25.7901 10.8347C25.7508 10.8253 25.7059 10.8085 25.6628 10.8085C25.253 10.8066 24.8432 10.8122 24.4334 10.8029C24.28 10.7991 24.1808 10.8628 24.0853 10.975C23.6718 11.4709 23.2508 11.9612 22.8335 12.4552C22.8035 12.4926 22.7829 12.5357 22.7137 12.6423ZM82.9052 10.8684C82.6395 10.7898 81.7132 10.7786 81.2716 10.8459C80.8112 11.3979 80.3359 11.9687 79.8587 12.5413C79.8531 12.5488 79.8531 12.5638 79.8531 12.575C79.855 12.5862 79.8606 12.5993 79.8737 12.6367C80.0459 12.6554 80.2311 12.6405 80.4145 12.648C80.5605 12.6554 80.6765 12.6049 80.7906 12.517C81.4493 12.008 82.1118 11.5046 82.7723 10.9975C82.8172 10.9638 82.8547 10.9189 82.9052 10.8684Z" fill="white"/>
<path d="M29.57 14.9591C29.265 16.2484 28.9712 17.4815 28.6774 18.7259C28.5782 18.739 28.4959 18.7578 28.4117 18.7578C28.0749 18.7596 27.738 18.7671 27.4031 18.7521C27.2309 18.7447 27.055 18.7128 26.8922 18.6586C26.5797 18.5557 26.3963 18.3255 26.3739 17.9943C26.3589 17.7716 26.357 17.5433 26.387 17.3244C26.4469 16.8921 26.5666 16.4729 26.7444 16.0725C27.0644 15.3483 27.6276 14.9871 28.4079 14.9516C28.7803 14.9366 29.1527 14.9366 29.57 14.9591Z" fill="white"/>
<path d="M39.239 17.6798C39.2951 16.9463 39.4504 16.3231 39.7985 15.758C39.9706 15.4792 40.1877 15.2359 40.4703 15.0675C40.8352 14.8486 41.2244 14.7569 41.651 14.8617C41.9991 14.9477 42.2274 15.1592 42.3303 15.4904C42.3921 15.6888 42.4332 15.9077 42.422 16.1135C42.3902 16.7292 42.2386 17.3186 41.9317 17.8613C41.7633 18.1588 41.5481 18.4152 41.2637 18.6061C40.8857 18.8587 40.474 18.9635 40.0193 18.8568C39.6712 18.7764 39.4448 18.5593 39.3419 18.2262C39.2782 18.026 39.2633 17.8127 39.239 17.6798Z" fill="white"/>
<path d="M78.0883 17.6687C78.1445 16.9557 78.2998 16.3326 78.6422 15.7656C78.805 15.4961 79.0109 15.2603 79.2785 15.0919C79.6509 14.8561 80.0476 14.7532 80.4892 14.858C80.8691 14.9478 81.0955 15.1892 81.204 15.5485C81.2695 15.7637 81.2957 15.9882 81.2714 16.2147C81.2171 16.7124 81.1067 17.199 80.8915 17.6537C80.7175 18.0205 80.4836 18.3386 80.1524 18.58C79.8492 18.8008 79.5124 18.9074 79.1363 18.8962C78.6217 18.8794 78.2923 18.6267 78.1613 18.1309C78.1183 17.9624 78.1071 17.7865 78.0883 17.6687Z" fill="white"/>
<path d="M101.594 17.5957C101.639 16.952 101.798 16.3289 102.142 15.7637C102.299 15.5055 102.496 15.2791 102.748 15.1107C103.104 14.8749 103.489 14.7607 103.92 14.8393C104.361 14.9217 104.62 15.193 104.722 15.6234C104.775 15.8423 104.79 16.065 104.762 16.2914C104.698 16.8023 104.576 17.2963 104.337 17.7548C104.185 18.0467 103.991 18.3031 103.736 18.5108C103.405 18.7821 103.025 18.9168 102.595 18.8925C102.118 18.8663 101.803 18.6174 101.667 18.1608C101.646 18.0897 101.624 18.0167 101.616 17.9438C101.603 17.8334 101.601 17.7211 101.594 17.5957Z" fill="white"/>
<path d="M65.5696 17.663C65.592 16.9893 65.7492 16.4055 66.0505 15.8609C66.2096 15.5746 66.4154 15.3258 66.683 15.133C66.9749 14.9216 67.3005 14.8112 67.6617 14.8168C68.2549 14.8243 68.6534 15.1798 68.7133 15.7693C68.7358 15.9901 68.7339 16.2202 68.7077 16.441C68.6478 16.9257 68.5075 17.3916 68.2698 17.822C68.1183 18.0971 67.9255 18.3404 67.6766 18.5369C67.351 18.7932 66.9805 18.9186 66.5651 18.8962C66.0393 18.8681 65.6819 18.5444 65.5995 18.0223C65.5789 17.8857 65.5771 17.7472 65.5696 17.663Z" fill="white"/>
</svg>
