<svg width="90" height="33" viewBox="0 0 90 33" fill="none" xmlns="http://www.w3.org/2000/svg">
<path d="M76.2253 15.0509L86.4519 4.81374L83.7631 2.12495L73.54 12.3586L76.2253 15.0509Z" fill="white"/>
<path d="M69.061 0H65.2728V10.9736H69.061V0Z" fill="white"/>
<path d="M89.3028 19.2937H78.1036V23.0855H89.3028V19.2937Z" fill="white"/>
<path d="M69.9527 26.6342C69.526 27.0705 69.0165 27.4172 68.454 27.6539C67.8915 27.8906 67.2874 28.0125 66.6772 28.0125C66.0669 28.0125 65.4628 27.8906 64.9003 27.6539C64.3378 27.4172 63.8283 27.0705 63.4016 26.6342C62.9638 26.2019 62.6158 25.6873 62.3775 25.12C62.1392 24.5527 62.0154 23.944 62.0132 23.3287C62.0038 22.706 62.1221 22.0879 62.3609 21.5127C62.5997 20.9375 62.9539 20.4174 63.4016 19.9844C63.8132 19.5362 64.3181 19.1837 64.8807 18.9517C65.4433 18.7197 66.0499 18.6139 66.6578 18.6418C67.2777 18.6137 67.8965 18.719 68.4722 18.9506C69.048 19.1822 69.5673 19.5348 69.995 19.9844C70.8655 20.8748 71.3493 22.0728 71.3414 23.318C71.3335 24.5632 70.8344 25.7549 69.9527 26.6342ZM72.9269 17.0102C72.1144 16.1716 71.1393 15.5075 70.0614 15.0586C68.9835 14.6096 67.8254 14.3851 66.6578 14.3989C65.5016 14.3809 64.3543 14.6037 63.2889 15.0533C62.2235 15.5029 61.2634 16.1693 60.4697 17.0102C59.6294 17.8309 58.9658 18.8148 58.5197 19.9014C58.0737 20.988 57.8547 22.1543 57.876 23.3287C57.8517 24.4967 58.0696 25.657 58.516 26.7366C58.9624 27.8162 59.6276 28.7916 60.4697 29.6014C61.261 30.4481 62.2197 31.1209 63.285 31.5771C64.3504 32.0334 65.4989 32.263 66.6578 32.2514C69.011 32.2337 71.2615 31.2853 72.9176 29.6133C74.5737 27.9414 75.5006 25.682 75.4959 23.3287C75.5128 22.1574 75.2944 20.9947 74.8538 19.9094C74.4131 18.824 73.7591 17.8382 72.9304 17.0102" fill="white"/>
<path d="M10.9085 10.0363C9.47001 9.98819 8.03808 10.251 6.71046 10.8069C5.38283 11.3628 4.19078 12.1985 3.21566 13.2572C2.17473 14.2657 1.35229 15.4774 0.799414 16.8172C0.246539 18.1569 -0.024953 19.5961 0.00180156 21.0452C-0.0224171 22.5002 0.250065 23.9449 0.802621 25.2912C1.35518 26.6374 2.17622 27.857 3.21566 28.8754C4.21116 29.9043 5.40805 30.717 6.73165 31.2627C8.05524 31.8084 9.47711 32.0754 10.9085 32.047C13.3119 32.072 15.6526 31.2806 17.5477 29.8022C19.4195 28.3223 20.7621 26.2763 21.3747 23.9701H16.938C16.3779 25.0902 15.5514 26.0558 14.5311 26.7822C13.4466 27.4701 12.1893 27.8366 10.905 27.8394C10.0168 27.8484 9.13618 27.6755 8.31738 27.3313C7.49858 26.987 6.75896 26.4787 6.14408 25.8378C5.4972 25.2193 4.9885 24.471 4.65142 23.6419C4.31434 22.8129 4.1565 21.9219 4.18828 21.0275C4.1565 20.1332 4.31434 19.2422 4.65142 18.4131C4.9885 17.5841 5.4972 16.8358 6.14408 16.2173C7.22076 15.1169 8.64776 14.4267 10.1789 14.2658C11.71 14.105 13.2493 14.4836 14.5311 15.3363C15.5596 16.0557 16.3869 17.0262 16.9345 18.1555H21.3712C20.7689 15.8485 19.4255 13.8031 17.5477 12.3339C15.6762 10.8078 13.3228 9.99709 10.9085 10.0468" fill="white"/>
<path d="M39.5796 23.9383L40.3901 23.4943V25.207C40.3901 26.6694 39.9848 27.6737 39.2131 28.2623C38.4434 28.8225 37.515 29.1225 36.5631 29.1186C36.0201 29.1369 35.4879 28.9649 35.0583 28.6323C34.8404 28.4147 34.6726 28.1522 34.5667 27.8631C34.4608 27.574 34.4193 27.2652 34.4452 26.9584C34.4258 26.5766 34.5103 26.1968 34.6896 25.8592C34.8689 25.5216 35.1364 25.239 35.4636 25.0413C36.0887 24.7295 36.7662 24.536 37.4617 24.4705L39.5796 23.9383ZM37.7894 14.3602C34.9385 14.3144 32.944 15.0932 31.7987 16.6014C31.0657 17.5388 30.6992 18.7652 30.5758 20.3122H34.8046C34.8432 19.7459 35.0562 19.2055 35.4143 18.7652C35.8618 18.1907 36.5948 17.9018 37.6555 17.9476C38.372 17.8795 39.0929 18.0203 39.7311 18.3528C40.2174 18.5995 40.4359 19.0894 40.4641 19.7836C40.4641 20.3509 40.1364 20.802 39.488 21.0874L36.2283 21.616C34.9481 21.7496 33.7046 22.1239 32.5634 22.719C30.9776 23.6564 30.2058 25.1647 30.2446 27.3284C30.1966 27.9995 30.2981 28.6728 30.5419 29.2999C30.7856 29.927 31.1655 30.4921 31.6542 30.9546C32.637 31.7383 33.8613 32.1568 35.1182 32.1386C37.437 32.0963 39.266 31.5254 40.5698 30.3766V32.1386H44.7986V19.6602C44.7986 17.6199 44.0621 16.1962 42.6842 15.4597C41.1642 14.6679 39.463 14.2888 37.7507 14.3602" fill="white"/>
<path d="M27.7708 10.0363H23.5349V32.1386H27.7708V10.0363Z" fill="white"/>
<path d="M54.7256 14.9698C53.5097 15.4638 52.4622 16.2983 51.7091 17.3732V15.213L47.6812 15.1742V32.1386H51.8853V24.0335C51.8853 22.645 52.0509 21.6689 52.4174 21.0557C52.7431 20.3859 53.2513 19.8216 53.8834 19.4277C54.5598 18.9485 55.3662 18.6866 56.1951 18.6771L57.4955 18.7616L57.4567 14.4483L56.3572 14.5329L54.7256 14.9698Z" fill="white"/>
</svg>
