<svg width="144" height="33" viewBox="0 0 144 33" fill="none" xmlns="http://www.w3.org/2000/svg">
<path d="M77.6303 10.1157V17.959C77.6556 18.8983 77.4737 19.8322 77.0962 20.7013C76.7187 21.5703 76.1538 22.3555 75.4377 23.0067C74.7876 23.6318 74.0105 24.126 73.1532 24.4596C72.2958 24.7933 71.376 24.9594 70.449 24.9481C69.4618 24.9732 68.4796 24.8081 67.562 24.463C66.6444 24.1179 65.8106 23.6 65.1113 22.9407C64.414 22.3104 63.8624 21.5502 63.4914 20.7081C63.1204 19.8661 62.938 18.9604 62.9556 18.0484V9.68084C62.9381 9.39048 62.982 9.09973 63.085 8.82568C63.1879 8.55163 63.3478 8.2998 63.5551 8.08499C63.7493 7.89638 63.9827 7.74792 64.2407 7.649C64.4987 7.55008 64.7755 7.50287 65.0538 7.51033C65.3198 7.50277 65.5848 7.54637 65.8325 7.63847C66.0802 7.73057 66.3056 7.86927 66.495 8.04617C66.7092 8.26553 66.8751 8.52306 66.983 8.80373C67.0909 9.08439 67.1385 9.38257 67.1232 9.68084V18.0561C67.11 18.4638 67.1843 18.8698 67.3416 19.2495C67.499 19.6292 67.7362 19.9748 68.0388 20.2654C68.3435 20.5582 68.7093 20.7878 69.1129 20.9395C69.5166 21.0913 69.9492 21.1619 70.3833 21.1469C71.1557 21.1568 71.901 20.8777 72.4568 20.3703C72.7898 20.0575 73.0505 19.6827 73.2222 19.2696C73.394 18.8565 73.4731 18.4142 73.4545 17.9707V9.68084C73.4359 9.39164 73.4778 9.10181 73.5779 8.82796C73.6779 8.55411 73.8341 8.30163 74.0376 8.08499C74.2291 7.89631 74.4603 7.74768 74.7164 7.6487C74.9724 7.54972 75.2475 7.50259 75.5239 7.51033C75.8942 7.48975 76.263 7.57032 76.5862 7.74243C76.9095 7.91454 77.1735 8.17094 77.347 8.48104C77.5725 8.99824 77.6694 9.5575 77.6303 10.1157Z" fill="white"/>
<path d="M89.2067 7.39768C90.6694 7.35762 92.1138 7.71324 93.3702 8.42274C94.4172 9.0673 94.9386 9.77785 94.9386 10.5467C94.9573 10.8102 94.9204 11.0746 94.8302 11.3245C94.74 11.5744 94.5982 11.805 94.4131 12.0027C94.2439 12.17 94.0396 12.3019 93.8134 12.3902C93.5871 12.4785 93.3439 12.5211 93.0992 12.5153C92.7552 12.5003 92.4248 12.3835 92.1548 12.1813C91.8263 11.96 91.5143 11.7309 91.2063 11.4902C90.6365 11.0101 89.9146 10.722 89.1534 10.6709C88.6156 10.6532 88.0888 10.817 87.667 11.133C87.4862 11.2561 87.3382 11.4175 87.2348 11.6042C87.1315 11.7909 87.0756 11.9978 87.0716 12.2085C87.0716 12.9851 87.8025 13.5287 89.2683 13.8704C91.5512 14.3984 93.1567 15.0352 94.101 15.7652C95.237 16.6349 95.8064 17.8632 95.8091 19.45C95.8281 20.1928 95.6768 20.9307 95.3656 21.613C95.0545 22.2954 94.5909 22.9059 94.0066 23.4027C92.7487 24.4706 91.1013 25.0345 89.412 24.9753C87.6474 25.031 85.909 24.5596 84.4438 23.6279C83.2121 22.8125 82.5715 21.8806 82.5715 20.84C82.5646 20.3446 82.7637 19.8663 83.1258 19.5082C83.2981 19.3276 83.5092 19.1839 83.745 19.0867C83.9808 18.9896 84.2359 18.9414 84.4931 18.9452C85.1419 18.9452 85.8631 19.2779 86.6569 19.9431C87.704 20.8168 88.6319 21.2477 89.4449 21.2477C90.0256 21.2712 90.593 21.0789 91.0257 20.7119C91.2263 20.5364 91.3848 20.3221 91.4904 20.0836C91.5959 19.8451 91.6461 19.588 91.6375 19.3296C91.6375 18.7161 91.2638 18.2463 90.5248 17.924C89.6137 17.5841 88.6829 17.2938 87.7368 17.0543C86.1163 16.5935 84.953 16.0758 84.2468 15.5012C83.817 15.12 83.4808 14.6544 83.2616 14.1373C83.0424 13.6201 82.9456 13.0638 82.978 12.5075C82.9547 11.8078 83.0983 11.1122 83.3983 10.4723C83.6982 9.83232 84.1468 9.26451 84.7107 8.81103C85.8659 7.86879 87.3645 7.39768 89.2067 7.39768Z" fill="white"/>
<path d="M104.669 9.67706V14.2394H111.353V9.67706C111.335 9.38726 111.379 9.097 111.482 8.82353C111.585 8.55006 111.745 8.29894 111.953 8.0851C112.147 7.8961 112.38 7.74738 112.638 7.64844C112.896 7.54949 113.173 7.50249 113.451 7.51044C113.727 7.50275 114.002 7.54993 114.257 7.64892C114.512 7.74792 114.743 7.89651 114.934 8.0851C115.344 8.52307 115.553 9.09698 115.517 9.68094V22.6846C115.535 22.977 115.491 23.2699 115.389 23.5464C115.287 23.8229 115.128 24.0776 114.921 24.2959C114.732 24.4836 114.504 24.6317 114.251 24.7307C113.998 24.8297 113.725 24.8774 113.451 24.8706C113.174 24.8754 112.899 24.8258 112.643 24.7249C112.387 24.6239 112.156 24.4739 111.965 24.2843C111.754 24.0672 111.592 23.8125 111.487 23.5351C111.382 23.2577 111.336 22.9632 111.353 22.669V17.8232H104.669V22.6807C104.687 22.974 104.643 23.2678 104.54 23.5451C104.437 23.8224 104.277 24.0776 104.069 24.2959C103.88 24.4836 103.652 24.6317 103.399 24.7307C103.146 24.8297 102.873 24.8774 102.599 24.8706C102.323 24.8771 102.048 24.8295 101.793 24.7306C101.537 24.6316 101.305 24.4837 101.113 24.2959C100.902 24.0801 100.739 23.8261 100.633 23.5492C100.528 23.2724 100.483 22.9783 100.501 22.6846V9.68094C100.484 9.38969 100.53 9.09822 100.635 8.824C100.74 8.54978 100.903 8.29846 101.113 8.0851C101.306 7.89659 101.539 7.74816 101.796 7.64923C102.054 7.5503 102.33 7.50304 102.608 7.51044C102.874 7.5028 103.14 7.54634 103.388 7.63843C103.637 7.73053 103.863 7.86926 104.053 8.04627C104.265 8.26573 104.429 8.52299 104.535 8.80301C104.64 9.08302 104.686 9.38016 104.669 9.67706Z" fill="white"/>
<path d="M134.107 11.1684L128.966 15.9404L134.891 21.1085C135.663 21.7918 136.053 22.4131 136.053 22.9761C136.06 23.2317 136.01 23.4857 135.905 23.7213C135.8 23.957 135.643 24.1689 135.445 24.3429C135.247 24.5198 135.014 24.6576 134.758 24.7483C134.503 24.8389 134.232 24.8806 133.959 24.8709C133.412 24.8709 132.782 24.5551 132.07 23.9235L125.205 17.7964V22.681C125.222 22.9743 125.178 23.2679 125.075 23.545C124.973 23.8222 124.813 24.0774 124.606 24.2963C124.417 24.484 124.188 24.6321 123.935 24.7311C123.682 24.8301 123.41 24.8777 123.136 24.8709C122.858 24.8781 122.582 24.8307 122.325 24.7318C122.068 24.6329 121.835 24.4846 121.641 24.2963C121.431 24.0792 121.268 23.8245 121.163 23.5471C121.058 23.2697 121.012 22.9752 121.03 22.681V9.65798C121.001 9.06205 121.22 8.4792 121.641 8.03496C121.832 7.83967 122.064 7.68497 122.322 7.58119C122.58 7.47741 122.859 7.42693 123.14 7.43312C123.408 7.42675 123.675 7.47355 123.924 7.57051C124.172 7.66746 124.396 7.81244 124.581 7.99613C125.011 8.45181 125.236 9.04787 125.209 9.65798V14.1621L131.225 8.43101C131.906 7.78646 132.559 7.43312 133.138 7.43312C133.409 7.42857 133.677 7.47614 133.928 7.57293C134.179 7.66971 134.406 7.8137 134.596 7.99613C134.785 8.17052 134.936 8.37944 135.038 8.61032C135.141 8.8412 135.193 9.08926 135.191 9.33959C135.191 9.89613 134.83 10.5057 134.107 11.1684Z" fill="white"/>
<path d="M139.833 22.6842V9.6806C139.814 9.39016 139.858 9.09917 139.961 8.825C140.064 8.55082 140.224 8.29906 140.432 8.08476C140.823 7.72333 141.347 7.5178 141.894 7.51057C142.441 7.50335 142.97 7.69498 143.372 8.04593C143.801 8.49104 144.025 9.07902 143.996 9.6806V22.6842C144.033 23.2742 143.82 23.8538 143.405 24.2956C143.215 24.4843 142.985 24.633 142.73 24.732C142.476 24.831 142.202 24.8781 141.927 24.8702C141.65 24.8748 141.376 24.825 141.12 24.7241C140.865 24.6232 140.635 24.4733 140.444 24.2839C140.234 24.0695 140.072 23.8174 139.967 23.5427C139.862 23.2679 139.816 22.976 139.833 22.6842Z" fill="white"/>
<path d="M42.8073 24.7267C42.5337 24.7272 42.2628 24.6766 42.01 24.5779C41.7572 24.4791 41.5275 24.3342 41.3341 24.1513C41.1407 23.9684 40.9873 23.7511 40.8829 23.5121C40.7785 23.273 40.725 23.0168 40.7256 22.7581V9.63024C40.7256 9.10814 40.9449 8.60742 41.3353 8.23823C41.7257 7.86905 42.2552 7.66164 42.8073 7.66164C43.3594 7.66164 43.8889 7.86905 44.2793 8.23823C44.6696 8.60742 44.889 9.10814 44.889 9.63024V22.7581C44.8895 23.0168 44.836 23.273 44.7316 23.5121C44.6272 23.7511 44.4739 23.9684 44.2805 24.1513C44.087 24.3342 43.8573 24.4791 43.6045 24.5779C43.3517 24.6766 43.0808 24.7272 42.8073 24.7267Z" fill="white"/>
<path d="M61.9986 31.0016C61.4596 31.0017 60.9415 30.804 60.5534 30.4502L46.2154 17.3728C45.8202 17.0112 45.592 16.5166 45.5805 15.9967C45.569 15.4768 45.775 14.9736 46.1538 14.5966L53.1955 7.6075C53.5829 7.25555 54.0989 7.05849 54.6361 7.05737C55.1732 7.05625 55.6901 7.25116 56.0791 7.6015C56.4681 7.95183 56.6992 8.43058 56.7242 8.93802C56.7492 9.44545 56.5662 9.94245 56.2134 10.3255L50.6088 15.8973L63.4604 27.6157C63.7594 27.8884 63.9653 28.2393 64.0517 28.6235C64.1381 29.0077 64.101 29.4076 63.9451 29.7717C63.7893 30.1358 63.5218 30.4474 63.1771 30.6666C62.8325 30.8858 62.4263 31.0024 62.011 31.0016H61.9986Z" fill="white"/>
<path d="M31.0019 6.30258L17.9573 19.1159C17.6108 19.4535 17.1374 19.6482 16.64 19.6576C16.1426 19.6671 15.6613 19.4906 15.3007 19.1664L8.60806 13.1286C8.4065 12.974 8.24089 12.7816 8.12161 12.5636C8.00233 12.3456 7.93195 12.1067 7.91488 11.8618C7.89781 11.6169 7.93442 11.3713 8.02242 11.1404C8.11041 10.9094 8.2479 10.6982 8.42625 10.5199C8.60461 10.3416 8.81999 10.2 9.05889 10.1041C9.2978 10.0082 9.55509 9.95995 9.81462 9.96245C10.0742 9.96495 10.3304 10.0181 10.5671 10.1186C10.8039 10.2191 11.0162 10.3648 11.1907 10.5465L16.5284 15.3496L28.3987 3.73991C25.0513 1.10028 20.7619 -0.226667 16.412 0.0317383C12.0621 0.290144 7.98199 2.11428 5.0102 5.1293C2.03842 8.14431 0.400636 12.1212 0.433405 16.2428C0.466174 20.3643 2.16701 24.3175 5.18639 27.2899C8.20578 30.2623 12.3144 32.0282 16.6679 32.2247C21.0215 32.4213 25.2893 31.0335 28.5943 28.3465C31.8994 25.6596 33.9907 21.8776 34.4384 17.7778C34.8862 13.6779 33.6564 9.57158 31.0019 6.30258ZM23.0979 23.7948H10.5502C10.0503 23.7948 9.57098 23.607 9.21754 23.2728C8.86411 22.9385 8.66555 22.4852 8.66555 22.0125C8.66555 21.5399 8.86411 21.0865 9.21754 20.7523C9.57098 20.4181 10.0503 20.2303 10.5502 20.2303H23.0979C23.5978 20.2303 24.0771 20.4181 24.4306 20.7523C24.784 21.0865 24.9825 21.5399 24.9825 22.0125C24.9825 22.4852 24.784 22.9385 24.4306 23.2728C24.0771 23.607 23.5978 23.7948 23.0979 23.7948Z" fill="white"/>
</svg>
