<svg width="158" height="32" viewBox="0 0 158 32" fill="none" xmlns="http://www.w3.org/2000/svg">
<path d="M4.54746 0.380936H9.69759L16.4914 18.231H16.5462L19.8335 0.380936H24.3809L19.8335 24.9524H14.7929L7.88956 7.10226H7.83477L4.54746 24.9524H0L4.54746 0.380936Z" fill="white"/>
<path d="M27.532 17.7534C27.532 18.9658 28.7468 21.5008 31.8942 21.5008C33.8268 21.5008 35.4833 20.6742 36.5877 19.1311H41.2259C39.5694 22.4377 35.4833 25.5238 31.1212 25.5238C25.489 25.5238 22.2311 21.1702 23.2251 15.7694C24.1638 10.5891 28.9125 5.90478 34.7655 5.90478C40.8394 5.90478 43.3794 10.8646 42.496 15.4939C42.3303 16.3756 42.0542 17.1471 41.8333 17.6982H27.532V17.7534ZM38.2442 14.1712C38.2994 11.1953 36.3668 9.98289 34.0477 9.98289C32.2255 9.98289 29.5198 10.7544 28.029 14.1712H38.2442Z" fill="white"/>
<path d="M45.5589 10.4629H43.4085L44.1253 6.55134H46.2757L47.3784 0.380936H51.7894L50.6867 6.55134H53.3333L52.6165 10.4629H49.9699L47.2681 24.9524H42.8571L45.5589 10.4629Z" fill="white"/>
<path d="M60.9313 0.43573L60.1606 4.50929H64.5644L65.3351 0.43573H60.9313Z" fill="#FCE300"/>
<path d="M59.7751 6.60577L56.3621 24.9919H60.7659L64.1789 6.60577H59.7751Z" fill="url(#paint0_linear_6_67)"/>
<path d="M54.4915 0.380936L49.9048 24.9524H54.3257L58.8572 0.380936H54.4915Z" fill="url(#paint1_linear_6_67)"/>
<path d="M73.4582 0C72.085 0 70.547 0.549612 69.3386 1.48395C67.1964 3.13279 66.5922 5.38619 66.2626 6.59534H64.7247L63.9557 10.4976H65.4937L62.8571 24.9524H67.2514L69.9428 10.4976H72.5244L73.2385 6.59534H70.6569C71.2062 4.39689 72.1949 4.34193 73.8976 4.28697L74.6666 0H73.4582Z" fill="url(#paint2_linear_6_67)"/>
<path d="M144.66 5.55987C142.568 9.68848 140.696 15.5786 138.88 18.276C137.063 20.9734 133.98 24.8818 126.879 25.0469C126.879 25.0469 131.834 27.5241 139.1 24.8818C146.862 22.0193 154.018 14.5327 156.055 10.6243C157.266 8.25723 159.633 5.28463 156.22 3.57813C154.899 2.91755 153.027 2.47717 151.155 2.47717C148.458 2.47717 145.761 3.30289 144.66 5.55987Z" fill="url(#paint3_linear_6_67)"/>
<path d="M81.8575 9.73729C84.2324 9.73729 86.1102 11.0048 86.055 13.9256H75.8374C77.3287 10.5639 80.0902 9.73729 81.8575 9.73729ZM71.0324 15.5789C70.0383 20.9245 73.3521 25.3333 78.9303 25.3333C83.2935 25.3333 87.3253 22.2472 89.0374 18.9406H84.3981C83.2935 20.4837 81.6918 21.3103 79.7035 21.3103C76.5554 21.3103 75.2851 18.7202 75.3404 17.5629H89.6449C89.8659 16.9567 90.142 16.1851 90.3077 15.3585C91.1914 10.6742 88.5956 5.71428 82.5755 5.71428C76.7211 5.71428 72.0266 10.3986 71.0324 15.5789Z" fill="url(#paint4_linear_6_67)"/>
<path d="M99.961 13.6245C99.961 13.6245 106.457 6.13791 113.833 11.918C117.301 14.6153 117.246 18.4137 123.191 22.9827C130.348 28.5425 138.275 25.1846 138.275 25.1846C129.852 24.469 128.366 21.3863 126.384 16.8723C122.751 8.39488 118.677 5.97276 112.347 5.91771C112.292 5.91771 112.127 5.91771 112.072 5.91771C105.246 5.91771 102.053 9.49585 99.961 13.6245Z" fill="url(#paint5_linear_6_67)"/>
<path d="M99.9611 13.5968C98.5298 15.9639 97.7041 19.9274 95.4471 22.1293C93.2452 24.3312 90.768 24.4964 87.9606 22.0192C87.9606 22.0192 90.4378 25.212 97.2087 25.3221C98.3647 24.9368 101.778 23.8909 106.677 16.6245C106.677 16.6245 110.145 10.1839 115.264 13.3216C115.264 13.3216 112.292 9.57832 107.833 9.57832C105.576 9.63337 102.879 10.6242 99.9611 13.5968Z" fill="url(#paint6_linear_6_67)"/>
<path d="M44.9524 30.8196C44.8967 30.9805 44.7854 31.1415 44.674 31.3025C44.5627 31.4634 44.4513 31.5708 44.2843 31.6781C44.1173 31.7854 43.9502 31.839 43.7832 31.8927C43.6162 31.9463 43.3935 32 43.2264 32C42.948 32 42.7253 31.9463 42.5026 31.839C42.2799 31.7317 42.0572 31.6244 41.8902 31.4634C41.7231 31.3025 41.6118 31.0879 41.5004 30.8732C41.3891 30.6586 41.3334 30.3903 41.3334 30.1221C41.3334 29.8538 41.3891 29.6392 41.5004 29.3709C41.6118 29.1563 41.7231 28.9417 41.8902 28.7807C42.0572 28.6197 42.2799 28.4588 42.5026 28.3514C42.7253 28.2441 42.948 28.1905 43.2264 28.1905C43.4491 28.1905 43.6162 28.2441 43.8389 28.2978C44.0059 28.3514 44.1729 28.4588 44.34 28.5661C44.507 28.6734 44.6184 28.7807 44.7297 28.9417C44.8411 29.1026 44.8967 29.2636 44.9524 29.4245H44.4513C44.34 29.2099 44.1729 28.9953 44.0059 28.888C43.8389 28.7807 43.5605 28.6734 43.2264 28.6734C43.0594 28.6734 42.8367 28.727 42.6696 28.7807C42.5026 28.8343 42.3356 28.9417 42.2242 29.1026C42.1129 29.2099 42.0015 29.3709 41.9458 29.5855C41.8902 29.7465 41.8345 29.9611 41.8345 30.1221C41.8345 30.283 41.8902 30.4977 41.9458 30.6586C42.0015 30.8196 42.1129 30.9805 42.2242 31.1415C42.3356 31.2488 42.5026 31.3561 42.6696 31.4634C42.8367 31.5171 43.0037 31.5708 43.2264 31.5708C43.5048 31.5708 43.7275 31.5171 43.9502 31.3561C44.1729 31.1952 44.34 31.0342 44.4513 30.7659H44.9524V30.8196Z" fill="white"/>
<path d="M47.1429 28.1905C47.409 28.1905 47.6219 28.2449 47.8348 28.3537C48.0477 28.4626 48.2605 28.5714 48.4202 28.7347C48.5799 28.898 48.6863 29.1156 48.7928 29.3333C48.8992 29.551 48.9524 29.8231 48.9524 30.0952C48.9524 30.3673 48.8992 30.585 48.7928 30.8571C48.6863 31.0748 48.5799 31.2925 48.4202 31.4558C48.2605 31.619 48.0477 31.7823 47.8348 31.8367C47.6219 31.9456 47.409 32 47.1429 32C46.8768 32 46.6639 31.9456 46.451 31.8367C46.2381 31.7279 46.0253 31.619 45.8656 31.4558C45.7059 31.2925 45.5995 31.0748 45.493 30.8571C45.3866 30.6395 45.3334 30.3673 45.3334 30.0952C45.3334 29.8231 45.3866 29.6054 45.493 29.3333C45.5995 29.1156 45.7059 28.898 45.8656 28.7347C46.0253 28.5714 46.2381 28.4082 46.451 28.3537C46.6639 28.2993 46.93 28.1905 47.1429 28.1905ZM47.1429 31.5646C47.3026 31.5646 47.5154 31.5102 47.6751 31.4558C47.8348 31.4014 47.9944 31.2925 48.1009 31.1293C48.2073 31.0204 48.3138 30.8571 48.367 30.6395C48.4202 30.4762 48.4734 30.2585 48.4734 30.0408C48.4734 29.8231 48.4202 29.6599 48.367 29.4422C48.3138 29.2245 48.2073 29.1156 48.1009 28.9524C47.9944 28.8435 47.8348 28.7347 47.6751 28.6259C47.5154 28.5714 47.3558 28.517 47.1429 28.517C46.9832 28.517 46.7703 28.5714 46.6107 28.6259C46.451 28.6803 46.2914 28.7891 46.1849 28.9524C46.0785 29.0612 45.972 29.2245 45.9188 29.4422C45.8656 29.6054 45.8124 29.8231 45.8124 30.0408C45.8124 30.2585 45.8656 30.4218 45.9188 30.6395C45.972 30.8027 46.0785 30.966 46.1849 31.1293C46.2914 31.2381 46.451 31.3469 46.6107 31.4558C46.8236 31.5102 46.9832 31.5646 47.1429 31.5646Z" fill="white"/>
<path d="M50.857 28.1905C51.031 28.1905 51.2049 28.2465 51.3788 28.3025C51.5527 28.3585 51.6686 28.4706 51.7846 28.5826C51.9005 28.6947 52.0165 28.8627 52.0744 28.9748C52.1324 29.1429 52.1904 29.3109 52.1904 29.479V32H51.7266V29.479C51.7266 29.3669 51.7266 29.2549 51.6686 29.1429C51.6107 29.0308 51.5527 28.9188 51.4947 28.8627C51.4368 28.8067 51.3208 28.7507 51.2049 28.6947C51.0889 28.6387 50.973 28.6387 50.857 28.6387C50.7411 28.6387 50.6252 28.6387 50.5092 28.6947C50.3933 28.7507 50.2773 28.8067 50.2194 28.8627C50.1614 28.9188 50.0455 29.0308 50.0455 29.1429C49.9875 29.2549 49.9875 29.3669 49.9875 29.479V32H49.5237V29.479C49.5237 29.3109 49.5817 29.1429 49.6397 28.9748C49.6976 28.8067 49.8136 28.6947 49.9295 28.5826C50.0455 28.4706 50.2194 28.3585 50.3353 28.3025C50.5092 28.2465 50.6831 28.1905 50.857 28.1905Z" fill="white"/>
<path d="M53.3679 29.9474H54.9783V30.3795H53.3679V30.9197C53.3679 31.1357 53.4198 31.2978 53.5237 31.4058C53.6276 31.5138 53.7835 31.5678 53.9912 31.5678H55.238V32H53.9912C53.6796 32 53.4198 31.8919 53.212 31.7299C53.0042 31.5138 52.9523 31.2978 52.9523 30.9197V29.4612C52.9523 29.1371 53.0562 28.8671 53.212 28.651C53.4198 28.489 53.6796 28.3809 53.9912 28.3809H55.238V28.813H53.9912C53.7835 28.813 53.6276 28.8671 53.5237 28.9751C53.4198 29.0831 53.3679 29.2452 53.3679 29.4612V29.9474Z" fill="white"/>
<path d="M59.4285 30.8196C59.3728 30.9805 59.2614 31.1415 59.1501 31.3025C59.0387 31.4634 58.9274 31.5708 58.7603 31.6781C58.5933 31.7854 58.4263 31.839 58.2592 31.8927C58.0922 31.9463 57.8695 32 57.7025 32C57.4241 32 57.2014 31.9463 56.9787 31.839C56.7559 31.7317 56.5332 31.6244 56.3662 31.4634C56.1992 31.3025 56.0878 31.0879 55.9765 30.8732C55.8651 30.6586 55.8094 30.3903 55.8094 30.1221C55.8094 29.8538 55.8651 29.6392 55.9765 29.3709C56.0878 29.1563 56.1992 28.9417 56.3662 28.7807C56.5332 28.6197 56.7559 28.4588 56.9787 28.3514C57.2014 28.2441 57.4241 28.1905 57.7025 28.1905C57.9252 28.1905 58.0922 28.2441 58.3149 28.2978C58.482 28.3514 58.649 28.4588 58.816 28.5661C58.9831 28.6734 59.0944 28.7807 59.2058 28.9417C59.3171 29.1026 59.3728 29.2636 59.4285 29.4245H58.9274C58.816 29.2099 58.649 28.9953 58.482 28.888C58.3149 28.7807 58.0365 28.6734 57.7025 28.6734C57.5354 28.6734 57.3127 28.727 57.1457 28.7807C56.9787 28.8343 56.8116 28.9417 56.7003 29.1026C56.5889 29.2099 56.4776 29.3709 56.4219 29.5855C56.3662 29.7465 56.3105 29.9611 56.3105 30.1221C56.3105 30.283 56.3662 30.4977 56.4219 30.6586C56.4776 30.8196 56.5889 30.9805 56.7003 31.1415C56.8116 31.2488 56.9787 31.3561 57.1457 31.4634C57.3127 31.5171 57.4798 31.5708 57.7025 31.5708C57.9809 31.5708 58.2036 31.5171 58.4263 31.3561C58.649 31.1952 58.816 31.0342 58.9274 30.7659H59.4285V30.8196Z" fill="white"/>
<path d="M61.1658 28.813V32H60.7391V28.813H59.6191V28.3809H62.2857V28.813H61.1658Z" fill="white"/>
<path d="M65.3333 32H64.9118V30.6197H63.2786V32H62.8571V29.5155C62.8571 29.3499 62.9098 29.1843 62.9625 29.0186C63.0152 28.853 63.1205 28.7426 63.2259 28.577C63.3313 28.4665 63.4893 28.3561 63.5947 28.3009C63.7528 28.2457 63.9108 28.1905 64.0689 28.1905C64.2269 28.1905 64.4377 28.2457 64.543 28.3009C64.7011 28.3561 64.8065 28.4665 64.9118 28.577C65.0172 28.6874 65.1226 28.853 65.1752 29.0186C65.2279 29.1843 65.2806 29.3499 65.2806 29.5155V32H65.3333ZM64.9118 29.5155C64.9118 29.4051 64.9118 29.2947 64.8591 29.1843C64.8065 29.0738 64.7538 28.9634 64.7011 28.9082C64.6484 28.853 64.543 28.7426 64.4377 28.7426C64.3323 28.6874 64.2269 28.6874 64.1215 28.6874C64.0162 28.6874 63.9108 28.6874 63.8054 28.7426C63.7001 28.7978 63.5947 28.853 63.542 28.9082C63.4893 28.9634 63.4366 29.0738 63.384 29.1843C63.3313 29.2947 63.3313 29.4051 63.3313 29.5155V30.1781H64.9645V29.5155H64.9118Z" fill="white"/>
<path d="M68.9972 28.813V32H68.5266V28.813H67.4285V28.3809H70.0952V28.813H68.9972Z" fill="white"/>
<path d="M71.0925 30.6694C71.0925 30.8291 71.0925 30.9355 71.1485 31.042C71.2045 31.1484 71.2605 31.2549 71.3166 31.3081C71.4286 31.4145 71.4846 31.4678 71.5967 31.521C71.7087 31.5742 71.8768 31.5742 71.9888 31.5742C72.1569 31.5742 72.2689 31.5742 72.381 31.521C72.493 31.4678 72.6051 31.4145 72.6611 31.3081C72.7171 31.2016 72.8292 31.1484 72.8292 31.042C72.8852 30.9355 72.8852 30.8291 72.8852 30.6694V28.3809H73.3334V30.6694C73.3334 30.8823 73.2773 31.042 73.2213 31.2016C73.1653 31.3613 73.0533 31.521 72.9412 31.6274C72.8292 31.7339 72.6611 31.8403 72.493 31.8935C72.325 31.9467 72.1009 32 71.9328 32C71.7087 32 71.5406 31.9467 71.3166 31.8935C71.1485 31.8403 70.9804 31.7339 70.8684 31.6274C70.7563 31.521 70.6443 31.3613 70.5883 31.2016C70.5322 31.042 70.4762 30.8823 70.4762 30.6694V28.3809H70.9244V30.6694H71.0925Z" fill="white"/>
<path d="M77.2151 32H76.7422L75.4285 28.3809H75.9014L76.9523 31.4598L78.0032 28.3809H78.4762L77.2151 32Z" fill="white"/>
<path d="M79.4286 28.3809H79.0476V32H79.4286V28.3809Z" fill="white"/>
<path d="M80.3808 28.3809H81.5347C81.8094 28.3809 82.0292 28.4349 82.249 28.489C82.4688 28.597 82.6336 28.705 82.7984 28.8671C82.9633 29.0291 83.0732 29.1912 83.1281 29.4072C83.183 29.6233 83.238 29.8934 83.238 30.1634C83.238 30.4335 83.183 30.7036 83.1281 30.9197C83.0732 31.1357 82.9633 31.3518 82.7984 31.5138C82.6336 31.6759 82.4688 31.7839 82.249 31.8919C82.0292 32 81.8094 32 81.5347 32H80.3808V28.3809ZM80.8204 28.813V31.5678H81.5347C81.6995 31.5678 81.8644 31.5678 82.0292 31.5138C82.194 31.4598 82.3039 31.3518 82.4138 31.2437C82.5237 31.1357 82.6336 30.9737 82.6885 30.8116C82.7435 30.6496 82.7984 30.4335 82.7984 30.1634C82.7984 29.8934 82.7435 29.7313 82.6885 29.5152C82.6336 29.3532 82.5237 29.1912 82.4138 29.0831C82.3039 28.9751 82.194 28.8671 82.0292 28.8671C81.8644 28.813 81.7545 28.813 81.5347 28.813H80.8204Z" fill="white"/>
<path d="M86.2856 32H85.8641V30.6197H84.2309V32H83.8094V29.5155C83.8094 29.3499 83.8621 29.1843 83.9148 29.0186C83.9675 28.853 84.0728 28.7426 84.1782 28.577C84.2836 28.4665 84.4416 28.3561 84.547 28.3009C84.7051 28.2457 84.8631 28.1905 85.0212 28.1905C85.1792 28.1905 85.39 28.2457 85.4953 28.3009C85.6534 28.3561 85.7588 28.4665 85.8641 28.577C85.9695 28.6874 86.0749 28.853 86.1275 29.0186C86.1802 29.1843 86.2329 29.3499 86.2329 29.5155V32H86.2856ZM85.8641 29.5155C85.8641 29.4051 85.8641 29.2947 85.8114 29.1843C85.7587 29.0738 85.7061 28.9634 85.6534 28.9082C85.6007 28.853 85.4953 28.7426 85.39 28.7426C85.2846 28.6874 85.1792 28.6874 85.0738 28.6874C84.9685 28.6874 84.8631 28.6874 84.7577 28.7426C84.6524 28.7978 84.547 28.853 84.4943 28.9082C84.4416 28.9634 84.3889 29.0738 84.3363 29.1843C84.2836 29.2947 84.2836 29.4051 84.2836 29.5155V30.1781H85.9168V29.5155H85.8641Z" fill="white"/>
<defs>
<linearGradient id="paint0_linear_6_67" x1="60.7521" y1="7.4315" x2="60.5319" y2="24.7717" gradientUnits="userSpaceOnUse">
<stop stop-color="#FAD200"/>
<stop offset="1" stop-color="#EC8003"/>
</linearGradient>
<linearGradient id="paint1_linear_6_67" x1="54.381" y1="2.94873" x2="54.381" y2="24.7593" gradientUnits="userSpaceOnUse">
<stop stop-color="#FDE700"/>
<stop offset="1" stop-color="#EC7D03"/>
</linearGradient>
<linearGradient id="paint2_linear_6_67" x1="68.7619" y1="0" x2="68.7619" y2="24.9524" gradientUnits="userSpaceOnUse">
<stop offset="0.0501736" stop-color="#FDE800"/>
<stop offset="0.383897" stop-color="#F9CA00"/>
<stop offset="1" stop-color="#EC7A03"/>
</linearGradient>
<linearGradient id="paint3_linear_6_67" x1="155.119" y1="2.20192" x2="132.549" y2="26.9736" gradientUnits="userSpaceOnUse">
<stop stop-color="#EF9200"/>
<stop offset="0.461279" stop-color="#F8C800"/>
<stop offset="1" stop-color="#FEEA00"/>
</linearGradient>
<linearGradient id="paint4_linear_6_67" x1="80.6666" y1="5.71428" x2="80.6666" y2="25.3333" gradientUnits="userSpaceOnUse">
<stop offset="0.0260332" stop-color="#FAD500"/>
<stop offset="0.415613" stop-color="#F5B400"/>
<stop offset="1" stop-color="#EB7704"/>
</linearGradient>
<linearGradient id="paint5_linear_6_67" x1="112.457" y1="4.95497" x2="126.219" y2="29.7266" gradientUnits="userSpaceOnUse">
<stop stop-color="#EF7906"/>
<stop offset="0.476887" stop-color="#E5371B"/>
<stop offset="0.75967" stop-color="#C32730"/>
<stop offset="1" stop-color="#60214E"/>
</linearGradient>
<linearGradient id="paint6_linear_6_67" x1="106.402" y1="8.53239" x2="97.594" y2="26.6983" gradientUnits="userSpaceOnUse">
<stop offset="0.0656557" stop-color="#FDE800"/>
<stop offset="0.431932" stop-color="#F7C200"/>
<stop offset="1" stop-color="#EB7205"/>
</linearGradient>
</defs>
</svg>
