<svg width="23" height="25" viewBox="0 0 23 25" fill="none" xmlns="http://www.w3.org/2000/svg">
<path d="M6.02266 1.14784C6.76427 1.40004 7.68164 1.802 8.5702 2.40123C9.64703 2.12362 10.7969 1.97432 11.9886 1.97432C13.1789 1.97432 14.3277 2.12332 15.4036 2.40039C16.2919 1.80147 17.2092 1.39971 17.9505 1.14763C18.786 0.863585 19.9767 0.402353 20.6837 1.18555C21.1637 1.71727 21.2827 2.60967 21.3683 3.29003C21.464 4.05031 21.4863 5.04132 21.2347 6.02388C22.1972 7.26681 22.7779 8.75055 22.7779 10.366C22.7779 12.8142 21.4519 14.9393 19.4893 16.4112C18.586 17.0886 17.5358 17.6396 16.3841 18.037C16.6412 18.6248 16.7838 19.2741 16.7838 19.9565V23.553C16.7838 24.2151 16.247 24.7518 15.585 24.7518H8.39205C7.72997 24.7518 7.19324 24.2151 7.19324 23.553V22.3646C6.04799 22.5049 5.08822 22.3808 4.27119 22.0342C3.41789 21.6722 2.82313 21.1106 2.37612 20.5742C1.95209 20.0654 1.48982 18.9194 0.820042 18.6962C0.191935 18.4868 -0.147521 17.8079 0.06184 17.1798C0.271213 16.5517 0.950126 16.2123 1.57823 16.4216C2.37638 16.6876 2.89608 17.2633 3.2529 17.7251C3.82721 18.4682 4.29641 19.4405 5.20758 19.8269C5.58229 19.9859 6.13278 20.0914 6.99214 19.973L7.1933 19.9328C7.19657 19.259 7.33882 18.6179 7.59288 18.037C6.4412 17.6396 5.39095 17.0886 4.4877 16.4112C2.52507 14.9393 1.19917 12.8142 1.19917 10.366C1.19917 8.75244 1.77848 7.27027 2.73896 6.02822C2.48638 5.04489 2.50842 4.05281 2.60402 3.29178C2.60594 3.2765 2.60786 3.26115 2.60979 3.24575C2.69716 2.54866 2.80011 1.72716 3.28873 1.18568C3.99553 0.402437 5.18728 0.863752 6.02266 1.14784Z" fill="white"/>
</svg>
