<svg width="32" height="33" viewBox="0 0 32 33" fill="none" xmlns="http://www.w3.org/2000/svg">
<path d="M29.3333 5.37925V28.1244C29.3333 28.6444 29.1268 29.1431 28.759 29.5108C28.3913 29.8786 27.8926 30.0851 27.3725 30.0851H4.62745C4.10742 30.0851 3.60869 29.8786 3.24097 29.5108C2.87325 29.1431 2.66667 28.6444 2.66667 28.1244V5.37925C2.66667 4.85922 2.87325 4.36049 3.24097 3.99277C3.60869 3.62505 4.10742 3.41847 4.62745 3.41847L27.3725 3.41847C27.8926 3.41847 28.3913 3.62505 28.759 3.99277C29.1268 4.36049 29.3333 4.85922 29.3333 5.37925V5.37925ZM10.5098 13.6145H6.58824V26.1636H10.5098V13.6145ZM10.8627 9.30082C10.8648 9.00419 10.8084 8.71005 10.6968 8.4352C10.5852 8.16036 10.4206 7.91019 10.2123 7.69898C10.004 7.48777 9.75611 7.31966 9.48284 7.20424C9.20957 7.08883 8.91624 7.02836 8.61961 7.02631H8.54902C7.94578 7.02631 7.36725 7.26595 6.9407 7.6925C6.51415 8.11905 6.27451 8.69758 6.27451 9.30082C6.27451 9.90406 6.51415 10.4826 6.9407 10.9091C7.36725 11.3357 7.94578 11.5753 8.54902 11.5753V11.5753C8.84568 11.5826 9.14086 11.5314 9.41771 11.4246C9.69456 11.3178 9.94765 11.1574 10.1625 10.9528C10.3774 10.7481 10.5498 10.5031 10.67 10.2318C10.7901 9.96042 10.8556 9.66807 10.8627 9.37141V9.30082ZM25.4118 18.54C25.4118 14.7675 23.0118 13.3008 20.6275 13.3008C19.8468 13.2617 19.0695 13.428 18.3731 13.7831C17.6768 14.1381 17.0857 14.6696 16.6588 15.3244H16.549V13.6145H12.8627V26.1636H16.7843V19.4891C16.7276 18.8055 16.943 18.1271 17.3835 17.6014C17.8241 17.0757 18.4543 16.745 19.1373 16.6812H19.2863C20.5333 16.6812 21.4588 17.4655 21.4588 19.442V26.1636H25.3804L25.4118 18.54Z" fill="white"/>
</svg>
